<?xml version="1.0" encoding="utf-8"?>
<!-- Generator: Adobe Illustrator 23.0.0, SVG Export Plug-In . SVG Version: 6.00 Build 0)  -->
<svg version="1.1" xmlns="http://www.w3.org/2000/svg" xmlns:xlink="http://www.w3.org/1999/xlink" x="0px" y="0px"
	 viewBox="0 0 16 16" style="enable-background:new 0 0 16 16;" xml:space="preserve">
<g id="grid" style="display:none;">
	<g id="grid_1_" style="display:inline;">
		<g id="grid_2_">
			<g>
				<rect x="2" style="fill:#C8E9F0;" width="12" height="16"/>
				<rect y="2" style="fill:#C8E9F0;" width="16" height="12"/>
				<rect x="1" y="1" style="opacity:0.5;fill:#CFA7CE;enable-background:new    ;" width="14" height="14"/>
				<circle style="opacity:0.5;fill:#D0A86F;enable-background:new    ;" cx="8" cy="8" r="8"/>
			</g>
		</g>
	</g>
</g>
<g id="Layer_1">
	<path d="M8,16c4.4,0,8-3.6,8-8s-3.6-8-8-8C3.6,0,0,3.6,0,8S3.6,16,8,16z M8.8,12.2l-1.4-1.4L9.2,9L3,9V7l6.2,0L7.3,5.2l1.4-1.4
		l2.8,2.8L13,8l-1.4,1.4L8.8,12.2z"/>
</g>
</svg>
