<?xml version="1.0" encoding="utf-8"?>
<!-- Generator: Adobe Illustrator 23.0.0, SVG Export Plug-In . SVG Version: 6.00 Build 0)  -->
<svg version="1.1" xmlns="http://www.w3.org/2000/svg" xmlns:xlink="http://www.w3.org/1999/xlink" x="0px" y="0px"
	 viewBox="0 0 16 16" style="enable-background:new 0 0 16 16;" xml:space="preserve">
<g id="grid_2_" style="display:none;">
	<g id="grid_1_" style="display:inline;">
		<g id="grid">
			<g>
				<rect x="2" style="fill:#C8E9F0;" width="12" height="16"/>
				<rect y="2" style="fill:#C8E9F0;" width="16" height="12"/>
				<rect x="1" y="1" style="opacity:0.5;fill:#CFA7CE;enable-background:new    ;" width="14" height="14"/>
				<circle style="opacity:0.5;fill:#D0A86F;enable-background:new    ;" cx="8" cy="8" r="8"/>
			</g>
		</g>
	</g>
</g>
<g id="Layer_1">
	<polygon points="7.3,10.8 9.2,9 4,9 4,7 9.2,7 7.3,5.2 8.8,3.8 11.6,6.6 11.6,6.6 13,8 11.6,9.4 8.8,12.2 	"/>
	<path d="M8,16c4.4,0,8-3.6,8-8s-3.6-8-8-8S0,3.6,0,8S3.6,16,8,16z M8,2c3.3,0,6,2.7,6,6s-2.7,6-6,6s-6-2.7-6-6S4.7,2,8,2z"/>
</g>
</svg>
