<?xml version="1.0" encoding="utf-8"?>
<!-- Generator: Adobe Illustrator 23.0.0, SVG Export Plug-In . SVG Version: 6.00 Build 0)  -->
<svg version="1.1" id="Layer_1" xmlns="http://www.w3.org/2000/svg" xmlns:xlink="http://www.w3.org/1999/xlink" x="0px" y="0px"
	 viewBox="0 0 16 16" style="enable-background:new 0 0 16 16;" xml:space="preserve">
<g>
	<rect x="1" width="9" height="3"/>
	<path d="M9,6.1V4H0v3h7.5C8,6.6,8.5,6.3,9,6.1z"/>
	<path d="M6.6,8H1v3h4.5C5.6,9.9,6,8.9,6.6,8z"/>
	<path d="M5.5,12H0v3h6.6C6,14.1,5.6,13.1,5.5,12z"/>
	<path d="M11.5,7C9,7,7,9,7,11.5S9,16,11.5,16s4.5-2,4.5-4.5S14,7,11.5,7z M12,13.8v0.8h-1v-0.8h-1v-1.1h0.6h1.3
		c0.2,0,0.4-0.2,0.4-0.4s-0.2-0.4-0.4-0.4h-0.9c-0.7,0-1.3-0.6-1.3-1.3s0.6-1.3,1.3-1.3H11V8.5h1v0.8h1v0.9h-0.8h-1
		c-0.2,0-0.4,0.2-0.4,0.4s0.2,0.4,0.4,0.4H12c0.8,0,1.4,0.6,1.4,1.4C13.4,13.1,12.8,13.8,12,13.8z"/>
</g>
</svg>
