<?xml version="1.0" encoding="utf-8"?>
<!-- Generator: Adobe Illustrator 23.0.0, SVG Export Plug-In . SVG Version: 6.00 Build 0)  -->
<svg version="1.1" id="Layer_1" xmlns="http://www.w3.org/2000/svg" xmlns:xlink="http://www.w3.org/1999/xlink" x="0px" y="0px"
	 viewBox="0 0 16 16" style="enable-background:new 0 0 16 16;" xml:space="preserve">
<style type="text/css">
	.st0{display:none;}
	.st1{display:inline;}
	.st2{fill:#C9EAF1;}
	.st3{opacity:0.5;fill:#D0A8CF;enable-background:new    ;}
	.st4{opacity:0.5;fill:#D0A96F;enable-background:new    ;}
</style>
<g id="grid_1_" class="st0">
	<g id="grid" class="st1">
		<rect x="2" class="st2" width="12" height="16"/>
		<rect y="2" class="st2" width="16" height="12"/>
		<rect x="1" y="1" class="st3" width="14" height="14"/>
		<circle class="st4" cx="8" cy="8" r="8"/>
	</g>
</g>
<path d="M8,0C3.6,0,0,3.6,0,8s3.6,8,8,8s8-3.6,8-8S12.4,0,8,0z M8,3c1.1,0,2,0.9,2,2S9,7,8,7C6.9,7,6,6.1,6,5S6.9,3,8,3z M8,12
	c-2,0-4-0.1-4-1.7C4,8,4.9,7.3,5.4,7l0.2-0.1C6.3,7.5,7.1,8,8,8c0.9,0,1.7-0.5,2.3-1.1L10.5,7C11,7.3,12,7.9,12,10.3
	C12,11.9,10,12,8,12z"/>
</svg>
