<?xml version="1.0" encoding="utf-8"?>
<!-- Generator: Adobe Illustrator 23.0.1, SVG Export Plug-In . SVG Version: 6.00 Build 0)  -->
<svg version="1.1" id="location-pin" xmlns="http://www.w3.org/2000/svg" xmlns:xlink="http://www.w3.org/1999/xlink" x="0px"
	 y="0px" viewBox="0 0 16 16" style="enable-background:new 0 0 16 16;" xml:space="preserve">
<g>
	<path d="M8,16c1.1,0,2-0.9,2-2H6C6,15.1,6.9,16,8,16z"/>
	<path d="M8.8,1.6C8.9,1.4,9,1.2,9,1c0-0.6-0.4-1-1-1S7,0.4,7,1c0,0.2,0.1,0.4,0.2,0.6C4.8,2,3,4,3,6.5C3,8,2.8,8.8,2.6,9.3L10,1.9
		C9.6,1.8,9.2,1.6,8.8,1.6z"/>
	<path d="M13,6.5c0-0.6-0.1-1.2-0.3-1.8L16,1.4L14.6,0L0,14.6L1.4,16l3-3H6h0.8h0.5H10h3.1h0.4c1.3,0,2-1.6,1.1-2.6
		C13.9,9.7,13,9.9,13,6.5z"/>
</g>
</svg>
