<?xml version="1.0" encoding="utf-8"?>
<!-- Generator: Adobe Illustrator 23.0.1, SVG Export Plug-In . SVG Version: 6.00 Build 0)  -->
<svg version="1.1" id="location-pin" xmlns="http://www.w3.org/2000/svg" xmlns:xlink="http://www.w3.org/1999/xlink" x="0px"
	 y="0px" viewBox="0 0 16 16" style="enable-background:new 0 0 16 16;" xml:space="preserve">
<path d="M14.6,10.4C13.9,9.7,13,9.9,13,6.5C13,4,11.2,2,8.8,1.6C8.9,1.4,9,1.2,9,1c0-0.6-0.4-1-1-1S7,0.4,7,1c0,0.2,0.1,0.4,0.2,0.6
	C4.8,2,3,4,3,6.5c0,3.4-0.9,3.2-1.6,3.9C0.5,11.4,1.2,13,2.5,13H3h3h0.8h0.5H10h3.1h0.4C14.8,13,15.5,11.4,14.6,10.4z"/>
<g>
	<path d="M6,14c0,1.1,0.9,2,2,2c1.1,0,2-0.9,2-2H6z"/>
</g>
</svg>
