<?xml version="1.0" encoding="utf-8"?>
<!-- Generator: Adobe Illustrator 23.0.0, SVG Export Plug-In . SVG Version: 6.00 Build 0)  -->
<svg version="1.1" id="Layer_1" xmlns="http://www.w3.org/2000/svg" xmlns:xlink="http://www.w3.org/1999/xlink" x="0px" y="0px"
	 viewBox="0 0 16 16" style="enable-background:new 0 0 16 16;" xml:space="preserve">
<path d="M9.2,6.5H7c-0.6,0-1-0.4-1-1s0.4-1,1-1h2.8H12V2H9V0H7v2H6.5C4.6,2,3,3.6,3,5.5S4.6,9,6.5,9H9c0.6,0,1,0.4,1,1s-0.4,1-1,1
	H5.6H4v3h3v2h2v-2h0.2c2.1,0,3.8-1.7,3.8-3.8C13,8.2,11.3,6.5,9.2,6.5z"/>
</svg>
