<?xml version="1.0" encoding="utf-8"?>
<!-- Generator: Adobe Illustrator 23.0.0, SVG Export Plug-In . SVG Version: 6.00 Build 0)  -->
<svg version="1.1" id="Layer_1" xmlns="http://www.w3.org/2000/svg" xmlns:xlink="http://www.w3.org/1999/xlink" x="0px" y="0px"
	 viewBox="0 0 16 16" style="enable-background:new 0 0 16 16;" xml:space="preserve">
<g>
	<path d="M14,1v2h-4V1H6v2H2V1H0v15h16V1H14z M5,14H3v-2h2V14z M5,11H3V9h2V11z M5,8H3V6h2V8z M9,14H7v-2h2V14z M9,11H7V9h2V11z
		 M9,8H7V6h2V8z M13,14h-2v-2h2V14z M13,11h-2V9h2V11z M13,8h-2V6h2V8z"/>
	<rect x="11" width="2" height="2"/>
	<rect x="3" width="2" height="2"/>
</g>
</svg>
