<?xml version="1.0" encoding="utf-8"?>
<!-- Generator: Adobe Illustrator 23.0.0, SVG Export Plug-In . SVG Version: 6.00 Build 0)  -->
<svg version="1.1" id="Layer_1" xmlns="http://www.w3.org/2000/svg" xmlns:xlink="http://www.w3.org/1999/xlink" x="0px" y="0px"
	 viewBox="0 0 16 16" style="enable-background:new 0 0 16 16;" xml:space="preserve">
<g>
	<path d="M7.5,7.5h1C8.8,7.5,9,7.7,9,8S8.8,8.5,8.5,8.5H6V10h2.5c1.1,0,2-0.9,2-2s-0.9-2-2-2h-1C7.2,6,7,5.8,7,5.5S7.2,5,7.5,5H10
		V3.5H7.5c-1.1,0-2,0.9-2,2S6.4,7.5,7.5,7.5z"/>
	<path d="M3,0v16h10V0H3z M8,15c-0.6,0-1-0.4-1-1s0.4-1,1-1s1,0.4,1,1S8.6,15,8,15z M12,12H4V2h8V12z"/>
</g>
</svg>
