<?xml version="1.0" encoding="utf-8"?>
<!-- Generator: Adobe Illustrator 23.0.0, SVG Export Plug-In . SVG Version: 6.00 Build 0)  -->
<svg version="1.1" id="Layer_1" xmlns="http://www.w3.org/2000/svg" xmlns:xlink="http://www.w3.org/1999/xlink" x="0px" y="0px"
	 viewBox="0 0 16 16" style="enable-background:new 0 0 16 16;" xml:space="preserve">
<path d="M0,0h5v16H0V0z M6,1v14h10V1H6z M9,14H7v-2h2V14z M9,11H7V9h2V11z M9,8H7V6h2V8z M12,14h-2v-2h2V14z M12,11h-2V9h2V11z
	 M12,8h-2V6h2V8z M15,14h-2v-2h2V14z M15,11h-2V9h2V11z M15,8h-2V6h2V8z M15,5H7V2h8V5z"/>
</svg>
