<?xml version="1.0" encoding="utf-8"?>
<!-- Generator: Adobe Illustrator 23.0.0, SVG Export Plug-In . SVG Version: 6.00 Build 0)  -->
<svg version="1.1" id="Layer_1" xmlns="http://www.w3.org/2000/svg" xmlns:xlink="http://www.w3.org/1999/xlink" x="0px" y="0px"
	 viewBox="0 0 16 16" style="enable-background:new 0 0 16 16;" xml:space="preserve">
<g>
	<path d="M15,1v10H1V1H15 M16,0H0v13h16V0z"/>
	<path d="M15,1v10H1V1H15 M16,0H0v13h16V0z"/>
</g>
<path d="M5.3,6.6C4.8,6.1,4.6,5.4,4.6,5.4l0.5-0.8L4.7,3.2c0,0-0.1-0.2-0.2-0.2C4.5,3,3.9,2.9,3.6,3.2C2.8,4,2.5,5,4.7,7.2l0.1,0.1
	c2.2,2.2,3.2,2,4,1.1c0.3-0.3,0.2-1,0.2-1L8.8,7.3L7.4,6.8L6.6,7.4C6.5,7.4,5.9,7.3,5.3,6.6L5.3,6.6z"/>
<polygon points="5,14 11,14 12,16 4,16 "/>
</svg>
