<?xml version="1.0" encoding="utf-8"?>
<!-- Generator: Adobe Illustrator 23.0.0, SVG Export Plug-In . SVG Version: 6.00 Build 0)  -->
<svg version="1.1" xmlns="http://www.w3.org/2000/svg" xmlns:xlink="http://www.w3.org/1999/xlink" x="0px" y="0px"
	 viewBox="0 0 16 16" style="enable-background:new 0 0 16 16;" xml:space="preserve">
<g id="grid" style="display:none;">
	<g style="display:inline;">
		<rect x="2" style="fill:#C8E9F0;" width="12" height="16"/>
		<rect y="2" style="fill:#C8E9F0;" width="16" height="12"/>
		<rect x="1" y="1" style="opacity:0.5;fill:#CFA7CE;" width="14" height="14"/>
		<circle style="opacity:0.5;fill:#D0A86F;" cx="8" cy="8" r="8"/>
	</g>
</g>
<g id="Layer_1">
	<polygon points="6.6,14.6 3.6,11.6 5,10.1 7,12.2 7,7 9,7 9,12.2 11,10.1 12.4,11.6 9.4,14.6 8,16 	"/>
	<path d="M10,5.1c0.1,0.4,0.5,0.8,1,0.8h0.8c0,0,0,0,0,0c0.7,0,1.4,0.3,1.8,0.9c0.3,0.5,0.5,1.1,0.4,1.6c-0.1,0.3-0.2,0.6-0.3,0.8
		l0.2,0.2l1.2,1.2c0.4-0.5,0.8-1.2,0.9-1.9c0.2-1.1-0.1-2.2-0.7-3.1c-0.8-1.1-2.1-1.8-3.4-1.8c0,0,0,0,0,0h-0.1
		c-0.5-1.2-1.4-2.3-2.6-3C7.8,0,6.1-0.2,4.6,0.2C3,0.6,1.7,1.6,0.9,3C0,4.4-0.2,6,0.2,7.6c0.2,0.9,0.7,1.8,1.3,2.5l1.4-1.4
		c-0.4-0.5-0.6-1-0.8-1.5C1.9,6,2,4.9,2.6,4C3.1,3.1,4,2.4,5.1,2.1C6.1,1.9,7.2,2,8.2,2.6C9.1,3.1,9.8,4,10,5.1z"/>
</g>
</svg>
