<?xml version="1.0" encoding="utf-8"?>
<!-- Generator: Adobe Illustrator 23.0.0, SVG Export Plug-In . SVG Version: 6.00 Build 0)  -->
<svg version="1.1" id="Layer_1" xmlns="http://www.w3.org/2000/svg" xmlns:xlink="http://www.w3.org/1999/xlink" x="0px" y="0px"
	 viewBox="0 0 16 16" style="enable-background:new 0 0 16 16;" xml:space="preserve">
<path d="M10.4,16l2.1-2.1l2.1,2.1l1.4-1.4l-2.1-2.1l2.1-2.1L14.6,9l-2.1,2.1L10.4,9L9,10.4l2.1,2.1L9,14.6L10.4,16z"/>
<rect x="2" y="6" width="2" height="4"/>
<rect x="7" y="1" transform="matrix(-1.836970e-16 1 -1 -1.836970e-16 10.9835 -4.9835)" width="2" height="4"/>
<polygon points="9,12 8,12 7,12 6,12 6,14 8,14 8,13 9,13 "/>
<polygon points="14,6 12,6 12,7 12,8 12,9 13,9 13,8 14,8 "/>
<path d="M14,2v3h-3V2H14 M16,0H9v7h7V0L16,0z"/>
<rect width="7" height="7"/>
<path d="M5,11v3H2v-3H5 M7,9H0v7h7V9L7,9z"/>
</svg>
