<?xml version="1.0" encoding="utf-8"?>
<!-- Generator: Adobe Illustrator 23.0.0, SVG Export Plug-In . SVG Version: 6.00 Build 0)  -->
<svg version="1.1" id="Layer_1" xmlns="http://www.w3.org/2000/svg" xmlns:xlink="http://www.w3.org/1999/xlink" x="0px" y="0px"
	 viewBox="0 0 16 16" style="enable-background:new 0 0 16 16;" xml:space="preserve">
<path d="M8,0C3.6,0,0,3.6,0,8s3.6,8,8,8s8-3.6,8-8S12.4,0,8,0z M5.9,14.7C5.9,14.7,5.9,14.7,5.9,14.7L5.9,14.7
	C5.9,14.6,5.9,14.6,5.9,14.7z M8.2,10.9L8.2,10.9l-0.1,0.4c0,0.1-0.1,0.4-0.1,0.4c0,0.1-0.1,0.2-0.1,0.3c0,0-0.3,0.1-0.3,0.2
	c-0.1,0-0.1,0.1-0.2,0.1l-0.1,0.1c0,0.1,0.1,0.3,0,0.4c-0.1,0-0.1,0-0.1,0.1c-0.1,0,0,0.1-0.1,0.1c-0.1,0-0.2,0.1-0.2,0.2
	c0,0.2,0,0.2-0.1,0.3c0,0-0.2,0-0.2,0.1v0.2l-0.2,0.1c-0.2,0-0.2,0-0.3,0.1v0.1c0,0.1-0.1,0-0.4,0.3C6,14,6,14.1,6,14.1
	c0,0.1,0,0.1-0.1,0.2l-0.1,0.1v0.3c-0.1,0-0.2-0.1-0.4-0.1c0-0.2,0-0.5,0.1-0.5l0.1-0.2v-0.4c0-0.1,0.1-0.2,0.1-0.3
	c0.2-0.1,0.1-0.8,0.2-0.8c0-0.4,0.1-0.5-0.2-0.6l-0.2-0.2c-0.2,0-0.3-0.4-0.3-0.4c-0.1,0-0.1-0.1-0.1-0.2l-0.3-0.4
	c-0.2-0.1,0-0.2,0-0.4c-0.1-0.1,0-0.4,0.1-0.4l0.1-0.1c0.1,0.1,0.2-0.1,0.1-0.1V9.3C5.2,9.2,5.1,9,5,9.2c-0.1,0-0.4,0-0.4-0.2
	c0-0.1-0.1-0.3-0.2-0.3c0-0.1-0.3-0.3-0.4-0.3c0-0.1-0.1-0.1-0.1-0.1C4,8.4,3.9,8.3,3.8,8.3c-0.2,0-0.4-0.1-0.4-0.1
	c0-0.1-0.2-0.1-0.3-0.2C3,8,2.9,7.8,2.9,7.7c0-0.2-0.1-0.4-0.2-0.4c0-0.1-0.2-0.2-0.2-0.2L2.5,6.9c0-0.1-0.2-0.3-0.2-0.2
	S2.5,6.9,2.5,7l0.2,0.3c0.3,0.4-0.2,0.1-0.2-0.1C2.4,7.1,2.3,6.9,2.3,6.8c0-0.1-0.1-0.3-0.1-0.3c0-0.1-0.1-0.2-0.3-0.2L1.7,6.2
	C1.7,6.1,1.7,6,1.6,6V5.5c0-0.1,0-0.2,0-0.2C1.9,4.4,2.5,3.6,3.1,3c0,0,0,0,0.1,0c0.1,0.1,0.2,0.1,0.3,0.1h0.2c0,0,0.2-0.1,0.1-0.1
	c0-0.1,0-0.1-0.1-0.1c0-0.1,0.2,0,0.3,0C4,2.8,3.9,2.8,4,2.8c0.1-0.1,0.2,0,0.2-0.1c0,0,0.1,0,0.1,0.1c0.1,0,0.3,0.4,0.3,0.1
	c0.1,0,0.1,0.2,0.1,0.3C4.8,3,4.8,2.9,4.8,2.8c0.1,0,0-0.1,0-0.1s0.1,0.1,0.1,0v0.1H5v0.3c0,0.1-0.2,0.1-0.2,0.1
	C4.8,3.3,5,3.3,5.1,3.4H4.9c-0.1,0-0.3,0.1-0.4,0c0.1,0,0.2-0.2,0.2-0.3C4.7,3,4.6,3.1,4.6,3.2c0,0.2-0.1,0-0.2,0.1L4.2,3.4
	C4,3.4,4.1,3.6,4.1,3.7C4.1,3.8,4.3,3.9,4.3,4c0.2,0.1,0.2,0.1,0.4,0.1c0,0.1,0.1,0.1,0.1,0.1c0,0.1,0.1,0.1,0.2,0.1
	c0-0.1,0.2,0.1,0.2,0.2c0,0,0.1,0.1,0.1,0.2c0,0,0.2,0,0.2-0.1c-0.1,0-0.1,0-0.1-0.1c-0.1-0.1-0.1-0.2,0-0.2c0,0.1,0.3,0,0.1-0.1
	c0-0.1,0.1-0.2,0-0.3c0-0.1-0.1,0-0.1-0.1c0.1,0,0-0.2,0-0.3h0.1c0.1,0,0.2,0.2,0.3,0c0.2,0.1,0,0.2,0.2,0.1L6,3.8V4
	c0.1,0,0.2,0.1,0.2,0c0,0,0.1-0.1,0.1-0.2c0,0,0.1,0.3,0.2,0.3c0,0.1,0.2,0.2,0.2,0.3c0.1,0,0.1,0,0.1,0.1c0,0,0.1-0.1,0.1,0
	c0.1,0,0.2,0,0.2,0.1c-0.1,0-0.1,0.1-0.1,0.1c0,0.1-0.3,0-0.3,0C6.5,4.9,6.2,4.7,6,4.8c-0.1,0-0.4,0.3-0.4,0.4C5.8,5.2,5.9,5,6,5
	c0.1,0,0.1,0,0.1,0s0,0.1,0.1,0.1c0,0.1,0.1,0.1,0.1,0.1v0.1L6.2,5.3V5.2C6.1,5.2,6,5.3,5.9,5.3L5.8,5.4C5.7,5.5,5.7,5.7,5.7,5.7
	L5.5,5.8c0,0.1-0.1,0.1-0.1,0.2L5.3,6.1C5.2,6.2,5.1,6.4,5,6.4c0,0.2-0.2,0.2-0.2,0.4C4.9,6.8,4.9,7,4.9,7.1c0,0.1,0,0.2-0.1,0.2
	L4.8,7.2c0-0.1-0.1-0.2-0.1-0.3c0-0.1-0.1,0-0.2,0c0-0.1-0.2-0.1-0.3-0.1c0.1,0,0.1,0,0.1,0.1H4.1C4.1,6.9,4.1,6.8,4,6.8
	C3.7,6.8,3.6,7,3.6,7.2v0.4c0,0.1,0.1,0.2,0.1,0.3C3.8,7.8,3.9,8,4,8c0,0,0,0,0.1,0h0.1c-0.1,0,0-0.2,0.1-0.3c0,0.1,0.1,0,0.1,0
	c0-0.1,0.1-0.1,0.1-0.1c0-0.1,0.1,0.1,0,0.1S4.3,7.8,4.3,7.8S4.2,7.9,4.2,8c-0.1,0.1,0,0.1,0,0.2h0.3V8.1c0.1,0,0,0.3,0.1,0.3
	c0,0.1,0.1,0.2,0.1,0.3c0.1,0,0.1,0.1,0.1,0.2c0.1,0,0.3,0,0.3-0.1c0.1,0,0.1,0.1,0.1,0.2c0.3,0,0.1-0.3,0.2-0.3h0.1l0.1-0.1h0.2
	c0.1,0,0.1-0.1,0.2-0.1c0,0,0,0.2,0.2,0.2h0.3h0.1c0.1,0,0.1,0.1,0.1,0.1s0.1,0,0.1,0.1c0,0.1,0.1,0.1,0.1,0.1c0.1,0,0,0.1,0.1,0.1
	c0.1,0.1,0.1,0.1,0.2,0.1c0-0.1,0.1,0,0.1,0l0.1,0.1c0.1,0.1,0.1,0,0.2,0.1c0.1,0.1,0.1,0.2,0.1,0.3v0.2c-0.1,0,0.1,0.1,0.1,0
	c0.1,0,0.1,0.1,0.2,0.1c0,0.1,0.1,0.1,0.1,0c0.1,0,0.1,0.2,0.1,0.3C7.9,10.1,7.9,10,8,10c0.1-0.1,0,0,0.1,0c0.4,0,0.2,0.4,0.2,0.6
	C8.3,10.8,8.5,10.9,8.2,10.9z M14.5,9.4C14.5,9.4,14.5,9.5,14.5,9.4c-0.1,0.1-0.1,0.2-0.2,0.2c0,0.1-0.1,0.2-0.2,0.3
	c-0.1,0.1-0.3,0.2-0.3,0.3c0.1-0.1-0.3,0.3-0.2,0.3c0,0.1-0.1,0.5,0,0.5c0,0,0.1,0.4,0,0.4v0.1l0,0.5c-0.4,0.7-1,1.2-1.6,1.7
	c-0.1-0.1-0.2-0.2-0.3-0.3c0-0.1-0.1-0.2-0.1-0.3l-0.1-0.2c0-0.1-0.2-0.5-0.2-0.5l-0.1-0.2c0-0.2-0.4-0.3-0.4-0.4
	c-0.1,0-0.1-0.4-0.1-0.4c0-0.2,0.1-0.3,0.1-0.4c0-0.3-0.3-0.1-0.3-0.3l-0.1-0.2c-0.1,0-0.1-0.2-0.1-0.3c0.1-0.1,0.1-0.4,0.1-0.4
	h-0.3c0-0.2-0.5-0.1-0.7-0.1c0,0.1-0.2-0.2-0.2-0.3c-0.1,0-0.3-0.2-0.3-0.3C9.2,9,9,8.6,9,8.5c-0.1,0-0.1-0.2,0-0.2
	c0-0.1,0.2-0.2,0.2-0.3C9.2,8,9.3,8,9.3,7.9c0-0.2,0-0.3,0.1-0.4c0-0.1,0.1-0.1,0.1-0.2c0-0.1,0,0,0.1-0.1c0.1,0,0.1-0.1,0.2-0.2
	V6.9l0.1-0.3c0.1-0.2,0-0.1,0.1-0.1s0.1-0.1,0.2-0.1c0-0.1,0-0.1,0.1-0.1c0,0.1,0.2,0,0.2,0c0-0.1,0.2-0.2,0.3-0.2
	c0-0.1,0.4,0,0.5,0s0.3,0.4,0.3,0.4h0.2c0,0.1,0.1,0.1,0.2,0.1c0.1,0,0.4-0.1,0.4-0.2c0,0,0.1,0,0.1,0.1c0.1,0,0.5,0,0.5,0.1
	c0.1,0,0.1,0.1,0.2,0.1c0,0.1,0.1,0.3,0.2,0.3c0,0.1,0,0.2,0.1,0.3c0.1,0.1,0.2,0.3,0.3,0.4c-0.1,0.1,0.1,0.2,0.1,0.3l0.1,0.2
	c0,0.1,0.3,0.4,0.4,0.5c0,0,0.1,0,0.3,0.4c0.1,0,0.3-0.1,0.4-0.1C14.6,9.2,14.5,9.2,14.5,9.4z M14.7,8c-0.1,0-0.4,0-0.4,0.2
	c-0.1,0-0.3,0.1-0.3,0.1c-0.2,0-0.2-0.3-0.3-0.3c0,0-0.1,0-0.1-0.1c0.1,0-0.2-0.5-0.2-0.6c0-0.1-0.1-0.2-0.1-0.3
	c-0.1-0.1-0.2-0.2-0.2-0.3c-0.1,0-0.3-0.2-0.3-0.3c0.1,0,0.2,0,0.2-0.1c-0.1,0-0.1-0.1,0-0.1c0-0.1,0.1-0.1,0.1-0.2
	c0.1-0.1,0-0.1,0-0.2l-0.1,0C13.3,6,13,6,13,6l-0.2-0.1c0.1-0.1,0.5,0,0.5-0.1c0,0,0.1,0.2,0.1,0c0.1,0,0.1,0.2,0.3,0.1
	c0,0.1,0.3-0.1,0.1-0.1c0-0.2-0.2-0.2-0.3-0.3c-0.1,0-0.1-0.1-0.2-0.1c0-0.1-0.1,0-0.1,0c-0.2,0-0.1-0.1-0.2-0.1
	c0-0.2-0.1-0.2-0.1,0c-0.1,0.2-0.2,0.3-0.2,0.4h-0.1c-0.1-0.1-0.1-0.2-0.1-0.3s-0.1-0.1-0.2-0.1c-0.2,0-0.1,0.2-0.1,0.3
	c0.1,0-0.1,0.1-0.1,0.2c-0.2,0-0.1-0.2-0.2-0.3c-0.1-0.1,0-0.1-0.1-0.1c0,0,0.1-0.2,0-0.2l-0.2-0.1c-0.1,0-0.3-0.3-0.4-0.2
	c0,0.1,0.1,0.1,0.1,0.2c0.1,0,0.1,0.2,0.3,0.2l0,0.1c0.1,0,0.1,0.1,0.1,0.1c0,0.1-0.1,0-0.1,0c0,0.1,0,0-0.1,0.1
	c0-0.1,0-0.3-0.1-0.3c-0.1-0.1-0.2-0.1-0.3-0.2c-0.1,0-0.1-0.2-0.2-0.2c0,0.1-0.1,0.1-0.1,0.1c-0.1,0.1-0.4,0-0.4,0
	s-0.2,0.4-0.2,0.4c0,0.1-0.1,0.1-0.1,0.2C10.5,6,10.1,6,10.1,6C9.9,6,9.8,5.9,9.8,5.7c0,0,0.1-0.4,0.1-0.4L10,5.3
	c0.1-0.1,0.3,0,0.3-0.1c0.1,0,0.1,0,0.1,0.1c0.1,0,0.2,0,0.2-0.1c-0.1,0-0.1-0.1-0.1-0.1c0.2-0.2-0.1-0.3-0.1-0.4
	c-0.1,0-0.1,0-0.1,0c0-0.1,0-0.1,0-0.1s0,0-0.1,0c-0.1,0,0-0.1,0-0.2c0,0,0.3,0.1,0.1,0c0-0.2,0-0.2-0.2-0.2c0-0.1-0.1-0.1-0.1-0.2
	c0-0.2,0.2,0,0.2-0.2c0.1,0,0,0.1,0,0.1v0.1c0.1,0,0.1-0.1,0.2-0.1c0,0.1-0.1,0.1,0,0.2c0.1,0.1,0.1,0.1,0.1,0.2
	c0.1,0,0.1,0.1,0.1,0.2c0.1,0,0.2-0.1,0.1-0.1V4.4c0.2,0.1,0.1,0,0.2-0.1c0,0.1,0.1-0.1,0.2-0.1c0.1-0.1,0.3,0,0.3-0.1
	c-0.1,0-0.1-0.1-0.1-0.2c0.1,0,0.2-0.1,0.2,0l0,0.2c0.1,0.1,0.1,0,0.1-0.1c0,0-0.1-0.2-0.1-0.3c0,0.1-0.1,0.1-0.1,0.1
	c-0.2,0-0.3-0.1-0.4-0.1l-0.1-0.2c-0.1-0.1,0.1-0.1,0.1-0.1c0-0.1,0.5-0.1,0.5-0.3c-0.2,0,0.2-0.3,0.2-0.3c0.1-0.1,0.1-0.2,0.3-0.2
	c0.1,0,0.7-0.2,0.7-0.1l0,0C14,4,14.9,5.8,15,7.8C14.9,7.9,14.7,7.9,14.7,8z"/>
</svg>
