<?xml version="1.0" encoding="utf-8"?>
<!-- Generator: Adobe Illustrator 23.0.0, SVG Export Plug-In . SVG Version: 6.00 Build 0)  -->
<svg version="1.1" id="Layer_1" xmlns="http://www.w3.org/2000/svg" xmlns:xlink="http://www.w3.org/1999/xlink" x="0px" y="0px"
	 viewBox="0 0 16 16" style="enable-background:new 0 0 16 16;" xml:space="preserve">
<path d="M16,8c0-4.4-3.6-8-8-8S0,3.6,0,8c0,1.4,0.3,2.6,0.9,3.7c-0.2,0.3-0.3,0.7-0.3,1.1c0,1.2,1,2.2,2.2,2.2H3v1h2V9H3v1.6H2.8
	c-0.2,0-0.5,0-0.7,0.1C1.7,9.9,1.5,9,1.5,8c0-3.6,2.9-6.5,6.5-6.5s6.5,2.9,6.5,6.5c0,1-0.2,1.9-0.6,2.7c-0.2-0.1-0.4-0.1-0.6-0.1H13
	V9h-2v7h2v-1h0.2c1.2,0,2.2-1,2.2-2.2c0-0.4-0.1-0.8-0.3-1.2C15.7,10.5,16,9.3,16,8L16,8z"/>
</svg>
