<?xml version="1.0" encoding="utf-8"?>
<!-- Generator: Adobe Illustrator 23.0.0, SVG Export Plug-In . SVG Version: 6.00 Build 0)  -->
<svg version="1.1" id="Layer_1" xmlns="http://www.w3.org/2000/svg" xmlns:xlink="http://www.w3.org/1999/xlink" x="0px" y="0px"
	 viewBox="0 0 16 16" style="enable-background:new 0 0 16 16;" xml:space="preserve">
<g>
	<path d="M14.3,3.1L16,1.4L14.6,0l-1.7,1.7c0,0,0,0,0,0l-1.1,1.1c0,0,0,0,0,0L5,9.6v0l-4.2,4.2c0,0,0,0,0,0L0,14.6L1.4,16l1-1
		c0.1,0,0.2,0,0.3,0H3v1h2v-3.6l8.3-8.3C14,5.3,14.5,6.6,14.5,8c0,1-0.2,1.9-0.6,2.7c-0.2-0.1-0.4-0.1-0.6-0.1H13V9h-2v7h2v-1h0.2
		c1.2,0,2.2-1,2.2-2.2c0-0.4-0.1-0.8-0.3-1.2C15.7,10.5,16,9.3,16,8C16,6.2,15.4,4.5,14.3,3.1z"/>
	<path d="M1.8,9.9C1.6,9.3,1.5,8.7,1.5,8c0-3.6,2.9-6.5,6.5-6.5c0.7,0,1.3,0.1,1.9,0.3l1.2-1.2C10.1,0.2,9.1,0,8,0C3.6,0,0,3.6,0,8
		c0,1.1,0.2,2.1,0.6,3.1L1.8,9.9z"/>
</g>
</svg>
