<?xml version="1.0" encoding="utf-8"?>
<!-- Generator: Adobe Illustrator 23.0.0, SVG Export Plug-In . SVG Version: 6.00 Build 0)  -->
<svg version="1.1" id="Layer_1" xmlns="http://www.w3.org/2000/svg" xmlns:xlink="http://www.w3.org/1999/xlink" x="0px" y="0px"
	 viewBox="0 0 16 16" style="enable-background:new 0 0 16 16;" xml:space="preserve">
<path d="M8,0C4.7,0,2,2.7,2,6s5,10,6,10s6-6.7,6-10S11.3,0,8,0z M8,10c-2.2,0-4-1.8-4-4s1.8-4,4-4s4,1.8,4,4S10.2,10,8,10z"/>
<rect x="5.8" y="4" width="1.1" height="4"/>
<path d="M9.4,4H9H7.6v4h1l0-1.2h0.8c0.8,0,1.4-0.6,1.4-1.4S10.1,4,9.4,4z M9.2,5.9H8.6V4.8h0.6c0.3,0,0.5,0.2,0.5,0.5
	S9.5,5.9,9.2,5.9z"/>
</svg>
