<?xml version="1.0" encoding="utf-8"?>
<!-- Generator: Adobe Illustrator 23.0.0, SVG Export Plug-In . SVG Version: 6.00 Build 0)  -->
<svg version="1.1" id="Layer_1" xmlns="http://www.w3.org/2000/svg" xmlns:xlink="http://www.w3.org/1999/xlink" x="0px" y="0px"
	 viewBox="0 0 16 16" style="enable-background:new 0 0 16 16;" xml:space="preserve">
<path d="M0,0.5h10V2H0V0.5z M16,7V5.5H9V3H1v13h3v-3h2v3h9V8H9V7H16z M4,11H3V9h1V11z M4,7H3V5h1V7z M7,11H6V9h1V11z M7,7H6V5h1V7z
	 M12,10h1v2h-1V10z M9,10h1v2H9V10z"/>
</svg>
