<?xml version="1.0" encoding="utf-8"?>
<!-- Generator: Adobe Illustrator 23.0.0, SVG Export Plug-In . SVG Version: 6.00 Build 0)  -->
<svg version="1.1" xmlns="http://www.w3.org/2000/svg" xmlns:xlink="http://www.w3.org/1999/xlink" x="0px" y="0px"
	 viewBox="0 0 16 16" style="enable-background:new 0 0 16 16;" xml:space="preserve">
<g id="Layer_2">
</g>
<g id="Layer_1">
	<g>
		<path d="M10,2c0-1.1-0.9-2-2-2S6,0.9,6,2v5l4-4V2z"/>
		<path d="M11.5,8c0,1.9-1.6,3.5-3.5,3.5c-0.7,0-1.4-0.2-1.9-0.6l1.1-1.1C7.4,9.9,7.7,10,8,10c1.1,0,2-0.9,2-2V7l6-6l-1-1l-5,5v0
			L6.2,8.8c0,0,0,0,0,0L5.1,9.9c0,0,0,0,0,0L4,11c0,0,0,0,0,0l-4,4l1,1l4-4c0.6,0.4,1.3,0.8,2,0.9v1.6H5V16h6v-1.5H9v-1.6
			c2.3-0.5,4-2.5,4-4.9V7h-1.5V8z"/>
		<path d="M4.5,8.5c0-0.2,0-0.3,0-0.5V7H3v1c0,0.6,0.1,1.2,0.3,1.7L4.5,8.5z"/>
	</g>
</g>
</svg>
