<?xml version="1.0" encoding="utf-8"?>
<!-- Generator: Adobe Illustrator 23.0.0, SVG Export Plug-In . SVG Version: 6.00 Build 0)  -->
<svg version="1.1" id="Layer_1" xmlns="http://www.w3.org/2000/svg" xmlns:xlink="http://www.w3.org/1999/xlink" x="0px" y="0px"
	 viewBox="0 0 16 16" style="enable-background:new 0 0 16 16;" xml:space="preserve">
<g>
	<path d="M11.5,7v1c0,1.9-1.6,3.5-3.5,3.5S4.5,9.9,4.5,8V7H3v1c0,2.4,1.7,4.4,4,4.9v1.6H5V16h6v-1.5H9v-1.6c2.3-0.5,4-2.5,4-4.9V7
		H11.5z"/>
	<path d="M8,10c1.1,0,2-0.9,2-2V2c0-1.1-0.9-2-2-2S6,0.9,6,2v6C6,9.1,6.9,10,8,10z"/>
</g>
</svg>
