<?xml version="1.0" encoding="utf-8"?>
<!-- Generator: Adobe Illustrator 23.0.0, SVG Export Plug-In . SVG Version: 6.00 Build 0)  -->
<svg version="1.1" id="Layer_1" xmlns="http://www.w3.org/2000/svg" xmlns:xlink="http://www.w3.org/1999/xlink" x="0px" y="0px"
	 viewBox="0 0 16 16" style="enable-background:new 0 0 16 16;" xml:space="preserve">
<g>
	<path d="M8.8,5.8H7.5v2h1.2c0.6,0,1-0.4,1-1C9.8,6.2,9.3,5.8,8.8,5.8z"/>
	<path d="M8,0C3.6,0,0,3.6,0,8c0,4.4,3.6,8,8,8s8-3.6,8-8C16,3.6,12.4,0,8,0z M9,9.5H8.5h-1V12h-2V9.5V4h2h1H9
		c1.5,0,2.8,1.2,2.8,2.8C11.8,8.3,10.5,9.5,9,9.5z"/>
</g>
</svg>
