<?xml version="1.0" encoding="utf-8"?>
<!-- Generator: Adobe Illustrator 23.0.0, SVG Export Plug-In . SVG Version: 6.00 Build 0)  -->
<svg version="1.1" id="Layer_1" xmlns="http://www.w3.org/2000/svg" xmlns:xlink="http://www.w3.org/1999/xlink" x="0px" y="0px"
	 viewBox="0 0 16 16" style="enable-background:new 0 0 16 16;" xml:space="preserve">
<path d="M7,8.7C6.3,8,6.1,7.2,6.2,7.1l0.8-1L6.4,4.3c0,0-0.1-0.2-0.2-0.2S5.3,3.9,4.9,4.3C3.7,5.5,3.3,6.7,6.2,9.6l0.2,0.2
	c2.9,2.9,4.2,2.5,5.3,1.4c0.4-0.4,0.3-1.3,0.2-1.4s-0.2-0.2-0.2-0.2L9.9,9L8.8,9.7C8.7,9.8,7.9,9.6,7.2,8.9L7,8.7z"/>
<polygon points="6,0 0,0 0,6 2,6 2,2 6,2 "/>
<polygon points="16,6 16,0 10,0 10,2 14,2 14,6 "/>
<polygon points="10,16 16,16 16,10 14,10 14,14 10,14 "/>
<polygon points="0,10 0,16 6,16 6,14 2,14 2,10 "/>
</svg>
