<?xml version="1.0" encoding="utf-8"?>
<!-- Generator: Adobe Illustrator 23.0.0, SVG Export Plug-In . SVG Version: 6.00 Build 0)  -->
<svg version="1.1" id="Layer_1" xmlns="http://www.w3.org/2000/svg" xmlns:xlink="http://www.w3.org/1999/xlink" x="0px" y="0px"
	 viewBox="0 0 16 16" style="enable-background:new 0 0 16 16;" xml:space="preserve">
<polygon points="16,1.5 14.5,0 12,2.5 9.5,0 8,1.5 10.5,4 8,6.5 9.5,8 12,5.5 14.5,8 16,6.5 13.5,4 "/>
<path d="M12.9,12.4c-0.1-0.1-0.3-0.2-0.3-0.2l-2.9-1l-1.8,1.1c-0.1,0.1-1.5-0.2-2.6-1.4l-0.3-0.3C3.7,9.4,3.4,8.2,3.5,8l1.3-1.7
	l-1-2.9c0,0-0.1-0.3-0.2-0.3C3.5,3,2.1,2.8,1.4,3.5c-1.9,1.9-2.4,3.9,2.2,8.6l0.3,0.3c4.7,4.6,6.7,4.1,8.6,2.2
	C13.2,13.9,13,12.5,12.9,12.4z"/>
</svg>
