<?xml version="1.0" encoding="utf-8"?>
<!-- Generator: Adobe Illustrator 23.0.0, SVG Export Plug-In . SVG Version: 6.00 Build 0)  -->
<svg version="1.1" id="Layer_1" xmlns="http://www.w3.org/2000/svg" xmlns:xlink="http://www.w3.org/1999/xlink" x="0px" y="0px"
	 viewBox="0 0 16 16" style="enable-background:new 0 0 16 16;" xml:space="preserve">
<path d="M8.3,2c1.8,0,2.9,0.7,2.9,0.9L11.5,5l2.8,1.4c0,0,0.3,0.1,0.4,0.1c0.2,0,1.3-0.8,1.3-1.9C16,1.9,14.9,0,8.2,0H7.8
	C1.1,0,0,1.9,0,4.6c0,1,1.2,1.9,1.3,1.9s0.4-0.1,0.4-0.1L4.5,5L5,2.9C5,2.7,6.2,2,7.9,2H8.3z"/>
<polygon points="12.9,10.9 8,6 3.1,10.9 4.5,12.4 7,9.9 7,16 9,16 9,9.8 11.5,12.4 "/>
</svg>
