<?xml version="1.0" encoding="utf-8"?>
<!-- Generator: Adobe Illustrator 23.0.0, SVG Export Plug-In . SVG Version: 6.00 Build 0)  -->
<svg version="1.1" id="Layer_1" xmlns="http://www.w3.org/2000/svg" xmlns:xlink="http://www.w3.org/1999/xlink" x="0px" y="0px"
	 viewBox="0 0 16 16" style="enable-background:new 0 0 16 16;" xml:space="preserve">
<path d="M8,16c4.4,0,8-3.6,8-8s-3.6-8-8-8S0,3.6,0,8S3.6,16,8,16z M8,2c3.3,0,6,2.7,6,6s-2.7,6-6,6s-6-2.7-6-6S4.7,2,8,2z"/>
<polygon points="12,7 9,7 9,4 7,4 7,7 4,7 4,9 7,9 7,12 9,12 9,9 12,9 "/>
</svg>
