<?xml version="1.0" encoding="utf-8"?>
<!-- Generator: Adobe Illustrator 23.0.1, SVG Export Plug-In . SVG Version: 6.00 Build 0)  -->
<svg version="1.1" id="Layer_1" xmlns="http://www.w3.org/2000/svg" xmlns:xlink="http://www.w3.org/1999/xlink" x="0px" y="0px"
	 viewBox="0 0 16 16" style="enable-background:new 0 0 16 16;" xml:space="preserve">
<style type="text/css">
	.st0{display:none;}
	.st1{display:inline;}
	.st2{fill:#C8E9F0;}
	.st3{opacity:0.5;fill:#CFA7CE;enable-background:new    ;}
	.st4{opacity:0.5;fill:#D0A86F;enable-background:new    ;}
</style>
<g id="grid_2_" class="st0">
	<g id="grid_1_" class="st1">
		<g id="grid">
			<g>
				<rect x="2" class="st2" width="12" height="16"/>
				<rect y="2" class="st2" width="16" height="12"/>
				<rect x="1" y="1" class="st3" width="14" height="14"/>
				<circle class="st4" cx="8" cy="8" r="8"/>
			</g>
		</g>
	</g>
</g>
<path d="M11,2.7V5c1.2,0.9,2,2.3,2,4c0,2.8-2.2,5-5,5s-5-2.2-5-5c0-1.6,0.8-3.1,2-4V2.7C2.6,3.8,1,6.2,1,9c0,3.8,3.2,7,7,7
	s7-3.2,7-7C15,6.2,13.4,3.8,11,2.7z"/>
<rect x="7" y="1" width="2" height="6"/>
</svg>
