<?xml version="1.0" encoding="utf-8"?>
<!-- Generator: Adobe Illustrator 23.0.0, SVG Export Plug-In . SVG Version: 6.00 Build 0)  -->
<svg version="1.1" id="Layer_1" xmlns="http://www.w3.org/2000/svg" xmlns:xlink="http://www.w3.org/1999/xlink" x="0px" y="0px"
	 viewBox="0 0 16 16" style="enable-background:new 0 0 16 16;" xml:space="preserve">
<rect x="0" width="2" height="6"/>
<rect x="2" y="3" transform="matrix(-1.836970e-16 1 -1 -1.836970e-16 9 3)" width="2" height="6"/>
<path d="M8,0C4.6,0,1.7,2.1,0.6,5.1l1.6,1.6C2.8,4,5.1,2,8,2c3.3,0,6,2.7,6,6s-2.7,6-6,6c-2,0-3.8-1-4.9-2.5l-1.4,1.4
	C3.1,14.8,5.4,16,8,16c4.4,0,8-3.6,8-8S12.4,0,8,0z"/>
</svg>
