<?xml version="1.0" encoding="utf-8"?>
<!-- Generator: Adobe Illustrator 23.0.0, SVG Export Plug-In . SVG Version: 6.00 Build 0)  -->
<svg version="1.1" id="Layer_1" xmlns="http://www.w3.org/2000/svg" xmlns:xlink="http://www.w3.org/1999/xlink" x="0px" y="0px"
	 viewBox="0 0 16 16" style="enable-background:new 0 0 16 16;" xml:space="preserve">
<path d="M15.9,10.1c-0.4-0.7-1.5-0.2-2,0.1c0,0,0.1-0.5-0.3-0.7c-0.4-0.2-1.2,0-1.5,0.4c0,0-0.4-0.5-0.8-0.5s-2,1-2.4,1.4
	c1,0,2.7-0.3,2.7,1.3c0,0.9-0.5,1.3-2.3,1.3c0,0-1.8,0.1-2,0s-1.2-0.3-2-1.2c0,0,1.2,0.3,2.1,0.3h2.4c0,0,0.9,0.1,0.9-0.4
	c0-0.4-0.9-0.4-0.9-0.4s-2.4,0-3.5-1.4C5.8,9.7,5.3,9,4.6,9c-2-0.1-2.8,1.7-4.6,1.7l0.9,4.5c0,0,1.7-0.9,2.7-0.9
	C4.3,14.3,6.9,16,8,16c2,0,7.4-4.6,7.4-4.6S16.3,10.8,15.9,10.1z"/>
<path d="M12,4.5v-1l-1.1-0.2c-0.1-0.3-0.2-0.6-0.3-0.9l0.6-0.9l-0.7-0.7L9.6,1.4C9.4,1.3,9,1.1,8.7,1.1L8.5,0h-1L7.3,1.1
	C7,1.1,6.7,1.3,6.4,1.5L5.6,0.8L4.8,1.5l0.6,0.9C5.3,2.7,5.2,3,5.1,3.3L4,3.5v1l1.1,0.2C5.2,5,5.3,5.3,5.4,5.6L4.8,6.5l0.7,0.7
	l0.9-0.7C6.7,6.7,7,6.8,7.3,6.9L7.5,8h1l0.2-1.1C9,6.8,9.4,6.7,9.6,6.6l0.9,0.7l0.7-0.7l-0.7-0.9c0.2-0.2,0.3-0.6,0.4-0.9L12,4.5z
	 M8,5.5C7.2,5.5,6.5,4.8,6.5,4S7.2,2.5,8,2.5S9.5,3.2,9.5,4S8.9,5.5,8,5.5z"/>
</svg>
