<?xml version="1.0" encoding="utf-8"?>
<!-- Generator: Adobe Illustrator 23.0.0, SVG Export Plug-In . SVG Version: 6.00 Build 0)  -->
<svg version="1.1" id="Layer_1" xmlns="http://www.w3.org/2000/svg" xmlns:xlink="http://www.w3.org/1999/xlink" x="0px" y="0px"
	 viewBox="0 0 16 16" style="enable-background:new 0 0 16 16;" xml:space="preserve">
<path d="M16,9V7l-2.2-0.4c-0.2-0.6-0.4-1.3-0.7-1.8L14.4,3L13,1.6l-1.8,1.3C10.7,2.6,10,2.3,9.4,2.2L9,0H7L6.6,2.2
	C6,2.3,5.4,2.6,4.8,2.9L3.1,1.6L1.6,3l1.3,1.8C2.6,5.4,2.3,6,2.2,6.6L0,7v2l2.2,0.4c0.2,0.6,0.4,1.3,0.7,1.8L1.6,13L3,14.4l1.8-1.3
	c0.5,0.3,1.2,0.6,1.8,0.7L7,16h2l0.4-2.2c0.6-0.2,1.3-0.4,1.8-0.7l1.8,1.3l1.4-1.4l-1.3-1.8c0.3-0.5,0.6-1.2,0.7-1.8L16,9z M8,11
	c-1.7,0-3-1.3-3-3s1.3-3,3-3s3,1.3,3,3S9.7,11,8,11z"/>
</svg>
