<?xml version="1.0" encoding="utf-8"?>
<!-- Generator: Adobe Illustrator 23.0.0, SVG Export Plug-In . SVG Version: 6.00 Build 0)  -->
<svg version="1.1" id="Layer_1" xmlns="http://www.w3.org/2000/svg" xmlns:xlink="http://www.w3.org/1999/xlink" x="0px" y="0px"
	 viewBox="0 0 16 16" style="enable-background:new 0 0 16 16;" xml:space="preserve">
<path d="M16,10.7V9.3L14.3,9c-0.2-0.5-0.3-1-0.6-1.4l1-1.4l-1-1l-1.4,1C12,6,11.5,5.8,11,5.7L10.7,4H9.3L9,5.7
	C8.5,5.8,8.1,5.9,7.6,6.2l-1.3-1l-1.1,1l1,1.4C6,8.1,5.8,8.5,5.7,9L4,9.3v1.5L5.7,11c0.2,0.5,0.3,1,0.6,1.4l-1,1.4l1,1l1.4-1
	C8,14,8.5,14.2,9,14.3L9.3,16h1.5l0.3-1.7c0.5-0.2,1-0.3,1.4-0.6l1.4,1l1-1l-1-1.4c0.2-0.4,0.5-0.9,0.6-1.4L16,10.7z M10,12
	c-1.1,0-2-0.9-2-2s0.9-2,2-2s2,0.9,2,2S11.1,12,10,12z"/>
<path d="M9,1.8L8.2,1L7,1.8C6.7,1.7,6.2,1.5,5.8,1.4L5.6,0H4.4L4.2,1.4C3.8,1.5,3.4,1.6,3,1.8L1.9,1L1,1.8L1.8,3
	c0,0.1-0.1,0.1-0.1,0.2c-0.2,0.3-0.3,0.6-0.4,1L0,4.4v1.2l1.4,0.2c0.1,0.3,0.2,0.6,0.3,0.8c0,0.1,0,0.1,0.1,0.1c0,0,0,0,0,0
	c0,0.1,0.1,0.1,0.1,0.2L1,8.2L1.8,9L3,8.1h0l1.2-0.9l-0.2-1C3.6,6,3.3,5.5,3.3,5c0-0.9,0.7-1.7,1.7-1.7c0.5,0,1,0.2,1.3,0.6l1.2,0
	L8.1,3l0,0L9,1.8z"/>
</svg>
