<?xml version="1.0" encoding="utf-8"?>
<!-- Generator: Adobe Illustrator 23.0.0, SVG Export Plug-In . SVG Version: 6.00 Build 0)  -->
<svg version="1.1" id="Layer_1" xmlns="http://www.w3.org/2000/svg" xmlns:xlink="http://www.w3.org/1999/xlink" x="0px" y="0px"
	 viewBox="0 0 16 16" style="enable-background:new 0 0 16 16;" xml:space="preserve">
<path d="M1.7,2.8C3,1.7,5.2,2,5.8,2.1c0,0,2,0.3,2.8,1.9c0,0,0.3,0.6,0.4,0.9C9,5.1,9.1,5.3,9.1,5.6C9.1,5.9,9,6.3,9,6.4
	S8.9,6.7,9.1,6.9c0.2,0.3,0.6,0.9,0.7,1C9.9,8,10.1,8.4,10,8.6C9.9,8.8,9.2,8.9,9.3,9c0,0.2,0.1,0.4,0.1,0.6C9.3,9.8,8.5,9.8,8.5,10
	c0,0.2,0.9,0.3,0.7,0.5c-0.1,0.1-0.2,0.3-0.1,0.6c0.1,0.5-0.2,0.9-0.6,1c-0.5,0.1-1.6,0.1-1.8,0.6C6.5,13.1,6.5,14,6.5,14H1.2
	c0,0,0.7-1.4,0.3-3.5s-1.8-1.7-1.4-5C0.1,5.5,0.4,3.9,1.7,2.8z M11,8h1v4h-1V8z M13,7h1v6h-1V7z M15,6h1v8h-1V6z"/>
</svg>
