<?xml version="1.0" encoding="utf-8"?>
<!-- Generator: Adobe Illustrator 23.0.0, SVG Export Plug-In . SVG Version: 6.00 Build 0)  -->
<svg version="1.1" xmlns="http://www.w3.org/2000/svg" xmlns:xlink="http://www.w3.org/1999/xlink" x="0px" y="0px"
	 viewBox="0 0 16 16" style="enable-background:new 0 0 16 16;" xml:space="preserve">
<g id="grid_1_" style="display:none;">
	<g id="grid" style="display:inline;">
		<g>
			<rect x="2" style="fill:#C8E9F0;" width="12" height="16"/>
			<rect y="2" style="fill:#C8E9F0;" width="16" height="12"/>
			<rect x="1" y="1" style="opacity:0.5;fill:#CFA7CE;enable-background:new    ;" width="14" height="14"/>
			<circle style="opacity:0.5;fill:#D0A86F;enable-background:new    ;" cx="8" cy="8" r="8"/>
		</g>
	</g>
</g>
<g id="Layer_1">
	<g>
		<g>
			<ellipse cx="8" cy="3" rx="6" ry="3"/>
			<path d="M8,8C4.7,8,2,6.7,2,5v3c0,1.7,2.7,3,6,3s6-1.3,6-3V5C14,6.7,11.3,8,8,8z"/>
			<path d="M8,13c-3.3,0-6-1.3-6-3v3c0,1.7,2.7,3,6,3s6-1.3,6-3v-3C14,11.7,11.3,13,8,13z"/>
		</g>
	</g>
</g>
</svg>
