<?xml version="1.0" encoding="utf-8"?>
<!-- Generator: Adobe Illustrator 23.0.0, SVG Export Plug-In . SVG Version: 6.00 Build 0)  -->
<svg version="1.1" id="Layer_1" xmlns="http://www.w3.org/2000/svg" xmlns:xlink="http://www.w3.org/1999/xlink" x="0px" y="0px"
	 viewBox="0 0 16 16" style="enable-background:new 0 0 16 16;" xml:space="preserve">
<polygon points="8,11 6.6,12.4 8,16 9.6,12.4 "/>
<polygon points="2,10 1,16 6.6,16 4.2,10 "/>
<path d="M4.6,4.9c0.3-0.5,0.8-1,1.3-1.3C6,3.4,6,3.2,6,3c0-1.1-0.9-2-2-2C2.9,1,2,1.9,2,3c0,1.1,0.9,2,2,2C4.2,5,4.4,5,4.6,4.9z"/>
<path d="M4,7c0-0.4,0.1-0.7,0.1-1C4.1,6,4,6,4,6C3.1,6,2.3,5.6,1.8,5H1L0,9h4.6C4.2,8.4,4,7.7,4,7z"/>
<path d="M12,1c-1.1,0-2,0.9-2,2c0,0.2,0,0.4,0.1,0.6c0.5,0.3,1,0.8,1.3,1.3C11.6,5,11.8,5,12,5c1.1,0,2-0.9,2-2C14,1.9,13.1,1,12,1z
	"/>
<circle cx="8" cy="7" r="3"/>
<path d="M16,9l-1-4h-0.8c-0.5,0.6-1.3,1-2.2,1c0,0-0.1,0-0.1,0C11.9,6.3,12,6.6,12,7c0,0.7-0.2,1.4-0.6,2H16z"/>
<path d="M14,10h-2.1l-2.5,6H15L14,10z"/>
</svg>
