<?xml version="1.0" encoding="utf-8"?>
<!-- Generator: Adobe Illustrator 23.0.0, SVG Export Plug-In . SVG Version: 6.00 Build 0)  -->
<svg version="1.1" id="Layer_1" xmlns="http://www.w3.org/2000/svg" xmlns:xlink="http://www.w3.org/1999/xlink" x="0px" y="0px"
	 viewBox="0 0 16 16" style="enable-background:new 0 0 16 16;" xml:space="preserve">
<path d="M11.5,9C11.4,9,11.4,9,11.5,9c-0.7,1.2-2,2.1-3.5,2.1c-1.5,0-2.7-0.8-3.4-2.1c0,0,0,0,0,0C4.2,9.1,2,9.8,2,13.7
	C2,15.8,5,16,8,16s6-0.2,6-2.3C14,9.8,11.8,9.1,11.5,9z"/>
<circle cx="8" cy="7" r="3"/>
<path d="M12,1c-1.1,0-2,0.9-2,2c0,0.2,0,0.4,0.1,0.6c0.5,0.3,1,0.8,1.3,1.3C11.6,5,11.8,5,12,5c1.1,0,2-0.9,2-2C14,1.9,13.1,1,12,1z
	"/>
<path d="M4.6,4.9c0.3-0.5,0.8-1,1.3-1.3C6,3.4,6,3.2,6,3c0-1.1-0.9-2-2-2C2.9,1,2,1.9,2,3c0,1.1,0.9,2,2,2C4.2,5,4.4,5,4.6,4.9z"/>
<path d="M4,8.1l0.1,0C4.1,7.7,4,7.4,4,7c0-0.5,0.1-0.9,0.2-1.3c-0.1,0-0.1,0-0.2,0c-1,0-1.8-0.5-2.3-1.2C1.5,4.5,0,5,0,7.5
	c0,1,1.1,1.3,2.5,1.5C3.2,8.3,3.8,8.1,4,8.1z"/>
<path d="M14.3,4.5C13.8,5.2,13,5.8,12,5.8c-0.1,0-0.2,0-0.2,0C11.9,6.1,12,6.5,12,7c0,0.4-0.1,0.7-0.1,1l0.2,0
	c0.2,0,0.9,0.2,1.5,0.9C14.9,8.8,16,8.5,16,7.5C16,5,14.5,4.5,14.3,4.5z"/>
</svg>
