<?xml version="1.0" encoding="utf-8"?>
<!-- Generator: Adobe Illustrator 23.0.0, SVG Export Plug-In . SVG Version: 6.00 Build 0)  -->
<svg version="1.1" id="Layer_1" xmlns="http://www.w3.org/2000/svg" xmlns:xlink="http://www.w3.org/1999/xlink" x="0px" y="0px"
	 viewBox="0 0 16 16" style="enable-background:new 0 0 16 16;" xml:space="preserve">
<path d="M12.5,4C10.6,4,9,5.6,9,7.5C9,8,9.1,8.5,9.3,9H6.7C6.9,8.5,7,8,7,7.5C7,5.6,5.4,4,3.5,4S0,5.6,0,7.5S1.6,11,3.5,11
	c0.2,0,8.8,0,9,0c1.9,0,3.5-1.6,3.5-3.5S14.4,4,12.5,4z M3.5,9C2.7,9,2,8.3,2,7.5S2.7,6,3.5,6S5,6.7,5,7.5S4.3,9,3.5,9z M12.5,9
	C11.7,9,11,8.3,11,7.5S11.7,6,12.5,6S14,6.7,14,7.5S13.3,9,12.5,9z"/>
</svg>
