<?xml version="1.0" encoding="utf-8"?>
<!-- Generator: Adobe Illustrator 25.4.1, SVG Export Plug-In . SVG Version: 6.00 Build 0)  -->
<svg version="1.1" id="Layer_1" xmlns="http://www.w3.org/2000/svg" xmlns:xlink="http://www.w3.org/1999/xlink" x="0px" y="0px"
	 viewBox="0 0 16 16" style="enable-background:new 0 0 16 16;" xml:space="preserve">
<path d="M14.5,12c0.3,0,0.5-0.2,0.5-0.5V0H3C1.9,0,1,0.9,1,2v12c0,1.1,0.9,2,2,2h12v-1.5c0-0.3-0.2-0.5-0.5-0.5H14v-2H14.5z M4,4h8
	v1H4V4z M4,6h8v1H4V6z M13,14H4c-0.6,0-1-0.4-1-1s0.4-1,1-1h9V14z"/>
</svg>
