<?xml version="1.0" encoding="utf-8"?>
<!-- Generator: Adobe Illustrator 23.0.1, SVG Export Plug-In . SVG Version: 6.00 Build 0)  -->
<svg version="1.1" id="Layer_1" xmlns="http://www.w3.org/2000/svg" xmlns:xlink="http://www.w3.org/1999/xlink" x="0px" y="0px"
	 viewBox="0 0 16 16" style="enable-background:new 0 0 16 16;" xml:space="preserve">
<g>
	<path d="M8,0C6.2,0,4.8,1.3,4.5,3h6.9C11.2,1.3,9.8,0,8,0z"/>
	<path d="M13,10h3V8h-3V6.4l2-2L13.6,3l-2,2H4.4l-2-2L1,4.4l2,2V8H0v2h3v1.7c0,0.3,0.1,0.5,0.2,0.7L1,14.6L2.4,16l1.8-1.8
		c0.7,0.8,1.7,1.4,2.8,1.7V9h2v6.9c1.1-0.2,2.1-0.8,2.8-1.7l1.8,1.8l1.4-1.4l-2.2-2.2c0.1-0.2,0.1-0.5,0.2-0.7V10z"/>
</g>
</svg>
