<?xml version="1.0" encoding="utf-8"?>
<!-- Generator: Adobe Illustrator 23.1.1, SVG Export Plug-In . SVG Version: 6.00 Build 0)  -->
<svg version="1.1" id="Layer_1" xmlns="http://www.w3.org/2000/svg" xmlns:xlink="http://www.w3.org/1999/xlink" x="0px" y="0px"
	 viewBox="0 0 16 16" style="enable-background:new 0 0 16 16;" xml:space="preserve">
<path d="M14.6,1.1L9,4H1C0.4,4,0,4.4,0,5v5c0,0.6,0.4,1,1,1h1.9l0.9,3.3c0.1,0.4,0.5,0.7,1,0.7h1.9c0.7,0,1.1-0.6,1-1.3L6.9,11H9
	l5.6,2.9c0.7,0.3,1.4-0.2,1.4-0.9V2C16,1.3,15.3,0.8,14.6,1.1z M3,9H2V6h1V9z M6,9H5V6h1V9z"/>
</svg>
