<?xml version="1.0" encoding="utf-8"?>
<!-- Generator: Adobe Illustrator 26.0.3, SVG Export Plug-In . SVG Version: 6.00 Build 0)  -->
<svg version="1.1" id="Layer_1" xmlns="http://www.w3.org/2000/svg" xmlns:xlink="http://www.w3.org/1999/xlink" x="0px" y="0px"
	 viewBox="0 0 16 16" style="enable-background:new 0 0 16 16;" xml:space="preserve">
<style type="text/css">
	.st0{fill-rule:evenodd;clip-rule:evenodd;}
</style>
<g>
	<path class="st0" d="M4.4,8C4.7,6.7,5.7,5.7,7,5.4c0.2-0.1,0.5-0.1,0.7-0.1l3.1-3.1C10.7,2.1,10.5,2,10.3,2H5.7
		C5.3,2,4.9,2.3,4.8,2.6L4.2,4H1C0.4,4,0,4.4,0,5v8l4.3-4.3C4.3,8.5,4.3,8.2,4.4,8z"/>
	<path class="st0" d="M15,4h-2l3-3l-1-1L0,15l1,1l2-2h12c0.6,0,1-0.4,1-1V5C16,4.4,15.6,4,15,4z M11.6,10c-0.3,1.3-1.3,2.3-2.6,2.6
		c-1.4,0.4-2.8-0.1-3.7-1L6,11c0.3,0.3,0.7,0.5,1.1,0.6c2.2,0.7,4.2-1.3,3.5-3.5C10.5,7.7,10.2,7.3,10,7l0.7-0.7
		C11.5,7.3,12,8.6,11.6,10z"/>
</g>
</svg>
