<?xml version="1.0" encoding="utf-8"?>
<!-- Generator: Adobe Illustrator 23.0.2, SVG Export Plug-In . SVG Version: 6.00 Build 0)  -->
<svg version="1.1" id="Layer_1" xmlns="http://www.w3.org/2000/svg" xmlns:xlink="http://www.w3.org/1999/xlink" x="0px" y="0px"
	 viewBox="0 0 16 16" style="enable-background:new 0 0 16 16;" xml:space="preserve">
<path d="M8,0C3.6,0,0,3.6,0,8s3.6,8,8,8s8-3.6,8-8S12.4,0,8,0z M2,8c0-1.3,0.4-2.4,1.1-3.4l8.3,8.3C10.4,13.6,9.3,14,8,14
	C4.7,14,2,11.3,2,8z M12.8,11.5L4.5,3.2C5.4,2.4,6.7,2,8,2c3.3,0,6,2.7,6,6C14,9.3,13.6,10.6,12.8,11.5z"/>
</svg>
