<?xml version="1.0" encoding="utf-8"?>
<!-- Generator: Adobe Illustrator 23.0.1, SVG Export Plug-In . SVG Version: 6.00 Build 0)  -->
<svg version="1.1" id="Layer_1" xmlns="http://www.w3.org/2000/svg" xmlns:xlink="http://www.w3.org/1999/xlink" x="0px" y="0px"
	 viewBox="0 0 16 16" style="enable-background:new 0 0 16 16;" xml:space="preserve">
<path d="M16,0H0v12h5l0,4l5.6-4H16V0z M8,5c0.6,0,1,0.4,1,1S8.6,7,8,7S7,6.6,7,6S7.4,5,8,5z M4,7C3.4,7,3,6.6,3,6s0.4-1,1-1
	s1,0.4,1,1S4.6,7,4,7z M12,7c-0.6,0-1-0.4-1-1s0.4-1,1-1s1,0.4,1,1S12.6,7,12,7z"/>
</svg>
