<svg xmlns="http://www.w3.org/2000/svg" width="16" height="16" viewBox="0 0 16 16"><path d="M8 0C3.6 0 0 3.6 0 8s3.6 8 8 8 8-3.6 8-8-3.6-8-8-8zM5.9 14.7c0-.1 0-.1 0 0zm2.3-3.8l-.1.4c0 .1-.1.4-.1.4 0 .1-.1.2-.1.3 0 0-.3.1-.3.2-.1 0-.1.1-.2.1l-.1.1c0 .1.1.3 0 .4-.1 0-.1 0-.1.1-.1 0 0 .1-.1.1s-.2.1-.2.2c0 .2 0 .2-.1.3 0 0-.2 0-.2.1v.2l-.2.1c-.2 0-.2 0-.3.1v.1c0 .1-.1 0-.4.3.3-.4.3-.3.3-.3 0 .1 0 .1-.1.2l-.1.1v.3c-.1 0-.2-.1-.4-.1 0-.2 0-.5.1-.5l.1-.2v-.4c0-.1.1-.2.1-.3.2-.1.1-.8.2-.8 0-.4.1-.5-.2-.6l-.2-.2c-.2 0-.3-.4-.3-.4-.1 0-.1-.1-.1-.2l-.3-.4c-.2-.1 0-.2 0-.4-.1-.1 0-.4.1-.4l.1-.1c.1.1.2-.1.1-.1v-.3c.1-.1 0-.3-.1-.1-.1 0-.4 0-.4-.2 0-.1-.1-.3-.2-.3 0-.1-.3-.3-.4-.3 0-.1-.1-.1-.1-.1.1.1 0 0-.1 0-.2 0-.4-.1-.4-.1 0-.1-.2-.1-.3-.2-.1 0-.2-.2-.2-.3 0-.2-.1-.4-.2-.4 0-.1-.2-.2-.2-.2v-.2c0-.1-.2-.3-.2-.2s.2.2.2.3l.2.3c.3.4-.2.1-.2-.1-.1-.1-.2-.3-.2-.4 0-.1-.1-.3-.1-.3 0-.1-.1-.2-.3-.2l-.2-.1c0-.1 0-.2-.1-.2v-.7c.3-.9.9-1.7 1.5-2.3h.1c.1.1.2.1.3.1h.2s.2-.1.1-.1c0-.1 0-.1-.1-.1 0-.1.2 0 .3 0 0-.1-.1-.1 0-.1.1-.1.2 0 .2-.1 0 0 .1 0 .1.1.1 0 .3.4.3.1.1 0 .1.2.1.3.1-.2.1-.3.1-.4.1 0 0-.1 0-.1s.1.1.1 0v.1H5v.3c0 .1-.2.1-.2.1 0 .1.2.1.3.2h-.2c-.1 0-.3.1-.4 0 .1 0 .2-.2.2-.3 0-.1-.1 0-.1.1 0 .2-.1 0-.2.1l-.2.1c-.2 0-.1.2-.1.3 0 .1.2.2.2.3.2.1.2.1.4.1 0 .1.1.1.1.1 0 .1.1.1.2.1 0-.1.2.1.2.2 0 0 .1.1.1.2 0 0 .2 0 .2-.1-.1 0-.1 0-.1-.1-.1-.1-.1-.2 0-.2 0 .1.3 0 .1-.1 0-.1.1-.2 0-.3 0-.1-.1 0-.1-.1.1 0 0-.2 0-.3h.1c.1 0 .2.2.3 0 .2.1 0 .2.2.1V4c.1 0 .2.1.2 0 0 0 .1-.1.1-.2 0 0 .1.3.2.3 0 .1.2.2.2.3.1 0 .1 0 .1.1 0 0 .1-.1.1 0 .1 0 .2 0 .2.1-.1 0-.1.1-.1.1 0 .1-.3 0-.3 0-.2.2-.5 0-.7.1-.1 0-.4.3-.4.4.2 0 .3-.2.4-.2h.1s0 .1.1.1c0 .1.1.1.1.1v.1h-.1v-.1c-.1 0-.2.1-.3.1l-.1.1c-.1.1-.1.3-.1.3l-.2.1c0 .1-.1.1-.1.2l-.1.1c-.1.1-.2.3-.3.3 0 .2-.2.2-.2.4.1 0 .1.2.1.3 0 .1 0 .2-.1.2v-.1c0-.1-.1-.2-.1-.3 0-.1-.1 0-.2 0 0-.1-.2-.1-.3-.1.1 0 .1 0 .1.1h-.2s0-.1-.1-.1c-.3 0-.4.2-.4.4v.4c0 .1.1.2.1.3.1-.1.2.1.3.1h.2c-.1 0 0-.2.1-.3 0 .1.1 0 .1 0 0-.1.1-.1.1-.1 0-.1.1.1 0 .1s-.2.1-.2.1-.1.1-.1.2c-.1.1 0 .1 0 .2h.3v-.1c.1 0 0 .3.1.3 0 .1.1.2.1.3.1 0 .1.1.1.2.1 0 .3 0 .3-.1.1 0 .1.1.1.2.3 0 .1-.3.2-.3h.1l.1-.1h.2c.1 0 .1-.1.2-.1 0 0 0 .2.2.2h.4c.1 0 .1.1.1.1s.1 0 .1.1.1.1.1.1c.1 0 0 .1.1.1.1.1.1.1.2.1 0-.1.1 0 .1 0l.1.1c.1.1.1 0 .2.1s.1.2.1.3v.2c-.1 0 .1.1.1 0 .1 0 .1.1.2.1 0 .1.1.1.1 0 .1 0 .1.2.1.3-.3-.2-.3-.3-.2-.3.1-.1 0 0 .1 0 .4 0 .2.4.2.6 0 .2.2.3-.1.3zm6.3-1.5s0 .1 0 0c-.1.1-.1.2-.2.2 0 .1-.1.2-.2.3-.1.1-.3.2-.3.3.1-.1-.3.3-.2.3 0 .1-.1.5 0 .5 0 0 .1.4 0 .4v.6c-.4.7-1 1.2-1.6 1.7l-.3-.3c0-.1-.1-.2-.1-.3l-.1-.2c0-.1-.2-.5-.2-.5l-.1-.2c0-.2-.4-.3-.4-.4-.1 0-.1-.4-.1-.4 0-.2.1-.3.1-.4 0-.3-.3-.1-.3-.3l-.1-.2c-.1 0-.1-.2-.1-.3.1-.1.1-.4.1-.4h-.3c0-.2-.5-.1-.7-.1 0 .1-.2-.2-.2-.3-.1 0-.3-.2-.3-.3.3-.1.1-.5.1-.6-.1 0-.1-.2 0-.2 0-.1.2-.2.2-.3 0 0 .1 0 .1-.1 0-.2 0-.3.1-.4 0-.1.1-.1.1-.2s0 0 .1-.1c.1 0 .1-.1.2-.2v-.1l.1-.3c.1-.2 0-.1.1-.1s.1-.1.2-.1c0-.1 0-.1.1-.1 0 .1.2 0 .2 0 0-.1.2-.2.3-.2 0-.1.4 0 .5 0s.3.4.3.4h.2c0 .1.1.1.2.1s.4-.1.4-.2c0 0 .1 0 .1.1.1 0 .5 0 .5.1.1 0 .1.1.2.1 0 .1.1.3.2.3 0 .1 0 .2.1.3.1.1.2.3.3.4-.1.1.1.2.1.3l.1.2c0 .1.3.4.4.5 0 0 .1 0 .3.4.1 0 .3-.1.4-.1-.5.2-.6.2-.6.4zm.2-1.4c-.1 0-.4 0-.4.2-.1 0-.3.1-.3.1-.2 0-.2-.3-.3-.3 0 0-.1 0-.1-.1.1 0-.2-.5-.2-.6 0-.1-.1-.2-.1-.3-.1-.1-.2-.2-.2-.3-.1 0-.3-.2-.3-.3.1 0 .2 0 .2-.1-.1 0-.1-.1 0-.1 0-.1.1-.1.1-.2.1-.1 0-.1 0-.2H13c.3.2 0 .2 0 .2l-.2-.1c.1-.1.5 0 .5-.1 0 0 .1.2.1 0 .1 0 .1.2.3.1 0 .1.3-.1.1-.1 0-.2-.2-.2-.3-.3-.1 0-.1-.1-.2-.1 0-.1-.1 0-.1 0-.2 0-.1-.1-.2-.1 0-.2-.1-.2-.1 0-.1.2-.2.3-.2.4h-.1c-.1-.1-.1-.2-.1-.3s-.1-.1-.2-.1c-.2 0-.1.2-.1.3.1 0-.1.1-.1.2-.2 0-.1-.2-.2-.3-.1-.1 0-.1-.1-.1 0 0 .1-.2 0-.2l-.2-.1c-.1 0-.3-.3-.4-.2 0 .1.1.1.1.2.1 0 .1.2.3.2v.1c.1 0 .1.1.1.1 0 .1-.1 0-.1 0 0 .1 0 0-.1.1 0-.1 0-.3-.1-.3-.1-.1-.2-.1-.3-.2-.1 0-.1-.2-.2-.2 0 .1-.1.1-.1.1-.1.1-.4 0-.4 0l-.2.4c0 .1-.1.1-.1.2.4.4 0 .4 0 .4-.2 0-.3-.1-.3-.3l.1-.4h.1c.1-.1.3 0 .3-.1.1 0 .1 0 .1.1.1 0 .2 0 .2-.1-.1 0-.1-.1-.1-.1.2-.2-.1-.3-.1-.4h-.1v-.1h-.1c-.1 0 0-.1 0-.2 0 0 .3.1.1 0 0-.2 0-.2-.2-.2 0-.1-.1-.1-.1-.2 0-.2.2 0 .2-.2.1 0 0 .1 0 .1V4c.1 0 .1-.1.2-.1 0 .1-.1.1 0 .2s.1.1.1.2c.1 0 .1.1.1.2.1 0 .2-.1.1-.1.2.1.1 0 .2-.1 0 .1.1-.1.2-.1.1-.1.3 0 .3-.1-.1 0-.1-.1-.1-.2.1 0 .2-.1.2 0v.2c.1.1.1 0 .1-.1 0 0-.1-.2-.1-.3 0 .1-.1.1-.1.1-.2 0-.3-.1-.4-.1l-.1-.2c-.1-.1.1-.1.1-.1 0-.1.5-.1.5-.3-.2 0 .2-.3.2-.3.1-.1.1-.2.3-.2.1 0 .7-.2.7-.1C14 4 14.9 5.8 15 7.8c-.1.1-.3.1-.3.2z"/></svg>