<?xml version="1.0" encoding="utf-8"?>
<!-- Generator: Adobe Illustrator 23.0.1, SVG Export Plug-In . SVG Version: 6.00 Build 0)  -->
<svg version="1.1" id="Layer_1" xmlns="http://www.w3.org/2000/svg" xmlns:xlink="http://www.w3.org/1999/xlink" x="0px" y="0px"
	 viewBox="0 0 16 16" style="enable-background:new 0 0 16 16;" xml:space="preserve">
<g>
	<path d="M9.3,5.2L7.8,6.8C8.1,6.8,8.5,7,8.7,7.3c0.8,0.8,0.8,2.1,0,2.9l-2.2,2.2c-0.8,0.8-2.1,0.8-2.9,0c-0.8-0.8-0.8-2.1,0-2.9
		l0.1-0.1C3.4,8.6,3.2,7.8,3.2,7l-1,1c-1.6,1.6-1.6,4.2,0,5.8s4.2,1.6,5.8,0l2.2-2.2c1.6-1.6,1.6-4.2,0-5.8C9.9,5.6,9.6,5.4,9.3,5.2
		z"/>
	<path d="M13.8,2.2c-1.6-1.6-4.2-1.6-5.8,0L5.8,4.4c-1.6,1.6-1.6,4.2,0,5.8c0.3,0.3,0.5,0.4,0.8,0.6l1.5-1.5C7.9,9.2,7.5,9,7.3,8.7
		c-0.8-0.8-0.8-2.1,0-2.9l2.2-2.2c0.8-0.8,2.1-0.8,2.9,0c0.8,0.8,0.8,2.1,0,2.9l-0.1,0.1c0.4,0.7,0.6,1.6,0.5,2.4l1-1
		C15.4,6.4,15.4,3.8,13.8,2.2z"/>
</g>
</svg>
