<svg xmlns="http://www.w3.org/2000/svg" width="16" height="16" viewBox="0 0 16 16"><path d="M14.7 7.9c-.1-.1-.7-.9-1-1.3-.3-.3-.1-.5-.1-.7s.1-.7.1-1.1-.1-.9-.2-1.1l-.5-1C11.9.6 9.1.2 9.1.2 8.7.1 7.9 0 7 0v4.1c1.1.2 2 1.2 2 2.4 0 .5-.2 1-.4 1.4l2.7 2.7c.2.2.2.5 0 .7s-.5.2-.7 0L7.9 8.6c-.4.3-.9.4-1.4.4C5.1 9 4 7.9 4 6.5c0-.8.4-1.5 1-2V.3c-.6.1-1.2.4-1.7.8-1.8 1.4-2.2 3.6-2.2 3.6-.6 4.4 1.4 3.9 2 6.7.5 2.7-.5 4.6-.5 4.6H10s0-1.2.3-1.7c.3-.7 1.8-.7 2.5-.8.6-.1 1-.7.8-1.3-.1-.4 0-.7.1-.8.3-.3-1-.4-1-.7s1.1-.3 1.3-.5c0-.3-.1-.5-.1-.8 0-.2.8-.3 1-.5s-.1-.9-.2-1z"/></svg>