<?xml version="1.0" encoding="utf-8"?>
<!-- Generator: Adobe Illustrator 23.0.1, SVG Export Plug-In . SVG Version: 6.00 Build 0)  -->
<svg version="1.1" id="Layer_1" xmlns="http://www.w3.org/2000/svg" xmlns:xlink="http://www.w3.org/1999/xlink" x="0px" y="0px"
	 viewBox="0 0 16 16" style="enable-background:new 0 0 16 16;" xml:space="preserve">
<path d="M12.8,8.2l-5.3,5.4c-1.2,1.2-3,1.2-4.2,0s-1.2-3.1,0-4.2l7.3-7.3c0.7-0.7,1.8-0.7,2.4,0c0.6,0.7,0.7,1.8,0,2.5l-6.9,6.9
	c-0.2,0.2-0.5,0.2-0.7,0c-0.2-0.2-0.2-0.5,0-0.7l5.4-5.5l-1-1.1L4.4,9.7c-0.8,0.8-0.8,2,0,2.8s2,0.8,2.8,0l6.9-6.9
	c1.2-1.3,1.2-3.3,0-4.6s-3.3-1.3-4.5,0L2.3,8.3c-1.7,1.8-1.7,4.6,0,6.4s4.5,1.8,6.3,0l5.3-5.4L12.8,8.2z"/>
</svg>
