<?xml version="1.0" encoding="utf-8"?>
<!-- Generator: Adobe Illustrator 23.0.2, SVG Export Plug-In . SVG Version: 6.00 Build 0)  -->
<svg version="1.1" id="Layer_1" xmlns="http://www.w3.org/2000/svg" xmlns:xlink="http://www.w3.org/1999/xlink" x="0px" y="0px"
	 viewBox="0 0 16 16" style="enable-background:new 0 0 16 16;" xml:space="preserve">
<path d="M14.9,11.1c0.1,0.1,0.3,1.7-0.4,2.4c-2,1.9-4,2.5-8.7-1.9L1.4,16L0,14.6L14.6,0L16,1.4l-8.7,8.7c1,0.8,2.1,1,2.2,0.9l2-1.2
	l3.1,1.1C14.6,10.9,14.8,11,14.9,11.1z M5,7.5c-0.3-0.5-0.4-1-0.2-1.1l1.4-1.8L5.1,1.4c0,0-0.1-0.3-0.2-0.3C4.8,1,3.2,0.8,2.5,1.5
	C0.7,3.3,0.1,5.2,3.4,9.1L5,7.5z"/>
</svg>
