<?xml version="1.0" encoding="utf-8"?>
<!-- Generator: Adobe Illustrator 23.0.1, SVG Export Plug-In . SVG Version: 6.00 Build 0)  -->
<svg version="1.1" id="Layer_1" xmlns="http://www.w3.org/2000/svg" xmlns:xlink="http://www.w3.org/1999/xlink" x="0px" y="0px"
	 viewBox="0 0 16 16" style="enable-background:new 0 0 16 16;" xml:space="preserve">
<path d="M14.9,11.1c-0.1-0.1-0.3-0.2-0.3-0.2l-3.1-1.1L9.5,11c-0.1,0.1-1.6-0.2-2.8-1.5L6.4,9.2C5,7.9,4.6,6.6,4.8,6.4l1.4-1.8
	L5.1,1.4c0,0-0.1-0.3-0.2-0.3C4.8,1,3.2,0.8,2.5,1.5c-2,2-2.6,4.2,2.4,9.3l0.3,0.3c5.1,5,7.2,4.4,9.3,2.4
	C15.2,12.8,15,11.2,14.9,11.1z"/>
</svg>
