<?xml version="1.0" encoding="utf-8"?>
<!-- Generator: Adobe Illustrator 25.4.1, SVG Export Plug-In . SVG Version: 6.00 Build 0)  -->
<svg version="1.1" id="Layer_1" xmlns="http://www.w3.org/2000/svg" xmlns:xlink="http://www.w3.org/1999/xlink" x="0px" y="0px"
	 viewBox="0 0 16 16" style="enable-background:new 0 0 16 16;" xml:space="preserve">
<path d="M14,7c-0.4,0-0.7,0.1-1,0.3V3.1H7.7C7.9,2.7,8,2.4,8,2c0-1.1-0.9-2-2-2S4,0.9,4,2c0,0.4,0.1,0.7,0.3,1.1H0v4.2
	C0.3,7.1,0.6,7,1,7c1.1,0,2,0.9,2,2s-0.9,2-2,2c-0.4,0-0.7-0.1-1-0.3V16h4.3C4.1,15.7,4,15.4,4,15c0-1.1,0.9-2,2-2s2,0.9,2,2
	c0,0.4-0.1,0.7-0.3,1H13v-5.3c0.3,0.2,0.6,0.3,1,0.3c1.1,0,2-0.9,2-2S15.1,7,14,7z"/>
</svg>
