<svg xmlns="http://www.w3.org/2000/svg" width="16" height="16" viewBox="0 0 16 16"><path d="M15.9 10.1c-.4-.7-1.5-.2-2 .1 0 0 .1-.5-.3-.7-.4-.2-1.2 0-1.5.4 0 0-.4-.5-.8-.5s-2 1-2.4 1.4c1 0 2.7-.3 2.7 1.3 0 .9-.5 1.3-2.3 1.3 0 0-1.8.1-2 0s-1.2-.3-2-1.2c0 0 1.2.3 2.1.3h2.4s.9.1.9-.4c0-.4-.9-.4-.9-.4s-2.4 0-3.5-1.4C5.8 9.7 5.3 9 4.6 9c-2-.1-2.8 1.7-4.6 1.7l.9 4.5s1.7-.9 2.7-.9c.7 0 3.3 1.7 4.4 1.7 2 0 7.4-4.6 7.4-4.6s.9-.6.5-1.3zM12 4.5v-1l-1.1-.2-.3-.9.6-.9-.7-.7-.9.6c-.2-.1-.6-.3-.9-.3L8.5 0h-1l-.2 1.1c-.3 0-.6.2-.9.4L5.6.8l-.8.7.6.9-.3.9-1.1.2v1l1.1.2.3.9-.6.9.7.7.9-.7c.3.2.6.3.9.4L7.5 8h1l.2-1.1c.3-.1.7-.2.9-.3l.9.7.7-.7-.7-.9c.2-.2.3-.6.4-.9l1.1-.3zm-4 1c-.8 0-1.5-.7-1.5-1.5S7.2 2.5 8 2.5s1.5.7 1.5 1.5S8.9 5.5 8 5.5z"/></svg>