<?xml version="1.0" encoding="utf-8"?>
<!-- Generator: Adobe Illustrator 23.0.1, SVG Export Plug-In . SVG Version: 6.00 Build 0)  -->
<svg version="1.1" id="Layer_1" xmlns="http://www.w3.org/2000/svg" xmlns:xlink="http://www.w3.org/1999/xlink" x="0px" y="0px"
	 viewBox="0 0 16 16" style="enable-background:new 0 0 16 16;" xml:space="preserve">
<path d="M14,12.1V11H6.2L5.8,9.6h8.3L16,3H4L3.5,1H0v2h2l2.5,9.3C4.2,12.6,4,13,4,13.5C4,14.3,4.7,15,5.5,15S7,14.3,7,13.5
	c0-0.2,0-0.3-0.1-0.5h5.2C12,13.2,12,13.3,12,13.5c0,0.8,0.7,1.5,1.5,1.5s1.5-0.7,1.5-1.5C15,12.8,14.6,12.3,14,12.1z"/>
</svg>
