<?xml version="1.0" encoding="utf-8"?>
<!-- Generator: Adobe Illustrator 25.4.1, SVG Export Plug-In . SVG Version: 6.00 Build 0)  -->
<svg version="1.1" id="Layer_1" xmlns="http://www.w3.org/2000/svg" xmlns:xlink="http://www.w3.org/1999/xlink" x="0px" y="0px"
	 viewBox="0 0 16 16" style="enable-background:new 0 0 16 16;" xml:space="preserve">
<path d="M0,8.1V1.5C0,0.7,0.7,0,1.5,0h6.6c0.3,0,0.5,0.1,0.7,0.3l6.9,6.9c0.4,0.4,0.4,1,0,1.4l-7.1,7.1c-0.4,0.4-1,0.4-1.4,0
	L0.3,8.8C0.1,8.6,0,8.4,0,8.1z M3.5,2C2.7,2,2,2.7,2,3.5S2.7,5,3.5,5S5,4.3,5,3.5S4.3,2,3.5,2z"/>
</svg>
