<svg xmlns="http://www.w3.org/2000/svg" width="16" height="16" viewBox="0 0 16 16"><path d="M6.6 8.5l-3 3.1L5 13l2-2.1V16h2v-5.1l2 2.1 1.4-1.4-3-3.1L8 7.1z"/><path d="M10 5.1c.1.4.5.8 1 .8h.8c.7 0 1.4.3 1.8.9.3.5.5 1.1.4 1.6-.1.3-.2.6-.3.8l.2.2 1.2 1.2c.4-.5.8-1.2.9-1.9.2-1.1-.1-2.2-.7-3.1-.8-1.1-2.1-1.8-3.4-1.8h-.1c-.5-1.2-1.4-2.3-2.6-3C7.8 0 6.1-.2 4.6.2 3 .6 1.7 1.6.9 3 0 4.4-.2 6 .2 7.6c.2.9.7 1.8 1.3 2.5l1.4-1.4c-.4-.5-.6-1-.8-1.5C1.9 6 2 4.9 2.6 4c.5-.9 1.4-1.6 2.5-1.9 1-.2 2.1-.1 3.1.5.9.5 1.6 1.4 1.8 2.5z"/></svg>