<svg xmlns="http://www.w3.org/2000/svg" width="16" height="16" viewBox="0 0 16 16"><path d="M8 11l-1.4 1.4L8 16l1.6-3.6zm-6-1l-1 6h5.6l-2.4-6zm2.6-5.1c.3-.5.8-1 1.3-1.3.1-.2.1-.4.1-.6 0-1.1-.9-2-2-2s-2 .9-2 2 .9 2 2 2c.2 0 .4 0 .6-.1zM4 7c0-.4.1-.7.1-1H4c-.9 0-1.7-.4-2.2-1H1L0 9h4.6C4.2 8.4 4 7.7 4 7zm8-6c-1.1 0-2 .9-2 2 0 .2 0 .4.1.6.5.3 1 .8 1.3 1.3.2.1.4.1.6.1 1.1 0 2-.9 2-2s-.9-2-2-2z"/><circle cx="8" cy="7" r="3"/><path d="M16 9l-1-4h-.8c-.5.6-1.3 1-2.2 1h-.1c0 .3.1.6.1 1 0 .7-.2 1.4-.6 2H16zm-2 1h-2.1l-2.5 6H15l-1-6z"/></svg>