<svg xmlns="http://www.w3.org/2000/svg" width="16" height="16" viewBox="0 0 16 16"><path d="M11.5 9c-.1 0-.1 0 0 0-.7 1.2-2 2.1-3.5 2.1S5.3 10.3 4.6 9c-.4.1-2.6.8-2.6 4.7C2 15.8 5 16 8 16s6-.2 6-2.3c0-3.9-2.2-4.6-2.5-4.7z"/><circle cx="8" cy="7" r="3"/><path d="M12 1c-1.1 0-2 .9-2 2 0 .2 0 .4.1.6.5.3 1 .8 1.3 1.3.2.1.4.1.6.1 1.1 0 2-.9 2-2s-.9-2-2-2zM4.6 4.9c.3-.5.8-1 1.3-1.3.1-.2.1-.4.1-.6 0-1.1-.9-2-2-2s-2 .9-2 2 .9 2 2 2c.2 0 .4 0 .6-.1zM4 8.1h.1c0-.4-.1-.7-.1-1.1 0-.5.1-.9.2-1.3H4c-1 0-1.8-.5-2.3-1.2-.2 0-1.7.5-1.7 3 0 1 1.1 1.3 2.5 1.5.7-.7 1.3-.9 1.5-.9zm10.3-3.6c-.5.7-1.3 1.3-2.3 1.3h-.2c.1.3.2.7.2 1.2 0 .4-.1.7-.1 1h.2c.2 0 .9.2 1.5.9 1.3-.1 2.4-.4 2.4-1.4 0-2.5-1.5-3-1.7-3z"/></svg>