<?xml version="1.0" encoding="utf-8"?>
<!-- Generator: Adobe Illustrator 23.0.2, SVG Export Plug-In . SVG Version: 6.00 Build 0)  -->
<svg version="1.1" id="Layer_1" xmlns="http://www.w3.org/2000/svg" xmlns:xlink="http://www.w3.org/1999/xlink" x="0px" y="0px"
	 viewBox="0 0 16 16" style="enable-background:new 0 0 16 16;" xml:space="preserve">
<style type="text/css">
	.st0{fill-rule:evenodd;clip-rule:evenodd;}
</style>
<path class="st0" d="M14.2,2.8C15.3,4.2,16,6,16,8c0,3.8-2.5,7-6,7.9V14c2.5-0.9,4.2-3.2,4.2-6c0-1.5-0.5-2.8-1.3-3.9l-1.6,1.6
	C11.7,6.4,12,7.1,12,8c0,1.5-0.8,2.8-2,3.5V7L8,9v7l-3.5-3.5L1,16l-1-1L15,0l1,1L14.2,2.8z M12,1c-0.6-0.4-1.3-0.7-2-0.9V2
	c0.2,0.1,0.5,0.2,0.7,0.3L12,1z M8,5V0L3,5H0v6h2L8,5z"/>
</svg>
