<?xml version="1.0" encoding="utf-8"?>
<!-- Generator: Adobe Illustrator 23.1.1, SVG Export Plug-In . SVG Version: 6.00 Build 0)  -->
<svg version="1.1" id="Layer_1" xmlns="http://www.w3.org/2000/svg" xmlns:xlink="http://www.w3.org/1999/xlink" x="0px" y="0px"
	 viewBox="0 0 16 16" style="enable-background:new 0 0 16 16;" xml:space="preserve">
<g>
	<circle cx="8" cy="12.5" r="1.5"/>
	<path d="M8,3C5,3,2.4,4.4,0.7,6.5l1.4,1.4C3.5,6.1,5.6,5,8,5c2.4,0,4.5,1.1,5.9,2.9l1.4-1.4C13.6,4.4,11,3,8,3z"/>
	<path d="M8,7C6.1,7,4.5,7.9,3.5,9.3L5,10.8C5.6,9.7,6.7,9,8,9c1.3,0,2.4,0.7,3,1.8l1.5-1.5C11.5,7.9,9.9,7,8,7z"/>
</g>
</svg>
