<svg xmlns="http://www.w3.org/2000/svg"><symbol id="account-jump" viewBox="-0 0 18 18"><path d="M-56.5 34.5h10v4h-10zm10 11v-2h-4v-3h-2v11h6v-2h-4v-4zm2-3h6v4h-6zm0 6h6v4h-6z"/></symbol><symbol id="account" viewBox="-0 0 18 18"><path d="M-49.5 34.5h4v2h-4zm-2 14h8V50h-8z"/><path d="M-44.5 35.5v1h3v15h-12v-15h3v-1h-4v17h14v-17z"/><path d="M-45.2 42c-.5.7-1.3 1.2-2.3 1.2s-1.8-.5-2.3-1.2c-.3.1-1.7.5-1.7 3 0 1.4 2 1.5 4 1.5s4-.1 4-1.5c0-2.5-1.4-2.9-1.7-3z"/><circle cx="-47.5" cy="40.5" r="2"/></symbol><symbol id="arrow-down" viewBox="-0 0 18 18"><path d="M-43.9 43.1l-2.6 2.6v-8.2h-2v8.2l-2.6-2.6-1.4 1.5 5 4.9 5-4.9z"/></symbol><symbol id="arrow-left-circle-o" viewBox="-0 0 18 18"><path d="M-47.5 34.5c-5 0-9 4-9 9s4 9 9 9 9-4 9-9-4-9-9-9zm0 17c-4.4 0-8-3.6-8-8s3.6-8 8-8 8 3.6 8 8-3.6 8-8 8z"/><path d="M-47.1 47.1l-2.6-2.6h8.2v-2h-8.2l2.6-2.6-1.5-1.4-4.9 5 4.9 5z"/></symbol><symbol id="apps" viewBox="-0 0 18 18"><path d="M-55.5 35.5h4v4h-4zm6 0h4v4h-4zm6 0h4v4h-4zm-12 6h4v4h-4zm6 0h4v4h-4zm6 0h4v4h-4zm-12 6h4v4h-4zm6 0h4v4h-4zm6 0h4v4h-4z"/></symbol><symbol id="arrow-down-circle-o" viewBox="-0 0 18 18"><path d="M-47.5 52.5c5 0 9-4 9-9s-4-9-9-9-9 4-9 9 4 9 9 9zm0-17c4.4 0 8 3.6 8 8s-3.6 8-8 8-8-3.6-8-8 3.6-8 8-8z"/><path d="M-43.9 43.1l-2.6 2.6v-8.2h-2v8.2l-2.6-2.6-1.4 1.5 5 4.9 5-4.9z"/></symbol><symbol id="arrow-down-circle" viewBox="-0 0 18 18"><path d="M-47.5 34.5c-5 0-9 4-9 9s4 9 9 9 9-4 9-9-4-9-9-9zm0 15l-5-4.9 1.4-1.5 2.6 2.6v-8.2h2v8.2l2.6-2.6 1.4 1.5-5 4.9z"/></symbol><symbol id="arrow-left-circle" viewBox="-0 0 18 18"><path d="M-47.5 34.5c-5 0-9 4-9 9s4 9 9 9 9-4 9-9-4-9-9-9zm6 10h-8.2l2.6 2.6-1.5 1.4-4.9-5 4.9-5 1.5 1.4-2.6 2.6h8.2v2z"/></symbol><symbol id="arrow-left" viewBox="-0 0 18 18"><path d="M-47.1 47.1l-2.6-2.6h8.2v-2h-8.2l2.6-2.6-1.5-1.4-4.9 5 4.9 5z"/></symbol><symbol id="arrow-right-circle" viewBox="-0 0 18 18"><path d="M-47.5 34.5c-5 0-9 4-9 9s4 9 9 9 9-4 9-9-4-9-9-9zm1.1 14l-1.5-1.4 2.6-2.6h-8.2v-2h8.2l-2.6-2.6 1.5-1.4 4.9 5-4.9 5z"/></symbol><symbol id="arrow-up-circle-o" viewBox="-0 0 18 18"><path d="M-47.5 52.5c5 0 9-4 9-9s-4-9-9-9-9 4-9 9 4 9 9 9zm0-17c4.4 0 8 3.6 8 8s-3.6 8-8 8-8-3.6-8-8 3.6-8 8-8z"/><path d="M-51.1 43.9l2.6-2.6v8.2h2v-8.2l2.6 2.6 1.4-1.5-5-4.9-5 4.9z"/></symbol><symbol id="arrow-up-circle" viewBox="-0 0 18 18"><path d="M-47.5 34.5c-5 0-9 4-9 9s4 9 9 9 9-4 9-9-4-9-9-9zm3.6 9.4l-2.6-2.6v8.2h-2v-8.2l-2.6 2.6-1.4-1.5 5-4.9 5 4.9-1.4 1.5z"/></symbol><symbol id="arrow-up" viewBox="-0 0 18 18"><path d="M-51.1 43.9l2.6-2.6v8.2h2v-8.2l2.6 2.6 1.4-1.5-5-4.9-5 4.9z"/></symbol><symbol id="arrow-right-circle-o" viewBox="-0 0 18 18"><path d="M-47.5 34.5c-5 0-9 4-9 9s4 9 9 9 9-4 9-9-4-9-9-9zm0 17c-4.4 0-8-3.6-8-8s3.6-8 8-8 8 3.6 8 8-3.6 8-8 8z"/><path d="M-46.4 48.5l4.9-5-4.9-5-1.5 1.4 2.6 2.6h-8.2v2h8.2l-2.6 2.6z"/></symbol><symbol id="available-balance" viewBox="-0 0 18 18"><style>.st0{display:none}</style><g id="Creative_Commons_License" class="st0"><text id="Creative_Commons_License_1_" fill="#231f20" font-family="MyriadPro-Regular" font-size="12" transform="translate(-148.5 272.544)">With assets by Brankic1979 / CC BY</text></g><path d="M-38.5 36.5v-1h-17l-1 4v13h18v-13h-16.8l.8-3h16zm-10 6v-1h1v1h1.5V44h-2.5c-.3 0-.5.2-.5.5s.2.5.5.5h1c1.1 0 2 .9 2 2s-.9 2-2 2v1h-1v-1H-50v-1.5h2.5c.3 0 .5-.2.5-.5s-.2-.5-.5-.5h-1c-1.1 0-2-.9-2-2s.9-2 2-2z"/><path d="M-53.5 37.5h14v1h-14z"/></symbol><symbol id="arrow-right" viewBox="-0 0 18 18"><path d="M-46.4 48.5l4.9-5-4.9-5-1.5 1.4 2.6 2.6h-8.2v2h8.2l-2.6 2.6z"/></symbol><symbol id="billing-history" viewBox="-0 0 18 18"><path d="M-43.5 44.5h-2v4h4v-2h-2z"/><path d="M-44 41.5c-3.1 0-5.5 2.4-5.5 5.5s2.4 5.5 5.5 5.5 5.5-2.4 5.5-5.5-2.4-5.5-5.5-5.5zm0 9c-2 0-3.5-1.5-3.5-3.5s1.5-3.5 3.5-3.5 3.5 1.5 3.5 3.5-1.5 3.5-3.5 3.5zm-7-4h-4.5v3h3v2h2v-1.8c-.3-.8-.5-1.7-.5-2.7v-.5zm-1.5-7h5v-3h-3v-2h-2v2c-2.2 0-4 1.8-4 4s1.8 4 4 4h2c.4-1 1-1.9 1.7-2.6-.5-.2-1.1-.4-1.7-.4h-2c-.6 0-1-.4-1-1s.4-1 1-1z"/></symbol><symbol id="assign" viewBox="-23.5 57.5 18 18"><path d="M-10.5 68.5H-15l6.5-6.5-1.5-1.5-6.5 6.5v-4.5h-2v8h8z"/><path d="M-7.5 67.5v7h-15v-15h7v-1h-8v17h17v-8z"/></symbol><symbol id="billing-last" viewBox="-0 0 18 18"><path d="M-52.5 39.5h5v-3h-3v-2h-2v2c-2.2 0-4 1.8-4 4s1.8 4 4 4h2c.2 0 .4.1.5.2v-3.1c-.1-.1-.3-.1-.5-.1h-2c-.6 0-1-.4-1-1s.4-1 1-1zm-3 7v3h3v2h2v-2h.5v-3.1c-.1.1-.3.1-.5.1h-5zm12.5-3c-1.4 0-2.7.7-3.5 1.7v-1.7h-2v5h5v-2H-45c.5-.6 1.2-1 2-1 1.4 0 2.5 1.1 2.5 2.5s-1.1 2.5-2.5 2.5c-.7 0-1.3-.3-1.8-.8l-1.4 1.4c.8.8 2 1.4 3.2 1.4 2.5 0 4.5-2 4.5-4.5s-2-4.5-4.5-4.5z"/></symbol><symbol id="calendar-plus" viewBox="-0 0 18 18"><path d="M-40.5 35.5v2h-4v-2h-6v2h-4v-2h-2v17h18v-17h-2zm1 15h-16v-10h16v10z"/><path d="M-53.5 34.5h2v2h-2zm10 0h2v2h-2zm-.5 12h-2.5V49h-2v-2.5H-51v-2h2.5V42h2v2.5h2.5z"/></symbol><symbol id="billing-transactions" viewBox="-0 0 18 18"><path d="M-38.5 46.5v-2h-5.2l1.6-1.6-1.5-1.4-4.9 5zm-10 1v2h5.2l-1.6 1.6 1.5 1.4 4.9-5zm-2-6h-2c-.6 0-1-.4-1-1s.4-1 1-1h5v-3h-3v-2h-2v2c-2.2 0-4 1.8-4 4s1.8 4 4 4h2c.5 0 1 .4 1 1l2.3-2.3c-.8-1-2-1.7-3.3-1.7zm-5 5v3h3v2h2v-2h.5v-3.1c-.2.1-.3.1-.5.1h-5z"/></symbol><symbol id="billing" viewBox="-0 0 18 18"><path d="M-42.5 46.5c0-2.2-1.8-4-4-4h-2c-.6 0-1-.4-1-1s.4-1 1-1h5v-3h-3v-2h-2v2c-2.2 0-4 1.8-4 4s1.8 4 4 4h2c.6 0 1 .5 1 1s-.4 1-1 1h-5v3h3v2h2v-2c2.2 0 4-1.8 4-4z"/></symbol><symbol id="calendar" viewBox="-0 0 18 18"><path d="M-40.5 35.5v2h-4v-2h-6v2h-4v-2h-2v17h18v-17h-2zm1 15h-16v-10h16v10z"/><path d="M-53.5 34.5h2v2h-2zm10 0h2v2h-2z"/></symbol><symbol id="caret-right" viewBox="-0 0 18 18"><path d="M-49.4 38.2l-1.1 1.1 4.3 4.2-4.3 4.2 1.1 1.1 5.3-5.3z"/></symbol><symbol id="caret-down" viewBox="-0 0 18 18"><path d="M-42.2 41.6l-1.1-1.1-4.2 4.3-4.2-4.3-1.1 1.1 5.3 5.3z"/></symbol><symbol id="caret-left" viewBox="-0 0 18 18"><path d="M-45.6 48.8l1.1-1.1-4.3-4.2 4.3-4.2-1.1-1.1-5.3 5.3z"/></symbol><symbol id="caret-up" viewBox="-0 0 18 18"><path d="M-52.8 45.4l1.1 1.1 4.2-4.3 4.2 4.3 1.1-1.1-5.3-5.3z"/></symbol><symbol id="check-circle-o" viewBox="-0 0 18 18"><path d="M-47.5 35.5c4.4 0 8 3.6 8 8s-3.6 8-8 8-8-3.6-8-8 3.6-8 8-8m0-1c-5 0-9 4-9 9s4 9 9 9 9-4 9-9-4-9-9-9z"/><path d="M-43.1 40l-5.7 5.7-2.8-2.9-1.4 1.4 4.2 4.3 7.1-7.1z"/></symbol><symbol id="clock" viewBox="-0 0 18 18"><path d="M-47.5 38c3.6 0 6.5 2.9 6.5 6.5s-2.9 6.5-6.5 6.5-6.5-2.9-6.5-6.5 2.9-6.5 6.5-6.5m0-1.5c-4.4 0-8 3.6-8 8s3.6 8 8 8 8-3.6 8-8-3.6-8-8-8z"/><path d="M-46.5 43.5v-3h-2v5h5v-2zm-8.982-4.048l-1.06-1.06 3.323-3.324 1.06 1.06zm17.025-1.061l-1.06 1.061-3.325-3.32 1.06-1.062z"/></symbol><symbol id="check-circle" viewBox="-0 0 18 18"><path d="M-47.5 34.5c-5 0-9 4-9 9s4 9 9 9 9-4 9-9-4-9-9-9zm-1.3 14l-4.2-4.2 1.4-1.4 2.8 2.8 5.7-5.7 1.4 1.4-7.1 7.1z"/></symbol><symbol id="credit-prorated-charge" viewBox="-0 0 18 18"><path d="M-52.5 45.5h1v2h-1zm2 0h1v2h-1zm-4 0h1v2h-1z"/><path d="M-48.5 49.5v-1h-7v-6h15v-5h-16v12h8zm7-9h-14v-2h14v2zm0 7h2.9c-.4-1.4-1.5-2.5-2.9-2.9v2.9z"/><path d="M-42.5 48.5v-4c-2.2 0-4 1.8-4 4s1.8 4 4 4 4-1.8 4-4h-4z"/></symbol><symbol id="credit-1x-charge" viewBox="-0 0 18 18"><path d="M-52.5 45.5h1v2h-1zm-2 0h1v2h-1z"/><path d="M-50.5 49.5v-1h-5v-6h15v-5h-16v12h6zm9-9h-14v-2h14v2z"/><path d="M-45.5 50v-5.5H-47l-1.5 1.5 1.1 1.1.4-.5V50h-1v1.5h3.5V50zm7-2.7l-1.1-1.1-1.6 1.6-1.5-1.6-1.1 1.1 1.6 1.5-1.6 1.6 1.1 1.1 1.5-1.6 1.6 1.6 1.1-1.1-1.6-1.6z"/></symbol><symbol id="dashboard-grid" viewBox="-0 0 18 18"><path d="M-54.5 36.5h6v4h-6zm0 6h6v8h-6zm8-6h6v8h-6zm0 10h6v4h-6z"/></symbol><symbol id="credit-card-plus" viewBox="-0 0 18 18"><path d="M-52.5 45.5h1v2h-1zm2 0h1v2h-1zm-4 0h1v2h-1zm16 4h-3v3h-2v-3h-3v-2h3v-3h2v3h3z"/><path d="M-48.5 48.5h-7v-6h15v-5h-16v12h8v-1zm-7-10h14v2h-14v-2z"/></symbol><symbol id="dashboard-needle" viewBox="-0 0 18 18"><path d="M-40.1 40.6l-1.4-1.4-4.7 4.7c-.4-.2-.8-.3-1.3-.3-1.7 0-3 1.3-3 3s1.3 3 3 3 3-1.3 3-3c0-.5-.1-.9-.3-1.3l4.7-4.7zm-7.4 7c-.6 0-1-.4-1-1s.4-1 1-1 1 .4 1 1-.4 1-1 1z"/><path d="M-56.5 46.5c0 1.4.3 2.8.9 4h1.1c-.6-1-.9-2.1-1-3.2h1.9v-1.5h-2c.2-1.6.8-3.1 1.7-4.2l1.5 1.5 1.1-1.1-1.5-1.5c1.2-1 2.8-1.7 4.4-1.9v2h1.5v-2c.8.1 1.6.3 2.4.6l.8-.8c-1.2-.6-2.5-.9-3.9-.9-4.9 0-8.9 4-8.9 9zm17.1-3.8l-.8.8c.4 1 .6 2 .6 3.1 0 1.5-.4 2.8-1.1 4h1.1c.6-1.2.9-2.6.9-4 .2-1.5-.1-2.8-.7-3.9z"/></symbol><symbol id="credit-card" viewBox="-0 0 18 18"><path d="M-51.5 45.5h1v2h-1zm2 0h1v2h-1zm-4 0h1v2h-1z"/><path d="M-39.5 49.5v-12h-16v12h16zm-15-1v-6h14v6m0-8h-14v-2h14v2z"/></symbol><symbol id="device-fax" viewBox="0 0 18 18"><path d="M2 0h14v1H2zm16 2H0v8h15v2h-5v5H3v-5H2v6h9l5-5v-3h2V2zm-7 14.5V13h3.5L11 16.5zM4 4H1V3h3v1zm2 0H5V3h1v1z"/><path d="M5 12h3v1H5zm0 2h3v1H5z"/></symbol><symbol id="device-ata" viewBox="0 0 18 18"><switch><g><path d="M0 6v7h18V6H0zm4 5H2V7h2v4zm4 0H6V7h2v4zm7.5-1a1.5 1.5 0 1 1 0-3 1.5 1.5 0 0 1 0 3z"/></g></switch></symbol><symbol id="device-mobile" viewBox="-0 0 18 18"><path d="M-52.5 34.5v18h10v-18h-10zm5 17c-.6 0-1-.4-1-1s.4-1 1-1 1 .4 1 1-.4 1-1 1zm4-3h-8v-12h8v12z"/></symbol><symbol id="device-sprint-phone" viewBox="-0 0 18 18"><path d="M-52.5 34.5v18h10v-18h-10zm5 17c-.6 0-1-.4-1-1s.4-1 1-1 1 .4 1 1-.4 1-1 1zm4-3h-8v-12h8v12z"/><path d="M-47 41.5h-1c-.3 0-.5-.2-.5-.5s.2-.5.5-.5h2.5V39H-48c-1.1 0-2 .9-2 2s.9 2 2 2h1c.3 0 .5.2.5.5s-.2.5-.5.5h-2.5v1.5h2.5c1.1 0 2-.9 2-2s-.9-2-2-2z"/></symbol><symbol id="device-tablet" viewBox="-0 0 18 18"><path d="M-56.5 50.5h18v-14h-18v14zm17-7c0 .6-.4 1-1 1s-1-.4-1-1 .4-1 1-1 1 .4 1 1zm-3-6v12h-12v-12h12z"/></symbol><symbol id="downgrade" viewBox="-0 0 18 18"><path d="M-43.9 42.1l-2.6 2.6v-6.2h-2v6.2l-2.6-2.6-1.4 1.5 5 4.9 5-4.9zm-10.6-7.6h14v2h-14zm4 16h6v2h-6z"/></symbol><symbol id="device-soft-phone" viewBox="-0 0 18 18"><path d="M-39.5 35.5v12h-16v-12h16m1-1h-18v15h18v-15z"/><path d="M-50.4 42.3c-.7-.7-1-1.6-.9-1.6l.7-1.1-.6-1.8s-.1-.2-.2-.2c-.1-.1-.9-.2-1.3.2-1.1 1.1-1.4 2.4 1.5 5.3l.1.1c2.9 2.9 4.2 2.6 5.3 1.5.4-.4.3-1.3.2-1.3l-.2-.2-1.8-.6-1.1.7c-.1.1-.9-.1-1.6-.9l-.1-.1zm-.1 8.2h6l1 2h-8z"/></symbol><symbol id="device-voip-phone" viewBox="-0 0 18 18"><path d="M-56.5 36.5h2v14h-2zm3-1h4v16h-4zm5 1v14h10v-14h-10zm3 13h-2v-2h2v2zm0-3h-2v-2h2v2zm0-3h-2v-2h2v2zm3 6h-2v-2h2v2zm0-3h-2v-2h2v2zm0-3h-2v-2h2v2zm3 6h-2v-2h2v2zm0-3h-2v-2h2v2zm0-3h-2v-2h2v2zm0-3h-8v-3h8v3z"/></symbol><symbol id="download" viewBox="-0 0 18 18"><path d="M-43.9 41.1l-2.6 2.6v-8.2h-2v8.2l-2.6-2.6-1.4 1.5 5 4.9 5-4.9z"/><path d="M-39.5 49.5v-3h-2v3h-12v-3h-2v5h16z"/></symbol><symbol id="extension" viewBox="-0 0 18 18"><path d="M-45.5 35.5h2v3h-2zm-6 13h2v3h-2z"/><path d="M-49.5 39.5v-4h-2v10h-4v2h10v4h2v-10h4v-2h-10zm4 6h-4v-4h4v4z"/><path d="M-55.5 39.5h3v2h-3zm13 6h3v2h-3z"/></symbol><symbol id="failover" viewBox="-0 0 18 18"><path d="M-49.6 47l2.1-2.1 2.1 2.1 1.4-1.4-2.1-2.1 2.1-2.1-1.4-1.4-2.1 2.1-2.1-2.1-1.4 1.4 2.1 2.1-2.1 2.1z"/><path d="M-47.5 34.5c-3.2 0-5.9 1.6-7.5 4.1v-2.1h-1.5V41h4.5v-1.5h-1.8c1.3-2.1 3.5-3.5 6.3-3.5 4.1 0 7.6 3.4 7.6 7.5s-3.5 7.5-7.6 7.5c-2.2 0-4.1-1.1-5.5-2.6l-1.1 1.1c1.6 1.8 4 3 6.6 3 5 0 9-4 9-9s-4-9-9-9z"/></symbol><symbol id="enter" viewBox="-0 0 18 18"><path d="M-44.1 47.1l-2.6-2.6h7.2v-2h-7.2l2.6-2.6-1.5-1.4-4.9 5 4.9 5z"/><path d="M-56.5 34.5v18h7v-4h-2v2h-3v-14h3v2h2v-4z"/></symbol><symbol id="folder" viewBox="-0 0 18 18"><style>.st0{display:none}</style><g id="Creative_Commons_License" class="st0"><text id="Creative_Commons_License_1_" font-family="MyriadPro-Regular" font-size="12" transform="translate(-1966.5 1389.544)">With assets by Icomoon / CC BY</text></g><path d="M-47.5 38.5l-1-2h-8v14h18v-12z"/></symbol><symbol id="exit" viewBox="-0 0 18 18"><path d="M-45.9 39.9l2.6 2.6h-7.2v2h7.2l-2.6 2.6 1.5 1.4 4.9-5-4.9-5z"/><path d="M-56.5 34.5v18h7v-4h-2v2h-3v-14h3v2h2v-4z"/></symbol><symbol id="file-o" viewBox="-0 0 18 18"><path d="M-45.5 34.5h-9v18h14v-13l-5-5zm3.5 5h-3.5V36l3.5 3.5zm.5 12h-12v-16h7v5h5v11z"/></symbol><symbol id="forward" viewBox="-0 0 18 18"><style>.st0{display:none}</style><g id="Creative_Commons_License" class="st0"><text id="Creative_Commons_License_1_" font-family="MyriadPro-Regular" font-size="12" transform="translate(-101.5 157.544)">With assets by Icomoon / CC BY</text></g><path d="M-41.3 43.5l-3.6 3.6 1.5 1.4 4.9-5-4.9-5-1.5 1.4z"/><path d="M-54.5 47.5c0-1.7 1.3-3 3-3h4.2l-2.6 2.6 1.5 1.4 4.9-5-4.9-5-1.5 1.4 2.6 2.6h-4.2c-2.8 0-5 2.2-5 5h2z"/></symbol><symbol id="global" viewBox="-0 0 18 18"><style>.st0{display:none}</style><g id="Creative_Commons_License" class="st0"><text id="Creative_Commons_License_1_" fill="#231f20" font-family="MyriadPro-Regular" font-size="12" transform="translate(-111 77.044)">With assets by Visual Idiot / CC BY</text></g><path d="M-47.5 34.5c-5 0-9 4-9 9s4 9 9 9 9-4 9-9-4-9-9-9zm7 6.2c-.1 0 0-.2 0-.3.1 0 .1-.1.2-.1 0 .1.1.1.1.2h-.1s0 .2.1.2h.3c.2 0 .3.1.3.3 0 .2-.1.3-.3.3h-.1c0 .1 0 .2.1.2 0 .1-.3.1-.3 0-.1 0-.1-.1-.1-.1h-.1c-.2 0-.3-.1-.3-.3-.1-.3.1-.4.2-.4zm.8 2.1c-.1.1-.1.1-.2.1s-.1 0-.2-.1c0 0-.1-.1-.1-.2v-.4.1c0-.1.1-.1.2-.1.2 0 .3.1.3.3.1.2.1.3 0 .3zm-2.1-2.3c.1 0 0 .1.2.1 0 0 .1-.1.1 0 .1 0 .1.1.2.1.1.1.3.1.3.3.2 0-.1.2-.1.1-.2.1-.2-.1-.3-.1 0 .2-.1 0-.1 0 0 .1-.5.1-.6.1V41c0-.2.1-.3.2-.5 0-.2.1-.2.1 0zm-8 8c-.1 0 0 .8-.2.9 0 .1-.1.2-.1.3v.4l-.1.2c-.1 0-.1.3-.1.6-3-1.1-5.2-4-5.2-7.4 0-1.2.3-2.3.7-3.3.1.2.1.3.1.5v.5c.1 0 .2.2.2.3l.2.2c.2 0 .3.1.3.2 0 0 .1.2.1.3 0 .1.1.3.2.4 0 .2.5.6.2.1l-.2-.3c0-.1-.2-.2-.2-.3 0-.1.2.1.2.2l.1.2s.2.1.2.2c.1 0 .2.3.2.5 0 .1.1.3.2.3.1.1.3.1.3.2.1 0 .3.1.5.1.1 0 .2.2.3.2 0 0 .1 0 .1.1.1 0 .4.2.4.3.1 0 .2.2.2.3 0 .2.3.2.4.2.1-.3.2 0 .2.1v.3c.1 0 0 .2-.1.1l-.1.1c-.1 0-.2.4-.1.5 0 .2-.2.3 0 .4l.3.5c0 .1 0 .2.1.2 0 .1.1.5.3.5l.2.2c.3.1.2.3.2.7zm9.4-1.6c0 .1 0 0 0 0 0 .1-.1.1-.1.2 0-.1-.1.1 0 .1 0 0 0 .1-.1.1h-.2c0 .1-.1.1 0 .1 0 .1-.1 0-.1 0 0 .1-.1.3-.1.5-1.4 2.2-3.8 3.6-6.6 3.6-.7 0-1.4-.1-2.1-.3l.1-.1c0-.1.1-.1.1-.2.1 0 0-.1 0 0l-.1.1v-.3l.1-.1c.1-.1.1-.1.1-.2 0 0 0-.1-.1-.1.4-.3.5-.2.5-.3v-.1c.1-.1.1-.1.3-.1l.2-.1v-.2c0-.1.2-.1.2-.1.1-.1.1-.1.1-.3 0-.1.1-.2.2-.2s0-.1.1-.1c0-.1 0-.1.1-.1.1-.1 0-.3 0-.4l.1-.1c.1 0 .1-.1.2-.1 0-.1.3-.2.3-.2 0-.1.1-.2.1-.3 0 0 .1-.3.1-.4v-.3l.1-.1c.3 0 .5-.3.5-.5 0-.3-.2-.6-.6-.6-.1 0-.2 0-.3.1-.1 0-.1.1-.2.1 0-.1 0-.3-.1-.3 0 .1-.1.1-.1 0-.1 0-.1-.1-.2-.1 0 .1-.2 0-.1 0v-.2c0-.1 0-.2-.1-.3-.1-.1 0-.1-.1-.2l-.1-.1s-.1-.1-.1 0c-.1 0-.1 0-.2-.1-.1 0 0-.1-.1-.1 0 0-.1 0-.1-.1s-.1-.1-.1-.1 0-.1-.1-.1l-.1-.1h-.3c-.2 0-.2-.2-.2-.2-.1 0-.1.1-.2.1h-.2l-.1.1h-.1c-.1 0 .1.3-.2.3 0-.1 0-.2-.1-.2 0 .1-.2.1-.3.1 0-.1 0-.2-.1-.2 0-.1-.1-.2-.1-.3-.1 0 0-.3-.1-.3v.1h-.3c0-.1-.1-.1 0-.2 0-.1.1-.2.1-.2s0-.1.1-.1 0-.2 0-.1c0 0-.1 0-.1.1 0 0-.1.1-.1 0-.1 0-.2.2-.1.2 0 .1-.1.1-.1.1-.2 0-.1 0-.1-.1-.1 0-.2-.2-.3-.2 0-.1-.1-.2-.1-.3v-.4c0-.2.1-.4.4-.4.1 0 .1.1.2.1h.2c0-.1 0-.1-.1-.1.1 0 .3 0 .3.1.1 0 .2-.1.2 0s.1.2.1.3l.1.1c.1 0 .1-.1.1-.2s0-.3-.1-.4c0-.2.2-.2.2-.4.1 0 .2-.2.3-.3l.1-.2c0-.1.1-.1.1-.2l.2-.1c.1 0 .1-.2.2-.3l.1-.1c.1 0 .2-.1.3-.1v.1h-.1c0 .1-.1.1.1 0l.1-.1v-.1s-.1 0-.1-.1c-.1-.1-.2-.2 0-.2-.1 0-.1.1-.2.1s-.2.2-.4.2c0-.1.3-.4.4-.4.2-.1.6.1.7-.2 0 0 .3.1.3 0 0 0 0-.1.1-.1 0-.1-.1-.1-.2-.1 0-.1-.1 0-.1 0 0-.1 0-.1-.1-.1 0-.1-.2-.2-.2-.3-.1 0-.2-.3-.2-.3 0 .1-.1.2-.1.2 0 .1-.1 0-.2 0v-.2l-.2-.2c-.2.1 0 0-.2-.1-.1.2-.2 0-.3 0h-.1c0 .1.1.3 0 .3 0 .1.1 0 .1.1.1.1 0 .2 0 .3.2.1-.1.2-.1.1-.1 0-.1.1 0 .2 0 .1 0 .1.1.1 0 .1-.2.1-.2.1 0-.1-.1-.2-.1-.2 0-.1-.2-.3-.2-.2-.1 0-.2 0-.2-.1 0 0-.1 0-.1-.1-.2 0-.2 0-.4-.1 0-.1-.2-.2-.3-.3 0-.2-.1-.4.2-.4l.2-.1c.1-.1.2.1.2-.1 0-.1.1-.2.2-.1 0 .1-.1.3-.2.3.1.1.3 0 .4 0h.2c-.1-.1-.4-.1-.3-.3 0 0 .2 0 .2-.1v-.3h-.2v-.1c0 .1-.1 0-.1 0s.1.1 0 .1c0 .1 0 .2-.2.3 0-.1 0-.3-.1-.3 0 .3-.2-.1-.3-.1 0-.1-.1-.1-.1-.1 0 .1-.1 0-.2.1s0 .1-.1.2c-.1 0-.3-.1-.3 0 .1 0 .1 0 .1.1.1 0-.1.1-.1.1h-.2c-.1 0-.2 0-.3-.1-.1 0-.1-.1-.1-.1l.1-.1h.1c.1 0 .2.1.2-.1h.1c0-.1-.1 0-.2 0v-.1c1.4-1.2 3.2-2 5.2-2 2.1 0 3.9.8 5.4 2.1h-.2c0-.1-.7.1-.8.1-.2 0-.2.1-.3.2 0 0-.4.3-.2.3 0 .2-.6.2-.6.3 0 0-.2 0-.1.1l.1.2c.1 0 .2.1.4.1 0 0 .1 0 .1-.1 0 .1.1.3.1.3 0 .1 0 .2-.1.1v-.2c0-.1-.1 0-.2 0 0 .1 0 .3.1.3 0 .1-.2 0-.3.1-.1 0-.2.2-.2.1-.1.1 0 .2-.2.1v.1c.1 0 0 .1-.1.1 0 .1-.1 0-.1 0 .1.2-.2.1-.2.1-.1 0 0 .1.1.1 0 .1.3.2.1.4 0 0 0 .1.1.1 0 .1-.1.1-.2.1 0-.1 0-.1-.1-.1 0 .1-.2 0-.3.1l-.1-.1c0 .1-.1.5-.1.5 0 .2.1.3.3.3 0 0 .4 0 .4-.1s.1-.1.1-.2.2-.5.2-.5.3.1.4 0c0 0 .1 0 .1-.1.1 0 .1.2.2.2.1.1.2.1.3.2.1 0 .1.2.1.3.1-.1.1-.1.1-.2s.1 0 .2 0c-.1 0 0-.1-.2-.1v-.1c-.2 0-.2-.2-.3-.2 0-.1-.1-.1-.1-.2.1-.1.3.2.4.2l.2.1c.1 0 0 .2 0 .2.1 0 0 0 .1.1s0 .3.2.3c0-.1.2-.2.1-.2 0-.1-.1-.3.1-.3.1 0 .2 0 .2.1s0 .2.1.3c.1.1.3 0 .4.1 0 0 .2.1.2 0h.2c0 .1 0 .2-.1.3 0 .1-.1.1-.1.2-.1 0-.1.1 0 .1 0 .1-.1.1-.2.1 0 .1.2.3.3.3 0 .1.1.2.2.3 0 .1.1.2.1.3 0 .1.3.7.2.7 0 .1.1.1.1.1.1 0 .1.3.3.3 0 0 .2-.1.3-.1 0-.1.3-.2.4-.2 0-.1.4-.2.4-.3l.1-.1v.1c-.5 1.7-.8 2.9-1.3 3.9z"/><path d="M-40.7 44.3c-.2 0-.1 0 0 0-.1-.1-.4-.5-.4-.6l-.1-.2c0-.1-.2-.2-.1-.3-.1-.1-.2-.3-.3-.4-.1-.1-.1-.2-.1-.3-.1 0-.2-.2-.2-.3-.1 0-.1-.1-.2-.1 0-.1-.5-.1-.6-.1 0-.1-.1-.1-.1-.1 0 .1-.3.2-.4.2-.1 0-.2 0-.2-.1h-.2c0-.1-.2-.5-.3-.5-.1 0-.6-.1-.6 0-.1 0-.3.1-.3.2 0 0-.2.1-.2 0-.1 0-.1 0-.1.1-.1 0-.1.1-.2.1s0-.1-.1.1l-.1.3v.1c-.1.1-.1.2-.2.2-.1.1-.1 0-.1.1s-.1.1-.1.2c-.1.2-.1.3-.1.5 0 .1-.1.1-.1.2s.1.2.1.3c-.1 0-.1.2 0 .2 0 .1.2.5.3.6 0 .1.2.3.3.3 0 .1.4.2.4.1.2 0 .8-.1.8.1h.3c0 .1 0 .4-.1.5 0 .1 0 .3.1.3l.1.2c0 .2.1.3.1.6 0 .2-.1.3-.1.5 0 0 0 .4.1.4 0 .2.1.3.1.5l.1.2s.2.5.2.6l.1.2c0 .1.1.2.1.3.1.1.3 0 .4 0 0 0 .4-.1.5-.1l.2-.3c0-.1.3-.4.4-.4l.1-.3c0-.2.1-.4.1-.5 0 0 .1-.2.2-.2l.1-.1c0-.1.1-.2.1-.3.1 0 0-.5 0-.5-.1 0 0-.5 0-.6-.1 0 .3-.4.2-.3 0-.1.2-.2.3-.3.1-.1.2-.2.2-.3.1 0 .1-.1.1-.1s0-.1.1-.1c0-.2.1-.3.1-.4-.1 0-.3.1-.4.1-.2-.5-.3-.5-.3-.5zm-4.2-4.7c.2.1-.1 0-.1 0 0 .1-.1.2 0 .2s.1 0 .1.1c.1 0 .3 0 .4-.1.1 0 .1-.1 0-.1 0 .1 0 .1-.1.1 0-.1 0-.3-.1-.3 0-.1 0-.1-.1-.2s0-.1 0-.2c-.1 0-.1.1-.2.1v-.1s.1-.1 0-.1c0 .2-.2 0-.2.2 0 .1.1.1.1.2.2 0 .2 0 .2.2zm-5.6 3.4c0 .1-.1 0-.2 0 0 .1.2.1.2.1 0 .1.2.1.3.1.1 0 0-.1 0-.2-.2.1-.2 0-.3 0z"/><path d="M-45.5 39.8c.2 0 .3-.1.3-.3.1-.2-.1-.1-.1-.1s-.1-.1-.1 0c0 0 0 .1.1.1 0 0-.3.1-.1.1-.1 0-.1.1-.1.2zm-4.2 3.5c-.1.1 0 0 0 0-.1.1-.2 0-.3 0l.1.1h-.2c0 .1.2.1.2 0h.3l-.1-.1z"/></symbol><symbol id="headphones-deafen" viewBox="-0 0 18 18"><path d="M-53.7 45.5c-.2-.6-.3-1.3-.3-2 0-3.6 2.9-6.5 6.5-6.5.7 0 1.4.1 2 .3l1.2-1.2c-1-.4-2-.7-3.1-.7-4.4 0-8 3.6-8 8 0 1.1.2 2.2.7 3.1l1-1zm12.5-6.9l2.2-2.2-1.4-1.4L-56 50.6l1.4 1.4 1.6-1.6c.1 0 .2.1.3.1h.2v1h2v-3.6l8.2-8.2c.8 1.1 1.3 2.4 1.3 3.8 0 1-.2 1.9-.6 2.7-.2-.1-.4-.1-.6-.1h-.3v-1.6h-2v7h2v-1h.2c1.2 0 2.2-1 2.2-2.2 0-.4-.1-.8-.3-1.2.6-1.1.9-2.3.9-3.6 0-1.8-.6-3.5-1.7-4.9z"/></symbol><symbol id="headphones" viewBox="-0 0 18 18"><path d="M-39.5 43.5c0-4.4-3.6-8-8-8s-8 3.6-8 8c0 1.4.3 2.6.9 3.7-.2.3-.3.7-.3 1.1 0 1.2 1 2.2 2.2 2.2h.2v1h2v-7h-2v1.6h-.2c-.2 0-.5 0-.7.1-.4-.8-.6-1.7-.6-2.7 0-3.6 2.9-6.5 6.5-6.5s6.5 2.9 6.5 6.5c0 1-.2 1.9-.6 2.7-.2-.1-.4-.1-.6-.1h-.3v-1.6h-2v7h2v-1h.2c1.2 0 2.2-1 2.2-2.2 0-.4-.1-.8-.3-1.2.6-1.1.9-2.3.9-3.6z"/></symbol><symbol id="info-circle" viewBox="-0 0 18 18"><path d="M-47.5 34.5c-5 0-9 4-9 9s4 9 9 9 9-4 9-9-4-9-9-9zm-1 3.5h2v2h-2v-2zm3 10.5h-4v-2h1v-3h-1v-2h3v5h1v2z"/></symbol><symbol id="list-prioritize" viewBox="-0 0 18 18"><path d="M-55.5 42.5h3v3h-3zm0 5h3v3h-3zm4.7-13l-3.1 3.2-1.2-1.2-1.4 1.4 2.6 2.6 4.5-4.6zm1.3 3h10v3h-10zm0 5h10v3h-10zm0 5h10v3h-10z"/></symbol><symbol id="info-circle-o" viewBox="-0 0 18 18"><path d="M-47.5 34.5c-5 0-9 4-9 9s4 9 9 9 9-4 9-9-4-9-9-9zm0 17c-4.4 0-8-3.6-8-8s3.6-8 8-8 8 3.6 8 8-3.6 8-8 8z"/><path d="M-48.5 38h2v2h-2zm3 10.5h-4v-2h1v-3h-1v-2h3v5h1z"/></symbol><symbol id="main-office" viewBox="-0 0 18 18"><path d="M-56.5 35h10v1.5h-10zm18 7.5V41h-9v-3.5h-8v15h11v-3h2v3h3v-9h-8v-1h9zm-14 8h-1v-2h1v2zm0-4h-1v-2h1v2zm0-4h-1v-2h1v2zm3 8h-1v-2h1v2zm0-4h-1v-2h1v2zm0-4h-1v-2h1v2zm7 3h1v2h-1v-2zm-3 0h1v2h-1v-2z"/></symbol><symbol id="mic-muted" viewBox="-0 0 18 18"><path d="M-45.5 36.5c0-1.1-.9-2-2-2s-2 .9-2 2v5.7l4-4v-1.7zm-5.5 7.2v-1.2h-1.5v2c0 .2 0 .4.1.6l1.4-1.4zm7 .8c0 1.9-1.6 3.5-3.5 3.5-.9 0-1.8-.4-2.4-1l1-1c.4.3.8.6 1.4.6 1.1 0 2-.9 2-2v-2l5.9-5.9-1.1-1.1-14.7 14.8 1.1 1.1 3.4-3.4c.7.7 1.7 1.2 2.7 1.4V51h-2.2v1.5h6V51h-2.2v-1.6c2.4-.4 4.2-2.4 4.2-4.9v-2H-44v2z"/></symbol><symbol id="home" viewBox="-23.5 57.5 18 18"><path d="M-20.5 68.5v5h5v-3h2v3h5v-5l-6-5z"/><path d="M-8.5 64.1v-3.6h-2v1.9l-4-3.3-9 7.5 1.3 1.5 7.7-6.4 7.7 6.4 1.3-1.5z"/></symbol><symbol id="mic" viewBox="-0 0 18 18"><path d="M-44 42.5v2c0 1.9-1.6 3.5-3.5 3.5s-3.5-1.6-3.5-3.5v-2h-1.5v2c0 2.5 1.9 4.5 4.2 4.9V51h-2.2v1.5h6V51h-2.2v-1.6c2.4-.4 4.2-2.4 4.2-4.9v-2H-44z"/><path d="M-47.5 46.5c1.1 0 2-.9 2-2v-8c0-1.1-.9-2-2-2s-2 .9-2 2v8c0 1.1.9 2 2 2z"/></symbol><symbol id="minus-circle-o" viewBox="-0 0 18 18"><path d="M-47.5 34.5c-5 0-9 4-9 9s4 9 9 9 9-4 9-9-4-9-9-9zm0 17c-4.4 0-8-3.6-8-8s3.6-8 8-8 8 3.6 8 8-3.6 8-8 8z"/><path d="M-52.5 42.5h10v2h-10z"/></symbol><symbol id="ip" viewBox="-0 0 18 18"><path d="M-45 41h2v1.5h-2z"/><path d="M-56.5 36.5v14h18v-14h-18zm8 4.5h-1.8v5h1.8v1.5h-5V46h1.8v-5h-1.8v-1.5h5V41zm7 3H-45v3.5h-1.5v-8h5V44z"/></symbol><symbol id="list" viewBox="-0 0 18 18"><path d="M-55.5 42.5h3v3h-3zm0-5h3v3h-3zm0 10h3v3h-3zm6-10h10v3h-10zm0 5h10v3h-10zm0 5h10v3h-10z"/></symbol><symbol id="minus-circle" viewBox="-0 0 18 18"><path d="M-47.5 34.5c-5 0-9 4-9 9s4 9 9 9 9-4 9-9-4-9-9-9zm5 10h-10v-2h10v2z"/></symbol><symbol id="num-pad" viewBox="-0 0 18 18"><path d="M-54.5 34.5h3v3h-3zm5 0h3v3h-3zm5 0h3v3h-3zm-10 5h3v3h-3zm5 0h3v3h-3zm5 0h3v3h-3zm-10 5h3v3h-3zm5 0h3v3h-3zm0 5h3v3h-3zm5-5h3v3h-3z"/></symbol><symbol id="move-file" viewBox="-0 0 18 18"><style>.st0{display:none}</style><g id="Creative_Commons_License" class="st0"><text id="Creative_Commons_License_1_" font-family="MyriadPro-Regular" font-size="12" transform="translate(-2206.5 1465.544)">With assets by Icomoon / CC BY</text></g><path d="M-56.5 52.5H-42l2.5-8h-14z"/><path d="M-50.5 42.5l-1-2h-5v12l2.2-10zm4.1 0c0-.2-.1-.3-.1-.5 0-1.4 1.1-2.5 2.5-2.5h1.7l-1.6 1.6 1.4 1.4 4-4-4-4-1.4 1.4 1.6 1.6H-44c-2.5 0-4.5 2-4.5 4.5 0 .2 0 .3.1.5h2z"/></symbol><symbol id="multiple-items" viewBox="-0 0 18 18"><path d="M-45.5 34.5h-10v12h1v-11h9z"/><path d="M-51.5 38.5v14h12v-14h-12zm11 13h-10v-12h10v12z"/><path d="M-42.5 36.5h-11v13h1v-12h10z"/></symbol><symbol id="park-circle-o" viewBox="-0 0 18 18"><path d="M-47.5 34.5c-5 0-9 4-9 9s4 9 9 9 9-4 9-9-4-9-9-9zm0 17c-4.4 0-8-3.6-8-8s3.6-8 8-8 8 3.6 8 8-3.6 8-8 8z"/><path d="M-48.5 45.5v3h-2v-10h4c1.5 0 3 1.4 3 3.5s-1.5 3.5-3 3.5h-2zm0-2h1.5c.5 0 1.5-.3 1.5-1.5 0-1.3-1-1.5-1.5-1.5h-1.5v3z"/></symbol><symbol id="pause-circle" viewBox="-.5 .5 18 18"><path d="M8.5.5c-5 0-9 4-9 9s4 9 9 9 9-4 9-9-4-9-9-9zm-1 14h-2v-10h2v10zm4 0h-2v-10h2v10z"/></symbol><symbol id="number" viewBox="-0 0 18 18"><path d="M-39.5 41.5v-2h-4v-4h-2v4h-4v-4h-2v4h-4v2h4v4h-4v2h4v4h2v-4h4v4h2v-4h4v-2h-4v-4h4zm-6 4h-4v-4h4v4z"/></symbol><symbol id="park-circle" viewBox="-0 0 18 18"><path d="M-47 40.5h-1.5v3h1.5c.5 0 1.5-.3 1.5-1.5 0-1.3-1-1.5-1.5-1.5z"/><path d="M-47.5 34.5c-5 0-9 4-9 9s4 9 9 9 9-4 9-9-4-9-9-9zm1 11h-2v3h-2v-10h4c1.5 0 3 1.4 3 3.5s-1.5 3.5-3 3.5z"/></symbol><symbol id="pause-circle-o" viewBox="-0 0 18 18"><path d="M-47.5 34.5c-5 0-9 4-9 9s4 9 9 9 9-4 9-9-4-9-9-9zm0 17c-4.4 0-8-3.6-8-8s3.6-8 8-8 8 3.6 8 8-3.6 8-8 8z"/><path d="M-50.5 38.5h2v10h-2zm4 0h2v10h-2z"/></symbol><symbol id="pbx" viewBox="-0 0 18 18"><path d="M-48.6 44.5c-.9-.9-1.2-2-1.1-2.1l.9-1.3-.8-2.2s-.1-.2-.2-.3c-.1-.1-1.1-.3-1.7.3-1.4 1.4-1.8 3 1.9 6.6l.1.1c3.7 3.7 5.3 3.3 6.6 1.9.5-.5.3-1.6.3-1.7-.1-.1-.3-.2-.3-.2l-2.2-.8-1.3.9c-.1.1-1.1-.1-2.2-1.2zm-.9-10h-7v7h1.5V36h5.5zm11 7v-7h-7V36h5.5v5.5zm-7 11h7v-7H-40V51h-5.5zm-11-7v7h7V51H-55v-5.5z"/></symbol><symbol id="phone-inbound" viewBox="-0 0 18 18"><path d="M-40.5 41.5h-3.6l4.4-4.4-1.4-1.4-4.4 4.3v-3.5h-2v7h7z"/><path d="M-50.7 46.4c-1.4-1.4-1.8-3-1.7-3.1l1.4-2-1.2-3.3s-.1-.3-.3-.4c-.1-.1-1.7-.4-2.5.4-2.1 2.1-2.7 4.5 2.8 10l.2.2c5.5 5.5 7.9 4.9 10 2.8.8-.8.5-2.4.4-2.5-.1-.1-.4-.3-.4-.3l-3.3-1.2-2 1.4c-.1.1-1.7-.2-3.1-1.7l-.3-.3z"/></symbol><symbol id="phone-answer" viewBox="-0 0 18 18"><path d="M-47.3 37.5c2 0 3.3.8 3.3 1l.4 2.4 3.1 1.5s.3.1.5.1 1.5-.9 1.5-2c0-2.9-1.2-5-8.8-5h-.3c-7.6 0-8.8 2.1-8.8 5 0 1.1 1.3 2 1.5 2 .2 0 .5-.1.5-.1l3.1-1.5.4-2.4c0-.2 1.3-1 3.3-1h.3zM-51.1 49l2.6-2.6v6.1h2v-6.1l2.6 2.6 1.4-1.5-5-5-5 5z"/></symbol><symbol id="phone-outbound" viewBox="-0 0 18 18"><path d="M-46.5 37.5h3.6l-4.4 4.4 1.4 1.4 4.4-4.3v3.5h2v-7h-7zm-4.2 8.9c-1.4-1.4-1.8-3-1.7-3.1l1.4-2-1.2-3.3s-.1-.3-.3-.4c-.1-.1-1.7-.4-2.5.4-2.1 2.1-2.7 4.5 2.8 10l.2.2c5.5 5.5 7.9 4.9 10 2.8.8-.8.5-2.4.4-2.5-.1-.1-.4-.3-.4-.3l-3.3-1.2-2 1.4c-.1.1-1.7-.2-3.1-1.7l-.3-.3z"/></symbol><symbol id="phone-hangup" viewBox="-0 0 18 18"><path d="M-47.3 37.5c2 0 3.3.8 3.3 1l.4 2.4 3.1 1.5s.3.1.5.1 1.5-.9 1.5-2c0-2.9-1.2-5-8.8-5h-.3c-7.6 0-8.8 2.1-8.8 5 0 1.1 1.3 2 1.5 2 .2 0 .5-.1.5-.1l3.1-1.5.4-2.4c0-.2 1.3-1 3.3-1h.3zm3.4 8.5l-2.6 2.6v-6.1h-2v6.1l-2.6-2.6-1.4 1.5 5 5 5-5z"/></symbol><symbol id="phone-missed" viewBox="-0 0 18 18"><path d="M-50.7 46.4c-1.4-1.4-1.8-3-1.7-3.1l1.4-2-1.2-3.3s-.1-.3-.3-.4c-.1-.1-1.7-.4-2.5.4-2.1 2.1-2.7 4.5 2.8 10l.2.2c5.5 5.5 7.9 4.9 10 2.8.8-.8.5-2.4.4-2.5-.1-.1-.4-.3-.4-.3l-3.3-1.2-2 1.4c-.1.1-1.7-.2-3.1-1.7l-.3-.3zm10-2.7l-2.8-2.8-2.8 2.8-1.4-1.4 2.8-2.8-2.8-2.8 1.4-1.4 2.8 2.8 2.8-2.8 1.4 1.4-2.8 2.8 2.8 2.8z"/></symbol><symbol id="pie-chart-full" viewBox="-0 0 18 18"><path d="M-47.5 52.5c5 0 9-4 9-9s-4-9-9-9-9 4-9 9 4 9 9 9zm0-17c4.4 0 8 3.6 8 8s-3.6 8-8 8-8-3.6-8-8 3.6-8 8-8z"/><circle cx="-47.5" cy="43.5" r="6.5"/></symbol><symbol id="play-circle-o" viewBox="-0 0 18 18"><path d="M-47.5 34.5c-5 0-9 4-9 9s4 9 9 9 9-4 9-9-4-9-9-9zm0 17c-4.4 0-8-3.6-8-8s3.6-8 8-8 8 3.6 8 8-3.6 8-8 8z"/><path d="M-50.5 39l8 4.5-8 4.5z"/></symbol><symbol id="play-circle" viewBox="-0 0 18 18"><path d="M-47.5 34.5c-5 0-9 4-9 9s4 9 9 9 9-4 9-9-4-9-9-9zm-3 13.5v-9l8 4.5-8 4.5z"/></symbol><symbol id="pie-chart-partial" viewBox="-0 0 18 18"><path d="M-47.5 43.5l4.1 5c-1.1.9-2.6 1.5-4.1 1.5-3.6 0-6.5-2.9-6.5-6.5s2.9-6.5 6.5-6.5v6.5z"/><path d="M-47.5 52.5c5 0 9-4 9-9s-4-9-9-9-9 4-9 9 4 9 9 9zm0-17c4.4 0 8 3.6 8 8s-3.6 8-8 8-8-3.6-8-8 3.6-8 8-8z"/></symbol><symbol id="porting" viewBox="-0 0 18 18"><path d="M-53.5 41.5v-6h14v14h-6v1h7v-16h-16v7z"/><path d="M-50.5 39.5v2h3.5l-3 3h-6.5v8h8V46l3-3v3.5h2v-7z"/></symbol><symbol id="plus-circle-o" viewBox="-0 0 18 18"><path d="M-47.5 34.5c-5 0-9 4-9 9s4 9 9 9 9-4 9-9-4-9-9-9zm0 17c-4.4 0-8-3.6-8-8s3.6-8 8-8 8 3.6 8 8-3.6 8-8 8z"/><path d="M-42.5 42.5h-4v-4h-2v4h-4v2h4v4h2v-4h4z"/></symbol><symbol id="question-circle-o" viewBox="-0 0 18 18"><path d="M-48.5 46.5h2v2h-2zm4-5c0-1.7-1.3-3-3-3s-3 1.3-3 3h2c0-.6.4-1 1-1s1 .4 1 1-.4 1-1 1l-1 1v2h2v-1.2c1.2-.4 2-1.5 2-2.8z"/><path d="M-47.5 35.5c4.4 0 8 3.6 8 8s-3.6 8-8 8-8-3.6-8-8 3.6-8 8-8m0-1c-5 0-9 4-9 9s4 9 9 9 9-4 9-9-4-9-9-9z"/></symbol><symbol id="question-circle" viewBox="-0 0 18 18"><path d="M-47.5 34.5c-5 0-9 4-9 9s4 9 9 9 9-4 9-9-4-9-9-9zm1 14h-2v-2h2v2zm0-4.2v1.2h-2v-2l1-1c.6 0 1-.4 1-1s-.4-1-1-1-1 .4-1 1h-2c0-1.7 1.3-3 3-3s3 1.3 3 3c0 1.3-.8 2.4-2 2.8z"/></symbol><symbol id="service-providers" viewBox="-0 0 18 18"><path d="M-38.6 45.7c-.5-.8-1.7-.2-2.2.1 0 0 .1-.6-.3-.8-.4-.2-1.3 0-1.7.5 0 0-.4-.6-.9-.6s-2.2 1.2-2.7 1.6c1.1 0 3-.3 3 1.5 0 1-.6 1.5-2.6 1.5h-2.3c-.2-.1-1.3-.3-2.2-1.4 0 0 1.3.4 2.4.4h2.7s1 .1 1-.5c0-.5-1-.5-1-.5s-2.7 0-4-1.6c-.6-.6-1.1-1.4-1.9-1.4-2.2-.1-3.2 1.9-5.2 1.9l1 5.1s1.9-1 3-1c.9 0 3.8 2 5 2 2.3 0 8.3-5.3 8.3-5.3s1.1-.7.6-1.5zm-12.9-11.2h2v2h-2zm3 0h2v2h-2zm3 0h2v2h-2zm-6 3h2v2h-2zm3 0h2v2h-2zm3 0h2v2h-2zm-6 3h2v2h-2zm3 0h2v2h-2zm3 0h2v2h-2z"/></symbol><symbol id="plus-circle" viewBox="-0 0 18 18"><path d="M-47.5 34.5c-5 0-9 4-9 9s4 9 9 9 9-4 9-9-4-9-9-9zm5 10h-4v4h-2v-4h-4v-2h4v-4h2v4h4v2z"/></symbol><symbol id="root-level" viewBox="-0 0 18 18"><path d="M-47.5 45.5l-8-5 8-5 8 5z"/><path d="M-47.5 47.5l-8-5v1l8 5 8-5v-1z"/><path d="M-47.5 50.5l-8-5v1l8 5 8-5v-1z"/></symbol><symbol id="setting-cog-double" viewBox="-0 0 18 18"><path d="M-51.8 42.4c-.6-.4-1-1.1-1-1.9 0-1.2 1-2.2 2.2-2.2.8 0 1.5.4 1.9 1l1 .2 2-2.8-1.1-1.1-1.3 1c-.5-.3-.9-.4-1.4-.5l-.3-1.6h-1.5l-.3 1.6c-.5.1-.9.2-1.3.5l-1.3-1-1.1 1.1 1 1.3c-.3.5-.5.9-.6 1.4l-1.6.3v1.5l1.6.3c.1.5.3 1 .5 1.4l-1 1.4 1.1 1.1 2.8-2.1-.3-.9z"/><path d="M-38.5 46.8v-1.6l-1.8-.3c-.2-.5-.3-1.1-.6-1.5l1.1-1.5-1.1-1.1-1.5 1.1c-.4-.2-1-.5-1.5-.6l-.3-1.8h-1.6l-.3 1.8c-.5.1-1 .3-1.5.6l-1.4-1.1-1.2 1.1 1.1 1.5c-.2.5-.5 1-.6 1.5l-1.8.3v1.6l1.8.3c.2.5.3 1.1.6 1.5l-1.1 1.5 1.1 1.1 1.5-1.1c.4.2 1 .5 1.5.6l.3 1.8h1.6l.3-1.8c.5-.2 1.1-.3 1.5-.6l1.5 1.1 1.1-1.1-1.1-1.5c.2-.4.5-1 .6-1.5l1.8-.3zm-6.5 1.7c-1.4 0-2.5-1.1-2.5-2.5s1.1-2.5 2.5-2.5 2.5 1.1 2.5 2.5-1.1 2.5-2.5 2.5z"/></symbol><symbol id="service-plan" viewBox="-0 0 18 18"><path d="M-43.5 35.5v1h2v15h-12v-15h2v-1h-3v17h14v-17z"/><path d="M-51.5 40.5h4v2h-4zm0 6h6v2h-6zm5-11v-1h-2v1h-2v2h6v-2zm-5 8h8v2h-8z"/></symbol><symbol id="speaking" viewBox="-0 0 18 18"><path d="M-54.6 38.3s1.4-1.1 4.5-.8c0 0 2.2.3 3.1 2.1 0 0 .3.6.4 1 0 .5.1.6.1.8.1.3-.1.7-.1.8 0 .1-.1.4.1.6.2.3.7 1 .8 1.1.1.1.3.5.2.7s-.8.3-.7.5c0 .2.1.4.1.6-.1.2-1 .2-1 .4s1 .3.8.5c-.1.1-.2.3-.1.7.1.5-.2 1-.7 1.1-.5.1-1.8.1-2 .6-.2.5-.2 1.5-.2 1.5h-5.9s.8-1.5.3-3.8-2-1.8-1.5-5.4c0 0 .3-1.8 1.8-3zm10.1 7.2h1v3h-1zm2-1h1v5h-1zm2-1h1v7h-1z"/></symbol><symbol id="setting-cog" viewBox="-0 0 18 18"><path d="M-39.5 44.5v-2l-2.2-.4c-.2-.6-.4-1.3-.7-1.8l1.3-1.8-1.4-1.4-1.8 1.3c-.5-.3-1.2-.6-1.8-.7l-.4-2.2h-2l-.4 2.2c-.6.1-1.2.4-1.8.7l-1.7-1.3-1.5 1.4 1.3 1.8c-.3.6-.6 1.2-.7 1.8l-2.2.4v2l2.2.4c.2.6.4 1.3.7 1.8l-1.3 1.8 1.4 1.4 1.8-1.3c.5.3 1.2.6 1.8.7l.4 2.2h2l.4-2.2c.6-.2 1.3-.4 1.8-.7l1.8 1.3 1.4-1.4-1.3-1.8c.3-.5.6-1.2.7-1.8l2.2-.4zm-8 2c-1.7 0-3-1.3-3-3s1.3-3 3-3 3 1.3 3 3-1.3 3-3 3z"/></symbol><symbol id="unassign" viewBox="-0 0 18 18"><path d="M-47.5 37.5h4.5l-6.5 6.5 1.5 1.5 6.5-6.5v4.5h2v-8h-8z"/><path d="M-42.5 46.5v5h-13v-13h5v-1h-6v15h15v-6z"/></symbol><symbol id="two-way" viewBox="-0 0 18 18"><path d="M-40.5 42.5v-2h-9.2l2.6-2.6-1.5-1.4-5.9 6zm-14 2v2h9.2l-2.6 2.6 1.5 1.4 5.9-6z"/></symbol><symbol id="upgrade" viewBox="-0 0 18 18"><path d="M-51.1 44.9l2.6-2.6v6.2h2v-6.2l2.6 2.6 1.4-1.5-5-4.9-5 4.9zm-3.4-10.4h14v2h-14zm4 16h6v2h-6z"/></symbol><symbol id="upload" viewBox="-0 0 18 18"><path d="M-51.1 41.9l2.6-2.6v8.2h2v-8.2l2.6 2.6 1.4-1.5-5-4.9-5 4.9z"/><path d="M-39.5 49.5v-3h-2v3h-12v-3h-2v5h16z"/></symbol><symbol id="user-admin" viewBox="-.5 .5 18 18"><circle cx="8.5" cy="5.5" r="4"/><path d="M8.5 10.5l-2 2 2 5 2-5zm5.2-1l-3.2 8h6v-8h-2.8zm1.8 5h-2v-1h2v1zm-15-5v8h6l-3.2-8z"/></symbol><symbol id="user" viewBox="-0 0 18 18"><path d="M-42.9 42.5c-1 1.5-2.7 2.5-4.6 2.5-1.9 0-3.6-1-4.6-2.5-.5.1-3.4 1-3.4 6 0 2.7 4 3 8 3s8-.3 8-3c0-5-2.9-5.9-3.4-6z"/><circle cx="-47.5" cy="39.5" r="4"/></symbol><symbol id="user-plus" viewBox="-.5 .5 18 18"><circle cx="7.5" cy="4.5" r="4"/><path d="M17.5 15.5h-3v3h-2v-3h-3v-2h3v-3h2v3h3z"/><path d="M7.5 10c-1.899 0-3.6-1-4.6-2.5-.5.1-3.4 1-3.4 6 0 2.7 4 3 8 3h1v-4h3V8.2c-1 1.1-2.399 1.8-4 1.8z"/></symbol><symbol id="warning-triangle-o" viewBox="-0 0 18 18"><path d="M-47.5 35.7l7.9 15.5c.1.2.1.3.1.3s-.1.1-.3.1h-15.7s0-.1.1-.3l7.9-15.6m0-1.2c-.3 0-.6.2-.9.7l-7.9 15.5c-.5 1 0 1.8 1.1 1.8h15.4c1.1 0 1.6-.8 1.1-1.8l-7.9-15.5c-.2-.5-.6-.7-.9-.7z"/><path d="M-48.5 47.5h2v2h-2zm0-6h2v5h-2z"/></symbol><symbol id="user-group-admin" viewBox="1.5 17.5 18 18"><path d="M35.5 18.5c-1.4 0-2.5 1.1-2.5 2.5 0 .3.1.6.2.9.7.3 1.3.9 1.7 1.5.2 0 .4.1.6.1 1.4 0 2.5-1.1 2.5-2.5s-1.1-2.5-2.5-2.5zm-7.4 4.9c.4-.7 1-1.2 1.7-1.5.1-.3.2-.6.2-.9 0-1.4-1.1-2.5-2.5-2.5S25 19.6 25 21s1.1 2.5 2.5 2.5c.2 0 .4 0 .6-.1zm-.4 3.3c-.1-.4-.2-.8-.2-1.3 0-.4.1-.7.2-1.1h-.2c-1.2 0-2.3-.6-2.9-1.6-.3.1-2.1.6-2.1 3.7 0 1.3 1.3 1.7 3 1.8.7-.8 1.6-1.3 2.2-1.5zm10.7-3.8c-.6.9-1.7 1.6-2.9 1.6h-.2c.1.3.2.7.2 1.1 0 .5-.1.9-.2 1.3.7.2 1.5.7 2.2 1.6 1.7-.1 3-.6 3-1.8 0-3.2-1.8-3.8-2.1-3.8z"/><circle cx="10.5" cy="25.5" r="3"/><path d="M10.5 29.4L9 30.8l1.5 3.6 1.5-3.6zm3.8-.9l-2.5 6h4.6v-6h-2.1zm1.2 3.7H14v-.8h1.5v.8zm-11-3.7v6h4.6l-2.4-6z"/><circle cx="31.5" cy="25.5" r="3"/><path d="M31.5 29.4L30 30.8l1.5 3.6 1.6-3.6zm3.8-.9l-2.5 6h4.6v-6h-2.1zm1.2 3.7H35v-.8h1.5v.8zm-11-3.7v6h4.6l-2.4-6zm-11-10c-1.4 0-2.5 1.1-2.5 2.5 0 .3.1.6.2.9.1.1.3.1.4.2 0 0 .1 0 .1.1h.1c.2.1.4.3.5.4.2.2.3.3.4.5 0 .1.1.1.1.2v.1c.2.1.4.1.6.1 1.4 0 2.5-1.1 2.5-2.5s-1-2.5-2.4-2.5zm-7.4 4.9l.1-.1c.4-.6 1-1.1 1.6-1.4.1-.3.2-.6.2-.9 0-1.4-1.1-2.5-2.5-2.5S4 19.6 4 21s1.1 2.5 2.5 2.5c.2 0 .4 0 .6-.1zm7.3 1.1c.1.2.1.4.1.6v.4c0 .2 0 .5-.1.7 0 .1 0 .2-.1.3 0 .1-.1.2-.1.3-.1.3-.2.5-.3.7h3.6v1h2v-4h-5.1zm-7.7 2.3c0-.1-.1-.2-.1-.3 0-.1 0-.2-.1-.3 0-.2-.1-.4-.1-.7v-.4c0-.2.1-.4.1-.6h-5v4h2v-1h3.6c-.2-.2-.3-.5-.4-.7z"/></symbol><symbol id="warning-triangle" viewBox="-0 0 18 18"><path d="M-38.7 50.7l-7.9-15.5c-.2-.5-.6-.7-.9-.7s-.6.2-.9.7l-7.9 15.5c-.5 1 0 1.8 1.1 1.8h15.4c1.1 0 1.6-.8 1.1-1.8zm-7.8-1.2h-2v-2h2v2zm0-3h-2v-5h2v5z"/></symbol><symbol id="x-circle-o" viewBox="-0 0 18 18"><path d="M-47.5 34.5c-5 0-9 4-9 9s4 9 9 9 9-4 9-9-4-9-9-9zm0 17c-4.4 0-8-3.6-8-8s3.6-8 8-8 8 3.6 8 8-3.6 8-8 8z"/><path d="M-44.7 47.7l-2.8-2.8-2.8 2.8-1.4-1.4 2.8-2.8-2.8-2.8 1.4-1.4 2.8 2.8 2.8-2.8 1.4 1.4-2.8 2.8 2.8 2.8z"/></symbol><symbol id="voicemail" viewBox="0 0 18 18"><switch><g><path d="M14 5a4 4 0 0 0-4 4c0 .732.211 1.409.555 2h-3.11A3.958 3.958 0 0 0 8 9a4 4 0 1 0-4.001 4l10.007-.001A4 4 0 0 0 14 5zM3.981 11.019a2 2 0 1 1 .002-4.002 2 2 0 0 1-.002 4.002zm10-.001a2 2 0 1 1 .001-4.001 2 2 0 0 1-.001 4.001z"/></g></switch></symbol><symbol id="user-group" viewBox="1.5 17.5 18 18"><path d="M14.5 18.5c-1.4 0-2.5 1.1-2.5 2.5 0 .3.1.6.2.9.7.3 1.3.9 1.7 1.5.2 0 .4.1.6.1 1.4 0 2.5-1.1 2.5-2.5s-1.1-2.5-2.5-2.5zm-7.4 4.9c.4-.7 1-1.2 1.7-1.5.1-.3.2-.6.2-.9 0-1.4-1.1-2.5-2.5-2.5S4 19.6 4 21s1.1 2.5 2.5 2.5c.2 0 .4 0 .6-.1z"/><ellipse cx="10.5" cy="25.5" rx="3" ry="3"/><path d="M14 27.7c-.8 1.1-2 1.9-3.5 1.9-1.4 0-2.7-.8-3.5-1.9-.4.1-2.5.8-2.5 4.5 0 2 3 2.3 6 2.3s6-.2 6-2.3c0-3.8-2.2-4.5-2.5-4.5zm-7.3-1c-.1-.4-.2-.8-.2-1.3 0-.4.1-.7.2-1.1h-.2c-1.2 0-2.3-.6-2.9-1.6-.3.1-2.1.6-2.1 3.7 0 1.3 1.3 1.7 3 1.8.7-.8 1.6-1.3 2.2-1.5zm10.7-3.8c-.6.9-1.7 1.6-2.9 1.6h-.2c.1.3.2.7.2 1.1 0 .5-.1.9-.2 1.3.7.2 1.5.7 2.2 1.6 1.7-.1 3-.6 3-1.8 0-3.2-1.8-3.8-2.1-3.8z"/></symbol><symbol id="x-circle" viewBox="-0 0 18 18"><path d="M-41.2 37.1c-3.5-3.5-9.2-3.5-12.7 0s-3.5 9.2 0 12.7 9.2 3.5 12.7 0 3.5-9.1 0-12.7zm-3.6 10.6l-2.8-2.8-2.8 2.8-1.4-1.4 2.8-2.8-2.8-2.8 1.4-1.4 2.8 2.8 2.8-2.8 1.4 1.4-2.8 2.8 2.8 2.8-1.4 1.4z"/></symbol></svg>