<?xml version="1.0" encoding="utf-8"?>
<!-- Generator: Adobe Illustrator 16.0.4, SVG Export Plug-In . SVG Version: 6.00 Build 0)  -->
<!DOCTYPE svg PUBLIC "-//W3C//DTD SVG 1.1//EN" "http://www.w3.org/Graphics/SVG/1.1/DTD/svg11.dtd">
<svg version="1.1" id="Layer_1" xmlns="http://www.w3.org/2000/svg" xmlns:xlink="http://www.w3.org/1999/xlink" x="0px" y="0px"
	 width="16px" height="16px" viewBox="0.5 16.5 16 16" enable-background="new 0.5 16.5 16 16" xml:space="preserve">
<g>
	<ellipse cx="8.5" cy="19.5" rx="6" ry="3"/>
	<path d="M8.5,24.499c-3.312,0-6-1.343-6-3v3c0,1.657,2.688,3,6,3s6-1.343,6-3v-3C14.5,23.156,11.812,24.499,8.5,24.499z"/>
	<path d="M8.5,29.5c-3.312,0-6-1.344-6-3v3c0,1.656,2.688,3,6,3s6-1.344,6-3v-3C14.5,28.156,11.812,29.5,8.5,29.5z"/>
</g>
</svg>
