<?xml version="1.0" encoding="utf-8"?>
<!-- Generator: Adobe Illustrator 16.0.4, SVG Export Plug-In . SVG Version: 6.00 Build 0)  -->
<!DOCTYPE svg PUBLIC "-//W3C//DTD SVG 1.1//EN" "http://www.w3.org/Graphics/SVG/1.1/DTD/svg11.dtd">
<svg version="1.1" id="Layer_1" xmlns="http://www.w3.org/2000/svg" xmlns:xlink="http://www.w3.org/1999/xlink" x="0px" y="0px"
	 width="233px" height="75px" viewBox="0 0 233 75" enable-background="new 0 0 233 75" xml:space="preserve">
<g>
	<path fill="#8F35F1" d="M24.9,53.8c0.3,0,0.7-0.1,1-0.1c0-0.101,0-0.2,0-0.2c1.2-1.5,2.9-0.3,2.9-0.3l4.1-5.5
		c0,0-0.2-0.4-0.3-0.601c-0.1,0-0.3-0.1-0.4-0.1c-1.4-0.6-1.9-0.5-1.9-0.5c-0.3,0-0.6,0.1-0.9,0.1l0.3,1c0,0-4.2,5.7-4.6,6.101
		C25,53.7,24.9,53.8,24.9,53.8z"/>
	<path fill="#8F35F1" d="M36.8,49.6C36,49.1,34.4,47.2,34.4,47.2s-0.3,0-0.7,0l-0.1,0.6l-4,5.4c2.7-0.3,5.4-0.7,8.3-1.3
		C37.6,50.9,37.1,49.9,36.8,49.6z"/>
	<path fill="#8F35F1" d="M21.4,54l0.2-0.4c0.4-0.8,1.2-0.8,1.6-0.6c0.4,0.2,0.9,0.4,1,0.3c1.4-1,4.6-5.6,4.6-5.6l-0.9-0.9
		C26.8,46.7,26,46.4,24.7,45.4C22.5,43.9,24,44.8,19.5,42.6c-4.5-2.199-3.9-6.8-3.7-7.2c0.2-0.4,0.8-3,0.8-4.9c0-1.8,1-6.7,1-6.7
		c0.5-2.7,1.8-4.3,3.8-4.4s2.7,1.6,2.7,1.6h3.5c0,0-2.3,1.9-2.9,2.7c-0.6,0.8-1.2,2.5-0.4,4.1c0.8,1.6,2.2,1.4,2.2,1.4
		s1.3-0.2,3.1,1.3c1.7,1.5,4.6,5.7,5,6.3c0.4,0.6,0.8,1.1,2.1,2.7c1.3,1.6,2.3,4.4,2.6,5.6c0.4,1.2,0.3,1.301,0.7,1.801
		c0.4,0.6,0.2,0.699,0.2,0.699C40,47.8,39.7,47.4,39.7,47.4S39.4,47.1,39.3,47c-0.1-0.1-0.4-0.1-0.4,0.1c0,0.301,0.4,1.2,0.4,1.2
		c0.1,0.5,0.7,1.7,1.3,2.9C61.2,46.8,73,38.4,75,36.9C74.7,16.5,58,0,37.5,0C16.8,0,0,16.8,0,37.5c0,5.8,1.3,11.3,3.7,16.3
		C10.5,54.2,21.4,54,21.4,54z"/>
	<path fill="#8F35F1" d="M14,66.7c6.4,5.2,14.6,8.3,23.5,8.3c18.2,0,33.4-13,36.8-30.2C66.5,50.9,46.7,63.8,14,66.7z"/>
	<path fill="#8F35F1" d="M15.3,64.6C49.5,61.1,69,46.8,74.8,41.9C74.9,41.1,75,40.3,75,39.4C71,42.2,59.6,49.1,41.4,53.1
		c0.6,1,1.1,1.9,1.3,2.2c0.6,0.8,0.8,1.4,0.2,1.3c-0.6-0.1-1.5-1.1-1.9-1.5c-0.4-0.399-0.5,0.301-0.5,1.5c0,1.2-0.9,1.601-1.2-0.199
		C39.2,55.8,39,54.8,38.6,53.7C31.2,55.1,22.7,56.1,13.2,56.1c-2.7,0-5.5-0.1-8.4-0.3c1.9,3.4,4.3,6.4,7.1,9
		C12.9,64.8,14.1,64.7,15.3,64.6z"/>
</g>
<g>
	<polygon fill="#444444" points="116,23 108,23 105,23 97,23 94,23 94,26 94,31 97,31 97,26 105,26 105,51 101,51 101,54 105,54 
		108,54 112,54 112,51 108,51 108,26 116,26 116,31 119,31 119,26 119,23 	"/>
	<polygon fill="#444444" points="147,51 147,23 147,20 141,20 141,23 144,23 144,51 141,51 141,54 144,54 147,54 150,54 150,51 	"/>
	<path fill="#444444" d="M230,51V41c0,0,0.3-7-6-7c-2.9,0-5.6,2-7,3.2V37v-3h-3h-3v3h3v14h-3v3h3h3h3v-3h-3V39.7
		c1.2-1.4,3.3-3.3,6-3.3c4,0,4,4.7,4,4.7v10h-3v3h3h3h3v-3h-3V51z"/>
	<path fill="#444444" d="M197.2,37.1c4.5,0,6.5,3.5,6.5,7s-2,7-6.5,7s-6.5-3.5-6.5-7S192.7,37.1,197.2,37.1 M197.2,34.1
		c-5.8,0-9.5,4.5-9.5,10s3.7,10,9.5,10s9.5-4.5,9.5-10S203,34.1,197.2,34.1L197.2,34.1z"/>
	<polygon fill="#444444" points="160,51 160,37 160,34 157,34 154,34 154,37 157,37 157,51 154,51 154,54 157,54 160,54 163,54 
		163,51 	"/>
	<circle fill="#444444" cx="158.2" cy="26.3" r="2.2"/>
	<path fill="#444444" d="M183.3,37.5L183.3,37.5L183.3,37.5c-0.1-0.1-0.1-0.1-0.1-0.2c0,0,0,0-0.101,0c-1.6-1.9-4-3.1-6.899-3.1
		c-5.7,0-9.3,4.5-9.3,10c0,6.7,4.6,10,10.199,10c3,0,4.5-1.2,5.9-2.101v-3.3c-1,1.4-3.6,2.4-5.9,2.4c-4.399,0-7.3-2.2-7.3-7
		c0-3.5,2-7,6.3-7c1.7,0,3.101,0.5,4.101,1.399c-0.3,0.4-0.601,0.9-0.601,1.4c0,1.1,0.9,2,2,2c0.601,0,1.101-0.3,1.5-0.7l0,0
		C184.2,40.2,184.3,38.6,183.3,37.5z"/>
	<path fill="#444444" d="M138,44c0-5.5-3.7-9.9-9.5-9.9s-9.5,4.5-9.5,10c0,6.7,4.7,10,10.5,10c3.1,0,5.1-1.199,6.5-2.1v-3.3
		c-1.1,1.399-4.2,2.399-6.5,2.399c-4.2,0-7.1-1.899-7.5-6.1h16V44L138,44z M128.5,37.1c3.6,0,5.6,2.2,6.2,4.9h-12.5
		C122.9,39.4,124.9,37.1,128.5,37.1z"/>
</g>
</svg>
