<svg version="1.1" xmlns="http://www.w3.org/2000/svg" width="294px" height="95px" viewBox="0 0 294 95">
<g class="symbol" fill="#8F35F1">
	<path class="st0" d="M31.5,68.1c0.4,0,0.9-0.1,1.3-0.1c0-0.1,0-0.3,0-0.3c1.5-1.9,3.7-0.4,3.7-0.4l5.2-7c0,0-0.3-0.5-0.4-0.8
		c-0.1,0-0.4-0.1-0.5-0.1c-1.8-0.8-2.4-0.6-2.4-0.6c-0.4,0-0.8,0.1-1.1,0.1l0.4,1.3c0,0-5.3,7.2-5.8,7.7
		C31.7,68,31.5,68.1,31.5,68.1z"/>
	<path class="st0" d="M46.6,62.8c-1-0.6-3-3-3-3s-0.4,0-0.9,0l-0.1,0.8l-5.1,6.8c3.4-0.4,6.8-0.9,10.5-1.6
		C47.6,64.5,47,63.2,46.6,62.8z"/>
	<path class="st0" d="M27.1,68.4l0.3-0.5c0.5-1,1.5-1,2-0.8s1.1,0.5,1.3,0.4c1.8-1.3,5.8-7.1,5.8-7.1l-1.1-1.1
		c-1.4-0.1-2.4-0.5-4.1-1.8c-2.8-1.9-0.9-0.8-6.6-3.5c-5.7-2.8-4.9-8.6-4.7-9.1c0.3-0.5,1-3.8,1-6.2c0-2.3,1.3-8.5,1.3-8.5
		c0.6-3.4,2.3-5.4,4.8-5.6c2.5-0.1,3.4,2,3.4,2H35c0,0-2.9,2.4-3.7,3.4c-0.8,1-1.5,3.2-0.5,5.2c1,2,2.8,1.8,2.8,1.8s1.6-0.3,3.9,1.6
		c2.2,1.9,5.8,7.2,6.3,8c0.5,0.8,1,1.4,2.7,3.4c1.6,2,2.9,5.6,3.3,7.1c0.5,1.5,0.4,1.6,0.9,2.3c0.5,0.8,0.3,0.9,0.3,0.9
		c-0.3,0.3-0.6-0.3-0.6-0.3s-0.4-0.4-0.5-0.5c-0.1-0.1-0.5-0.1-0.5,0.1c0,0.4,0.5,1.5,0.5,1.5c0.1,0.6,0.9,2.2,1.6,3.7
		c26.1-5.6,41-16.2,43.6-18.1C94.6,20.9,73.5,0,47.5,0C21.3,0,0,21.3,0,47.5c0,7.3,1.6,14.3,4.7,20.6C13.3,68.7,27.1,68.4,27.1,68.4
		z"/>
	<path class="st0" d="M17.7,84.5C25.8,91.1,36.2,95,47.5,95c23.1,0,42.3-16.5,46.6-38.3C84.2,64.5,59.2,80.8,17.7,84.5z"/>
	<path class="st0" d="M19.4,81.8c43.3-4.4,68-22.5,75.4-28.8c0.1-1,0.3-2,0.3-3.2c-5.1,3.5-19.5,12.3-42.6,17.4
		c0.8,1.3,1.4,2.4,1.6,2.8c0.8,1,1,1.8,0.3,1.6c-0.8-0.1-1.9-1.4-2.4-1.9c-0.5-0.5-0.6,0.4-0.6,1.9c0,1.5-1.1,2-1.5-0.3
		c-0.1-0.8-0.4-2-0.9-3.4c-9.4,1.8-20.1,3-32.2,3c-3.4,0-7-0.1-10.6-0.4c2.4,4.3,5.4,8.1,9,11.4C16.3,82.1,17.9,82,19.4,81.8z"/>
</g>
<g class="wordmark" fill="#2e2e32">
	<path d="M132,33.4l-8.5,0.3l-1.7,7.8h-3.3l0.8-10.7h30.8l0.6,10.7h-3.1l-1.6-7.8l-8.6-0.3v31.2l7,0.5v2.4h-18.9v-2.4l6.4-0.5V33.4z
		"/>
	<path d="M155.8,64.1c-2.1-2.6-3.1-6.1-3.1-10.4c0-2.9,0.5-5.4,1.6-7.6c1.1-2.2,2.6-3.9,4.6-5c2-1.2,4.2-1.8,6.7-1.8
		c3.1,0,5.4,0.8,7.1,2.5c1.7,1.7,2.6,4.1,2.7,7.3c0,2-0.1,3.5-0.3,4.6h-17c0.1,3.3,0.8,5.9,2.3,7.9c1.5,2,3.5,3,6.2,3
		c1.3,0,2.7-0.2,4.1-0.7c1.4-0.5,2.5-1,3.3-1.7l0.9,2.2c-1,1-2.4,1.8-4.3,2.6c-1.9,0.7-3.8,1.1-5.7,1.1
		C161,68,157.9,66.7,155.8,64.1z M170,51.1c0.1-0.7,0.1-1.4,0.1-2.1c0-2.1-0.5-3.8-1.4-5.1c-0.9-1.2-2.2-1.9-4.1-1.9
		c-1.9,0-3.4,0.7-4.6,2.1c-1.1,1.4-1.8,3.7-2,7H170z"/>
	<path d="M182.8,30.6l-4-0.5V28l8-0.9h0.1l1.1,0.7v36.9l4.2,0.4v2.4h-13.3v-2.4l4-0.4V30.6z"/>
	<path d="M199.7,43.9l-3.8-0.9v-2.6l7.7-0.9h0.1l1.1,0.9v24.4l4,0.4v2.4h-13.1v-2.4l4-0.4V43.9z M199.3,34.2
		c-0.5-0.6-0.8-1.4-0.8-2.3c0-1.1,0.3-1.9,1-2.6c0.6-0.7,1.5-1,2.6-1c1.1,0,1.9,0.3,2.5,0.9c0.5,0.6,0.8,1.4,0.8,2.3
		c0,1.1-0.3,2-1,2.7c-0.6,0.7-1.5,1-2.7,1h0C200.6,35.1,199.8,34.8,199.3,34.2z"/>
	<path d="M212.4,46.5c1.1-2.2,2.7-4,4.7-5.3c2.1-1.3,4.6-2,7.5-2c1.4,0,2.6,0.1,3.7,0.4s2.2,0.6,3.7,1.1l-0.2,7.6h-3.2l-1.1-5
		c-0.2-0.9-1.5-1.4-3.8-1.4c-2.3,0-4.1,0.9-5.5,2.8c-1.3,1.9-2,4.5-2,7.9c0,3.9,0.7,6.8,2.2,8.9c1.5,2,3.5,3,5.9,3
		c1.4,0,2.7-0.2,3.9-0.6c1.2-0.4,2.3-0.9,3.2-1.5l0.9,2c-0.9,0.9-2.2,1.8-3.9,2.5S225,68,223.2,68c-2.7,0-5-0.6-6.8-1.8
		c-1.9-1.2-3.3-2.9-4.2-5c-0.9-2.1-1.4-4.5-1.4-7.2C210.7,51.2,211.3,48.8,212.4,46.5z"/>
	<path d="M237.6,46c1.2-2.2,2.8-3.8,4.8-5c2-1.1,4.1-1.7,6.4-1.7c4.2,0,7.3,1.3,9.4,4c2.1,2.6,3.1,6.1,3.1,10.4c0,3-0.6,5.6-1.8,7.8
		c-1.2,2.2-2.8,3.8-4.8,4.9c-2,1.1-4.1,1.7-6.4,1.7c-4.2,0-7.3-1.3-9.4-4c-2.1-2.6-3.1-6.1-3.1-10.4C235.8,50.7,236.4,48.2,237.6,46
		z M253.8,62.4c1.2-1.9,1.8-4.7,1.8-8.4c0-3.7-0.6-6.6-1.7-8.7c-1.1-2.1-2.9-3.2-5.4-3.2c-2.3,0-4,0.9-5.3,2.8
		c-1.2,1.9-1.9,4.7-1.9,8.4c0,3.7,0.6,6.6,1.7,8.7c1.2,2.1,2.9,3.2,5.4,3.2C250.8,65.2,252.6,64.3,253.8,62.4z"/>
	<path d="M267.7,43.9l-3.6-0.9v-2.7l7.1-0.9h0.1l1,0.9v2.1l0,1.2c1.2-1.1,2.8-2,4.7-2.9c1.9-0.9,3.8-1.3,5.6-1.3
		c2.1,0,3.7,0.4,4.8,1.2c1.1,0.8,1.9,2,2.4,3.6c0.5,1.6,0.7,3.8,0.7,6.6v13.8L294,65v2.5h-11.7v-2.4l3.1-0.4V50.8
		c0-1.9-0.1-3.5-0.4-4.6c-0.3-1.1-0.8-1.9-1.5-2.5c-0.7-0.5-1.8-0.8-3.2-0.8c-1.2,0-2.5,0.3-3.8,0.9c-1.4,0.6-2.6,1.3-3.6,2.1v18.7
		l3.4,0.4v2.4h-11.7v-2.4l3.1-0.4V43.9z"/>
</g>
</svg>
