<?xml version="1.0" encoding="utf-8"?>
<!-- Generator: Adobe Illustrator 23.0.0, SVG Export Plug-In . SVG Version: 6.00 Build 0)  -->
<svg version="1.1" id="Layer_1" xmlns="http://www.w3.org/2000/svg" xmlns:xlink="http://www.w3.org/1999/xlink" x="0px" y="0px"
	 viewBox="0 0 18 18" style="enable-background:new 0 0 18 18;" xml:space="preserve">
<path d="M9,8C7.9,8,7,7.1,7,6s0.9-2,2-2s2,0.9,2,2S10.1,8,9,8z M5,10.5c0-2.5,1.4-2.9,1.7-3C7.2,8.2,8,8.7,9,8.7s1.8-0.5,2.3-1.2
	c0.3,0.1,1.7,0.5,1.7,3c0,1.4-2,1.5-4,1.5S5,11.9,5,10.5z M12,1h4v17H2V1h4v1H3v15h12V2h-3V1z M5,15v-1h8v1H5z M7,2V0h4v2H7z"/>
</svg>
