<?xml version="1.0" encoding="utf-8"?>
<!-- Generator: Adobe Illustrator 16.0.4, SVG Export Plug-In . SVG Version: 6.00 Build 0)  -->
<!DOCTYPE svg PUBLIC "-//W3C//DTD SVG 1.1//EN" "http://www.w3.org/Graphics/SVG/1.1/DTD/svg11.dtd">
<svg version="1.1" id="Layer_1" xmlns="http://www.w3.org/2000/svg" xmlns:xlink="http://www.w3.org/1999/xlink" x="0px" y="0px"
	 width="18px" height="18px" viewBox="-56.5 34.5 18 18" style="enable-background:new -56.5 34.5 18 18;" xml:space="preserve">
<rect x="-49.5" y="34.5" width="4" height="2"/>
<rect x="-51.5" y="48.5" width="8" height="1.5"/>
<polygon points="-44.5,35.5 -44.5,36.5 -41.5,36.5 -41.5,51.5 -53.5,51.5 -53.5,36.5 -50.5,36.5 -50.5,35.5 -54.5,35.5 -54.5,52.5 
	-40.5,52.5 -40.5,35.5 "/>
<path d="M-45.2,42c-0.5,0.7-1.3,1.2-2.3,1.2s-1.8-0.5-2.3-1.2c-0.3,0.1-1.7,0.5-1.7,3c0,1.4,2,1.5,4,1.5s4-0.1,4-1.5
	C-43.5,42.5-44.9,42.1-45.2,42z"/>
<circle cx="-47.5" cy="40.5" r="2"/>
</svg>
