<?xml version="1.0" encoding="utf-8"?>
<!-- Generator: Adobe Illustrator 16.0.4, SVG Export Plug-In . SVG Version: 6.00 Build 0)  -->
<!DOCTYPE svg PUBLIC "-//W3C//DTD SVG 1.1//EN" "http://www.w3.org/Graphics/SVG/1.1/DTD/svg11.dtd">
<svg version="1.1" id="Layer_1" xmlns="http://www.w3.org/2000/svg" xmlns:xlink="http://www.w3.org/1999/xlink" x="0px" y="0px"
	 width="18px" height="18px" viewBox="-56.5 34.5 18 18" style="enable-background:new -56.5 34.5 18 18;" xml:space="preserve">
<style type="text/css">
<![CDATA[
	.st0{display:none;}
]]>
</style>
<g id="Layer_1_1_">
</g>
<g id="Creative_Commons_License" class="st0">
	
		<text id="Creative_Commons_License_1_" transform="matrix(1 0 0 1 -148.5 272.5439)" style="display:inline;fill:#231F20; font-family:'MyriadPro-Regular'; font-size:12;">With assets by Brankic1979 / CC BY</text>
</g>
<path d="M-38.5,36.5v-1h-17l-1,4l0,0v13h18v-13h-16.8l0.8-3H-38.5z M-48.5,42.5v-1h1v1h1.5V44h-2.5c-0.3,0-0.5,0.2-0.5,0.5
	s0.2,0.5,0.5,0.5h1c1.1,0,2,0.9,2,2s-0.9,2-2,2v1h-1v-1H-50v-1.5h2.5c0.3,0,0.5-0.2,0.5-0.5s-0.2-0.5-0.5-0.5h-1c-1.1,0-2-0.9-2-2
	S-49.6,42.5-48.5,42.5z"/>
<rect x="-53.5" y="37.5" width="14" height="1"/>
</svg>
