<?xml version="1.0" encoding="utf-8"?>
<!-- Generator: Adobe Illustrator 23.0.0, SVG Export Plug-In . SVG Version: 6.00 Build 0)  -->
<svg version="1.1" id="Layer_1" xmlns="http://www.w3.org/2000/svg" xmlns:xlink="http://www.w3.org/1999/xlink" x="0px" y="0px"
	 viewBox="0 0 18 18" style="enable-background:new 0 0 18 18;" xml:space="preserve">
<path d="M18,2V1H1L0,5l0,0v13h18V5H1.2L2,2H18z M8,8V7h1v1h1.5v1.5H8c-0.3,0-0.5,0.2-0.5,0.5s0.2,0.5,0.5,0.5h1c1.1,0,2,0.9,2,2
	s-0.9,2-2,2v1H8v-1H6.5V13H9c0.3,0,0.5-0.2,0.5-0.5S9.3,12,9,12H8c-1.1,0-2-0.9-2-2S6.9,8,8,8z"/>
<rect x="3" y="3" width="14" height="1"/>
</svg>
