<?xml version="1.0" encoding="utf-8"?>
<!-- Generator: Adobe Illustrator 16.0.4, SVG Export Plug-In . SVG Version: 6.00 Build 0)  -->
<!DOCTYPE svg PUBLIC "-//W3C//DTD SVG 1.1//EN" "http://www.w3.org/Graphics/SVG/1.1/DTD/svg11.dtd">
<svg version="1.1" id="Layer_1" xmlns="http://www.w3.org/2000/svg" xmlns:xlink="http://www.w3.org/1999/xlink" x="0px" y="0px"
	 width="18px" height="18px" viewBox="-56.5 34.5 18 18" style="enable-background:new -56.5 34.5 18 18;" xml:space="preserve">
<g>
	<path d="M-52.5,39.5h2h3v-3h-3v-2h-2v2l0,0c-2.2,0-4,1.8-4,4s1.8,4,4,4h2c0.2,0,0.4,0.1,0.5,0.2v-3.1c-0.1-0.1-0.3-0.1-0.5-0.1h-2
		c-0.6,0-1-0.4-1-1S-53.1,39.5-52.5,39.5z"/>
	<path d="M-55.5,46.5v3h3l0,0v2h2v-2c0.2,0,0.3,0,0.5,0v-3.1c-0.1,0.1-0.3,0.1-0.5,0.1H-55.5z"/>
</g>
<path d="M-43,43.5c-1.4,0-2.7,0.7-3.5,1.7v-1.7h-2v5h5v-2H-45c0.5-0.6,1.2-1,2-1c1.4,0,2.5,1.1,2.5,2.5s-1.1,2.5-2.5,2.5
	c-0.7,0-1.3-0.3-1.8-0.8l-1.4,1.4c0.8,0.8,2,1.4,3.2,1.4c2.5,0,4.5-2,4.5-4.5S-40.5,43.5-43,43.5z"/>
</svg>
