<?xml version="1.0" encoding="utf-8"?>
<!-- Generator: Adobe Illustrator 23.0.0, SVG Export Plug-In . SVG Version: 6.00 Build 0)  -->
<svg version="1.1" id="Layer_1" xmlns="http://www.w3.org/2000/svg" xmlns:xlink="http://www.w3.org/1999/xlink" x="0px" y="0px"
	 viewBox="0 0 18 18" style="enable-background:new 0 0 18 18;" xml:space="preserve">
<path d="M4,5h5V2H6V0H4v2C1.8,2,0,3.8,0,6s1.8,4,4,4h2c0.2,0,0.4,0.1,0.5,0.2V7.1C6.4,7,6.2,7,6,7H4C3.4,7,3,6.6,3,6S3.4,5,4,5z
	 M1,12v3h3v2h2v-2h0.5v-3.1C6.4,12,6.2,12,6,12H1z M13.5,9c-1.4,0-2.7,0.7-3.5,1.7V9H8v5h5v-2h-1.5c0.5-0.6,1.2-1,2-1
	c1.4,0,2.5,1.1,2.5,2.5S14.9,16,13.5,16c-0.7,0-1.3-0.3-1.8-0.8l-1.4,1.4c0.8,0.8,2,1.4,3.2,1.4c2.5,0,4.5-2,4.5-4.5S16,9,13.5,9z"
	/>
</svg>
