<?xml version="1.0" encoding="utf-8"?>
<!-- Generator: Adobe Illustrator 23.0.0, SVG Export Plug-In . SVG Version: 6.00 Build 0)  -->
<svg version="1.1" id="Layer_1" xmlns="http://www.w3.org/2000/svg" xmlns:xlink="http://www.w3.org/1999/xlink" x="0px" y="0px"
	 viewBox="0 0 18 18" style="enable-background:new 0 0 18 18;" xml:space="preserve">
<path d="M13,10h-2v4h4v-2h-2V10z"/>
<path d="M12.5,7C9.4,7,7,9.4,7,12.5S9.4,18,12.5,18s5.5-2.4,5.5-5.5S15.6,7,12.5,7z M12.5,16c-2,0-3.5-1.5-3.5-3.5S10.5,9,12.5,9
	s3.5,1.5,3.5,3.5S14.5,16,12.5,16z M5.5,12H1v3h3v2h2v-1.8c-0.3-0.8-0.5-1.7-0.5-2.7V12z M4,5h5V2H6V0H4v2C1.8,2,0,3.8,0,6
	s1.8,4,4,4h2c0.4-1,1-1.9,1.7-2.6C7.2,7.2,6.6,7,6,7H4C3.4,7,3,6.6,3,6S3.4,5,4,5z"/>
</svg>
