<?xml version="1.0" encoding="utf-8"?>
<!-- Generator: Adobe Illustrator 23.0.0, SVG Export Plug-In . SVG Version: 6.00 Build 0)  -->
<svg version="1.1" id="Layer_1" xmlns="http://www.w3.org/2000/svg" xmlns:xlink="http://www.w3.org/1999/xlink" x="0px" y="0px"
	 viewBox="0 0 18 18" style="enable-background:new 0 0 18 18;" xml:space="preserve">
<path d="M18,12v-2h-5.2l1.6-1.6L12.9,7L8,12H18z M8,13v2h5.2l-1.6,1.6l1.5,1.4l4.9-5H8z M6,7H4C3.4,7,3,6.6,3,6s0.4-1,1-1h5V2H6V0H4
	v2C1.8,2,0,3.8,0,6s1.8,4,4,4h2c0.5,0,1,0.4,1,1l2.3-2.3C8.5,7.7,7.3,7,6,7z M1,12v3h3v2h2v-2h0.5v-3.1C6.3,12,6.2,12,6,12H1z"/>
</svg>
