<?xml version="1.0" encoding="utf-8"?>
<!-- Generator: Adobe Illustrator 16.0.4, SVG Export Plug-In . SVG Version: 6.00 Build 0)  -->
<!DOCTYPE svg PUBLIC "-//W3C//DTD SVG 1.1//EN" "http://www.w3.org/Graphics/SVG/1.1/DTD/svg11.dtd">
<svg version="1.1" id="Layer_1" xmlns="http://www.w3.org/2000/svg" xmlns:xlink="http://www.w3.org/1999/xlink" x="0px" y="0px"
	 width="18px" height="18px" viewBox="-56.5 34.5 18 18" style="enable-background:new -56.5 34.5 18 18;" xml:space="preserve">
<polygon points="-38.5,46.5 -38.5,44.5 -43.7,44.5 -42.1,42.9 -43.6,41.5 -48.5,46.5 "/>
<polygon points="-48.5,47.5 -48.5,49.5 -43.3,49.5 -44.9,51.1 -43.4,52.5 -38.5,47.5 "/>
<g>
	<path d="M-50.5,41.5h-2c-0.6,0-1-0.4-1-1s0.4-1,1-1h2h3v-3h-3v-2h-2v2l0,0c-2.2,0-4,1.8-4,4s1.8,4,4,4h2c0.5,0,1,0.4,1,1l2.3-2.3
		C-48,42.2-49.2,41.5-50.5,41.5z"/>
	<path d="M-55.5,46.5v3h3l0,0v2h2v-2c0.2,0,0.3,0,0.5,0v-3.1c-0.2,0.1-0.3,0.1-0.5,0.1H-55.5z"/>
</g>
</svg>
