<?xml version="1.0" encoding="utf-8"?>
<!-- Generator: Adobe Illustrator 16.0.4, SVG Export Plug-In . SVG Version: 6.00 Build 0)  -->
<!DOCTYPE svg PUBLIC "-//W3C//DTD SVG 1.1//EN" "http://www.w3.org/Graphics/SVG/1.1/DTD/svg11.dtd">
<svg version="1.1" id="Layer_1" xmlns="http://www.w3.org/2000/svg" xmlns:xlink="http://www.w3.org/1999/xlink" x="0px" y="0px"
	 width="18px" height="18px" viewBox="-56.5 34.5 18 18" style="enable-background:new -56.5 34.5 18 18;" xml:space="preserve">
<g>
	<polygon points="-43.5,44.5 -45.5,44.5 -45.5,48.5 -41.5,48.5 -41.5,46.5 -43.5,46.5 	"/>
	<path d="M-44,41.5c-3.1,0-5.5,2.4-5.5,5.5s2.4,5.5,5.5,5.5c3.1,0,5.5-2.4,5.5-5.5S-40.9,41.5-44,41.5z M-44,50.5
		c-2,0-3.5-1.5-3.5-3.5s1.5-3.5,3.5-3.5s3.5,1.5,3.5,3.5S-42,50.5-44,50.5z"/>
</g>
<g>
	<path d="M-51,46.5h-4.5v3h3l0,0v2h2v-1.8C-50.8,48.9-51,48-51,47C-51,46.8-51,46.7-51,46.5z"/>
	<path d="M-52.5,39.5h5v-3h-3v-2h-2v2l0,0c-2.2,0-4,1.8-4,4s1.8,4,4,4h2c0.4-1,1-1.9,1.7-2.6c-0.5-0.2-1.1-0.4-1.7-0.4h-2
		c-0.6,0-1-0.4-1-1S-53.1,39.5-52.5,39.5z"/>
</g>
</svg>
