<?xml version="1.0" encoding="utf-8"?>
<!-- Generator: Adobe Illustrator 23.0.0, SVG Export Plug-In . SVG Version: 6.00 Build 0)  -->
<svg version="1.1" id="Layer_1" xmlns="http://www.w3.org/2000/svg" xmlns:xlink="http://www.w3.org/1999/xlink" x="0px" y="0px"
	 viewBox="0 0 18 18" style="enable-background:new 0 0 18 18;" xml:space="preserve">
<path d="M14,12c0-2.2-1.8-4-4-4H8C7.4,8,7,7.6,7,7s0.4-1,1-1h5V3h-3V1H8v2C5.8,3,4,4.8,4,7s1.8,4,4,4h2c0.6,0,1,0.5,1,1s-0.4,1-1,1
	H5v3h3v2h2v-2C12.2,16,14,14.2,14,12z"/>
</svg>
