<?xml version="1.0" encoding="utf-8"?>
<!-- Generator: Adobe Illustrator 16.0.4, SVG Export Plug-In . SVG Version: 6.00 Build 0)  -->
<!DOCTYPE svg PUBLIC "-//W3C//DTD SVG 1.1//EN" "http://www.w3.org/Graphics/SVG/1.1/DTD/svg11.dtd">
<svg version="1.1" id="Layer_1" xmlns="http://www.w3.org/2000/svg" xmlns:xlink="http://www.w3.org/1999/xlink" x="0px" y="0px"
	 width="18px" height="18px" viewBox="-56.5 34.5 18 18" style="enable-background:new -56.5 34.5 18 18;" xml:space="preserve">
<path d="M-42.5,46.5c0-2.2-1.8-4-4-4h-2c-0.6,0-1-0.4-1-1s0.4-1,1-1h2h3v-3h-3v-2h-2v2l0,0c-2.2,0-4,1.8-4,4s1.8,4,4,4h2
	c0.6,0,1,0.5,1,1s-0.4,1-1,1h-2h-3v3h3l0,0v2h2v-2C-44.3,50.5-42.5,48.7-42.5,46.5z"/>
</svg>
