<?xml version="1.0" encoding="utf-8"?>
<!-- Generator: Adobe Illustrator 23.0.0, SVG Export Plug-In . SVG Version: 6.00 Build 0)  -->
<svg version="1.1" id="Layer_1" xmlns="http://www.w3.org/2000/svg" xmlns:xlink="http://www.w3.org/1999/xlink" x="0px" y="0px"
	 viewBox="0 0 18 18" style="enable-background:new 0 0 18 18;" xml:space="preserve">
<path d="M9,4c3.3,0,6,2.7,6,6s-2.7,6-6,6s-6-2.7-6-6S5.7,4,9,4 M9,2c-4.4,0-8,3.6-8,8s3.6,8,8,8s8-3.6,8-8S13.4,2,9,2z"/>
<path d="M10,9V6H8v5h5V9H10z M1,5L0,3.9l3.3-3.3l1.1,1.1L1,5z M18,3.9L17,5l-3.3-3.3l1.1-1.1L18,3.9z"/>
</svg>
