<?xml version="1.0" encoding="utf-8"?>
<!-- Generator: Adobe Illustrator 16.0.4, SVG Export Plug-In . SVG Version: 6.00 Build 0)  -->
<!DOCTYPE svg PUBLIC "-//W3C//DTD SVG 1.1//EN" "http://www.w3.org/Graphics/SVG/1.1/DTD/svg11.dtd">
<svg version="1.1" id="Layer_1" xmlns="http://www.w3.org/2000/svg" xmlns:xlink="http://www.w3.org/1999/xlink" x="0px" y="0px"
	 width="18px" height="18px" viewBox="-56.5 34.5 18 18" style="enable-background:new -56.5 34.5 18 18;" xml:space="preserve">
<g>
	<path d="M-47.5,38c3.6,0,6.5,2.9,6.5,6.5c0,3.6-2.9,6.5-6.5,6.5c-3.6,0-6.5-2.9-6.5-6.5C-54,40.9-51.1,38-47.5,38 M-47.5,36.5
		c-4.4,0-8,3.6-8,8c0,4.4,3.6,8,8,8c4.4,0,8-3.6,8-8C-39.5,40.1-43.1,36.5-47.5,36.5L-47.5,36.5z"/>
</g>
<polygon points="-46.5,43.5 -46.5,40.5 -48.5,40.5 -48.5,45.5 -43.5,45.5 -43.5,43.5 "/>
<rect x="-55.1" y="35" transform="matrix(-0.7071 -0.7071 0.7071 -0.7071 -119.1917 25.2391)" width="1.5" height="4.7"/>
<rect x="-41.4" y="35" transform="matrix(-0.7066 0.7076 -0.7076 -0.7066 -42.9441 92.4167)" width="1.5" height="4.7"/>
</svg>
