<?xml version="1.0" encoding="utf-8"?>
<!-- Generator: Adobe Illustrator 23.0.0, SVG Export Plug-In . SVG Version: 6.00 Build 0)  -->
<svg version="1.1" id="Layer_1" xmlns="http://www.w3.org/2000/svg" xmlns:xlink="http://www.w3.org/1999/xlink" x="0px" y="0px"
	 viewBox="0 0 18 18" style="enable-background:new 0 0 18 18;" xml:space="preserve">
<path d="M4,10h1v2H4V10z M6,10h1v2H6V10z M2,10h1v2H2V10z"/>
<path d="M8,14v-1H1V7h15V2H0v12H8z M15,5H1V3h14V5z M15,12h2.9c-0.4-1.4-1.5-2.5-2.9-2.9V12z"/>
<path d="M14,13V9c-2.2,0-4,1.8-4,4s1.8,4,4,4s4-1.8,4-4H14z"/>
</svg>
