<?xml version="1.0" encoding="utf-8"?>
<!-- Generator: Adobe Illustrator 16.0.4, SVG Export Plug-In . SVG Version: 6.00 Build 0)  -->
<!DOCTYPE svg PUBLIC "-//W3C//DTD SVG 1.1//EN" "http://www.w3.org/Graphics/SVG/1.1/DTD/svg11.dtd">
<svg version="1.1" id="Layer_1" xmlns="http://www.w3.org/2000/svg" xmlns:xlink="http://www.w3.org/1999/xlink" x="0px" y="0px"
	 width="18px" height="18px" viewBox="-56.5 34.5 18 18" style="enable-background:new -56.5 34.5 18 18;" xml:space="preserve">
<rect x="-52.5" y="45.5" width="1" height="2"/>
<rect x="-54.5" y="45.5" width="1" height="2"/>
<path d="M-50.5,49.5v-1h-5v-6h15v-5h-16v12H-50.5z M-41.5,40.5h-14v-2h14V40.5z"/>
<polygon points="-45.5,50 -45.5,44.5 -47,44.5 -47,44.5 -48.5,46 -47.4,47.1 -47,46.6 -47,50 -48,50 -48,51.5 -44.5,51.5 -44.5,50 
	"/>
<polygon points="-38.5,47.3 -39.6,46.2 -41.2,47.8 -42.7,46.2 -43.8,47.3 -42.2,48.8 -43.8,50.4 -42.7,51.5 -41.2,49.9 -39.6,51.5 
	-38.5,50.4 -40.1,48.8 "/>
</svg>
