<?xml version="1.0" encoding="utf-8"?>
<!-- Generator: Adobe Illustrator 23.0.0, SVG Export Plug-In . SVG Version: 6.00 Build 0)  -->
<svg version="1.1" id="Layer_1" xmlns="http://www.w3.org/2000/svg" xmlns:xlink="http://www.w3.org/1999/xlink" x="0px" y="0px"
	 viewBox="0 0 18 18" style="enable-background:new 0 0 18 18;" xml:space="preserve">
<path d="M4,10h1v2H4V10z M2,10h1v2H2V10z"/>
<path d="M6,14v-1H1V7h15V2H0v12H6z M15,5H1V3h14V5z"/>
<path d="M11,14.5V9H9.5L8,10.5l1.1,1.1l0.4-0.5v3.4h-1V16H12v-1.5H11z M18,11.8l-1.1-1.1l-1.6,1.6l-1.5-1.6l-1.1,1.1l1.6,1.5
	l-1.6,1.6l1.1,1.1l1.5-1.6l1.6,1.6l1.1-1.1l-1.6-1.6L18,11.8z"/>
</svg>
