<?xml version="1.0" encoding="utf-8"?>
<!-- Generator: Adobe Illustrator 16.0.4, SVG Export Plug-In . SVG Version: 6.00 Build 0)  -->
<!DOCTYPE svg PUBLIC "-//W3C//DTD SVG 1.1//EN" "http://www.w3.org/Graphics/SVG/1.1/DTD/svg11.dtd">
<svg version="1.1" id="Layer_1" xmlns="http://www.w3.org/2000/svg" xmlns:xlink="http://www.w3.org/1999/xlink" x="0px" y="0px"
	 width="18px" height="18px" viewBox="-56.5 34.5 18 18" style="enable-background:new -56.5 34.5 18 18;" xml:space="preserve">
<rect x="-52.5" y="45.5" width="1" height="2"/>
<rect x="-50.5" y="45.5" width="1" height="2"/>
<rect x="-54.5" y="45.5" width="1" height="2"/>
<path d="M-48.5,49.5v-1h-7v-6h15v-5h-16v12H-48.5z M-41.5,40.5h-14v-2h14V40.5z"/>
<g>
	<path d="M-41.5,47.5h2.9c-0.4-1.4-1.5-2.5-2.9-2.9V47.5z"/>
	<path d="M-42.5,48.5v-4c-2.2,0-4,1.8-4,4s1.8,4,4,4s4-1.8,4-4H-42.5z"/>
</g>
</svg>
