<?xml version="1.0" encoding="utf-8"?>
<!-- Generator: Adobe Illustrator 23.0.0, SVG Export Plug-In . SVG Version: 6.00 Build 0)  -->
<svg version="1.1" id="Layer_1" xmlns="http://www.w3.org/2000/svg" xmlns:xlink="http://www.w3.org/1999/xlink" x="0px" y="0px"
	 viewBox="0 0 18 18" style="enable-background:new 0 0 18 18;" xml:space="preserve">
<path d="M16.4,6.1L15,4.7l-4.7,4.7C9.9,9.2,9.5,9.1,9,9.1c-1.7,0-3,1.3-3,3s1.3,3,3,3s3-1.3,3-3c0-0.5-0.1-0.9-0.3-1.3L16.4,6.1z
	 M9,13.1c-0.6,0-1-0.4-1-1s0.4-1,1-1s1,0.4,1,1S9.6,13.1,9,13.1z"/>
<path d="M0,12c0,1.4,0.3,2.8,0.9,4H2c-0.6-1-0.9-2.1-1-3.2h1.9v-1.5h-2c0.2-1.6,0.8-3.1,1.7-4.2l1.5,1.5l1.1-1.1L3.7,6
	c1.2-1,2.8-1.7,4.4-1.9v2h1.5v-2c0.8,0.1,1.6,0.3,2.4,0.6l0.8-0.8C11.6,3.3,10.3,3,8.9,3C4,3,0,7,0,12z M17.1,8.2L16.3,9
	c0.4,1,0.6,2,0.6,3.1c0,1.5-0.4,2.8-1.1,4h1.1c0.6-1.2,0.9-2.6,0.9-4C18,10.6,17.7,9.3,17.1,8.2z"/>
</svg>
