<?xml version="1.0" encoding="utf-8"?>
<!-- Generator: Adobe Illustrator 16.0.4, SVG Export Plug-In . SVG Version: 6.00 Build 0)  -->
<!DOCTYPE svg PUBLIC "-//W3C//DTD SVG 1.1//EN" "http://www.w3.org/Graphics/SVG/1.1/DTD/svg11.dtd">
<svg version="1.1" id="Layer_1" xmlns="http://www.w3.org/2000/svg" xmlns:xlink="http://www.w3.org/1999/xlink" x="0px" y="0px"
	 width="18px" height="18px" viewBox="-56.5 34.5 18 18" style="enable-background:new -56.5 34.5 18 18;" xml:space="preserve">
<path d="M-40.1,40.6l-1.4-1.4l-4.7,4.7c-0.4-0.2-0.8-0.3-1.3-0.3c-1.7,0-3,1.3-3,3s1.3,3,3,3s3-1.3,3-3c0-0.5-0.1-0.9-0.3-1.3
	L-40.1,40.6z M-47.5,47.6c-0.6,0-1-0.4-1-1s0.4-1,1-1c0.6,0,1,0.4,1,1S-46.9,47.6-47.5,47.6z"/>
<g>
	<path d="M-56.5,46.5c0,1.4,0.3,2.8,0.9,4h1.1c-0.6-1-0.9-2.1-1-3.2h1.9v-1.5h-2c0.2-1.6,0.8-3.1,1.7-4.2l1.5,1.5l1.1-1.1l-1.5-1.5
		c1.2-1,2.8-1.7,4.4-1.9v2h1.5v-2c0.8,0.1,1.6,0.3,2.4,0.6l0.8-0.8c-1.2-0.6-2.5-0.9-3.9-0.9C-52.5,37.5-56.5,41.5-56.5,46.5z"/>
	<path d="M-39.4,42.7l-0.8,0.8c0.4,1,0.6,2,0.6,3.1c0,1.5-0.4,2.8-1.1,4h1.1c0.6-1.2,0.9-2.6,0.9-4C-38.5,45.1-38.8,43.8-39.4,42.7z
		"/>
</g>
</svg>
