<?xml version="1.0" encoding="utf-8"?>
<!-- Generator: Adobe Illustrator 16.0.4, SVG Export Plug-In . SVG Version: 6.00 Build 0)  -->
<!DOCTYPE svg PUBLIC "-//W3C//DTD SVG 1.1//EN" "http://www.w3.org/Graphics/SVG/1.1/DTD/svg11.dtd">
<svg version="1.1" id="Layer_1" xmlns="http://www.w3.org/2000/svg" xmlns:xlink="http://www.w3.org/1999/xlink" x="0px" y="0px"
	 width="18px" height="18px" viewBox="-56.5 34.5 18 18" style="enable-background:new -56.5 34.5 18 18;" xml:space="preserve">
<path d="M-39.5,35.5v12h-16v-12H-39.5 M-38.5,34.5h-18v15h18V34.5L-38.5,34.5z"/>
<path d="M-50.4,42.3c-0.7-0.7-1-1.6-0.9-1.6l0.7-1.1l-0.6-1.8c0,0-0.1-0.2-0.2-0.2c-0.1-0.1-0.9-0.2-1.3,0.2
	c-1.1,1.1-1.4,2.4,1.5,5.3l0.1,0.1c2.9,2.9,4.2,2.6,5.3,1.5c0.4-0.4,0.3-1.3,0.2-1.3c-0.1-0.1-0.2-0.2-0.2-0.2l-1.8-0.6l-1.1,0.7
	c-0.1,0.1-0.9-0.1-1.6-0.9L-50.4,42.3z"/>
<polygon points="-50.5,50.5 -44.5,50.5 -43.5,52.5 -51.5,52.5 "/>
</svg>
