<?xml version="1.0" encoding="utf-8"?>
<!-- Generator: Adobe Illustrator 23.0.0, SVG Export Plug-In . SVG Version: 6.00 Build 0)  -->
<svg version="1.1" id="Layer_1" xmlns="http://www.w3.org/2000/svg" xmlns:xlink="http://www.w3.org/1999/xlink" x="0px" y="0px"
	 viewBox="0 0 18 18" style="enable-background:new 0 0 18 18;" xml:space="preserve">
<path d="M4,0v18h10V0H4z M9,17c-0.6,0-1-0.4-1-1s0.4-1,1-1s1,0.4,1,1S9.6,17,9,17z M13,14H5V2h8V14z"/>
<path d="M9.5,7h-1C8.2,7,8,6.8,8,6.5S8.2,6,8.5,6H11V4.5H8.5c-1.1,0-2,0.9-2,2s0.9,2,2,2h1C9.8,8.5,10,8.7,10,9S9.8,9.5,9.5,9.5H7
	V11h2.5c1.1,0,2-0.9,2-2S10.6,7,9.5,7z"/>
</svg>
