<?xml version="1.0" encoding="utf-8"?>
<!-- Generator: Adobe Illustrator 16.0.4, SVG Export Plug-In . SVG Version: 6.00 Build 0)  -->
<!DOCTYPE svg PUBLIC "-//W3C//DTD SVG 1.1//EN" "http://www.w3.org/Graphics/SVG/1.1/DTD/svg11.dtd">
<svg version="1.1" id="Layer_1" xmlns="http://www.w3.org/2000/svg" xmlns:xlink="http://www.w3.org/1999/xlink" x="0px" y="0px"
	 width="18px" height="18px" viewBox="-56.5 34.5 18 18" style="enable-background:new -56.5 34.5 18 18;" xml:space="preserve">
<rect x="-56.5" y="36.5" width="2" height="14"/>
<rect x="-53.5" y="35.5" width="4" height="16"/>
<path d="M-48.5,36.5v14h10v-14H-48.5z M-45.5,49.5h-2v-2h2V49.5z M-45.5,46.5h-2v-2h2V46.5z M-45.5,43.5h-2v-2h2V43.5z M-42.5,49.5
	h-2v-2h2V49.5z M-42.5,46.5h-2v-2h2V46.5z M-42.5,43.5h-2v-2h2V43.5z M-39.5,49.5h-2v-2h2V49.5z M-39.5,46.5h-2v-2h2V46.5z
	 M-39.5,43.5h-2v-2h2V43.5z M-39.5,40.5h-8v-3h8V40.5z"/>
</svg>
