<?xml version="1.0" encoding="utf-8"?>
<!-- Generator: Adobe Illustrator 23.0.0, SVG Export Plug-In . SVG Version: 6.00 Build 0)  -->
<svg version="1.1" id="Layer_1" xmlns="http://www.w3.org/2000/svg" xmlns:xlink="http://www.w3.org/1999/xlink" x="0px" y="0px"
	 viewBox="0 0 18 18" style="enable-background:new 0 0 18 18;" xml:space="preserve">
<path d="M0,2h2v14H0V2z M3,1h4v16H3V1z M8,2v14h10V2H8z M11,15H9v-2h2V15z M11,12H9v-2h2V12z M11,9H9V7h2V9z M14,15h-2v-2h2V15z
	 M14,12h-2v-2h2V12z M14,9h-2V7h2V9z M17,15h-2v-2h2V15z M17,12h-2v-2h2V12z M17,9h-2V7h2V9z M17,6H9V3h8V6z"/>
</svg>
