<?xml version="1.0" encoding="utf-8"?>
<!-- Generator: Adobe Illustrator 16.0.4, SVG Export Plug-In . SVG Version: 6.00 Build 0)  -->
<!DOCTYPE svg PUBLIC "-//W3C//DTD SVG 1.1//EN" "http://www.w3.org/Graphics/SVG/1.1/DTD/svg11.dtd">
<svg version="1.1" id="Layer_1" xmlns="http://www.w3.org/2000/svg" xmlns:xlink="http://www.w3.org/1999/xlink" x="0px" y="0px"
	 width="18px" height="18px" viewBox="-56.5 34.5 18 18" style="enable-background:new -56.5 34.5 18 18;" xml:space="preserve">
<path d="M-52.5,34.5v18h10v-18H-52.5z M-47.5,51.5c-0.6,0-1-0.4-1-1s0.4-1,1-1c0.6,0,1,0.4,1,1S-46.9,51.5-47.5,51.5z M-43.5,48.5
	h-8v-12h8V48.5z"/>
<path d="M-47,41.5h-1c-0.3,0-0.5-0.2-0.5-0.5s0.2-0.5,0.5-0.5h2.5V39H-48c-1.1,0-2,0.9-2,2s0.9,2,2,2h1c0.3,0,0.5,0.2,0.5,0.5
	S-46.7,44-47,44h-2.5v1.5h2.5c1.1,0,2-0.9,2-2C-45,42.4-45.9,41.5-47,41.5z"/>
</svg>
