<?xml version="1.0" encoding="utf-8"?>
<!-- Generator: Adobe Illustrator 23.0.0, SVG Export Plug-In . SVG Version: 6.00 Build 0)  -->
<svg version="1.1" id="Layer_1" xmlns="http://www.w3.org/2000/svg" xmlns:xlink="http://www.w3.org/1999/xlink" x="0px" y="0px"
	 viewBox="0 0 18 18" style="enable-background:new 0 0 18 18;" xml:space="preserve">
<g>
	<path d="M17,1v12H1V1H17 M18,0H0v15h18V0z"/>
	<path d="M17,1v12H1V1H17 M18,0H0v15h18V0z"/>
</g>
<g>
	<path d="M6.1,7.8c-0.7-0.7-1-1.6-0.9-1.6l0.7-1.1L5.3,3.3c0,0-0.1-0.2-0.2-0.2C5,3,4.2,2.9,3.8,3.3C2.7,4.4,2.4,5.7,5.3,8.6
		l0.1,0.1c2.9,2.9,4.2,2.6,5.3,1.5c0.4-0.4,0.3-1.3,0.2-1.3l-0.2-0.2L8.9,8.1L7.8,8.8C7.7,8.9,6.9,8.7,6.2,7.9
		C6.2,7.9,6.1,7.8,6.1,7.8z M6,16h6l1,2H5L6,16z"/>
	<path d="M6.1,7.8c-0.7-0.7-1-1.6-0.9-1.6l0.7-1.1L5.3,3.3c0,0-0.1-0.2-0.2-0.2C5,3,4.2,2.9,3.8,3.3C2.7,4.4,2.4,5.7,5.3,8.6
		l0.1,0.1c2.9,2.9,4.2,2.6,5.3,1.5c0.4-0.4,0.3-1.3,0.2-1.3l-0.2-0.2L8.9,8.1L7.8,8.8C7.7,8.9,6.9,8.7,6.2,7.9
		C6.2,7.9,6.1,7.8,6.1,7.8z M6,16h6l1,2H5L6,16z"/>
</g>
</svg>
