<?xml version="1.0" encoding="utf-8"?>
<!-- Generator: Adobe Illustrator 23.0.0, SVG Export Plug-In . SVG Version: 6.00 Build 0)  -->
<svg version="1.1" id="Layer_1" xmlns="http://www.w3.org/2000/svg" xmlns:xlink="http://www.w3.org/1999/xlink" x="0px" y="0px"
	 viewBox="0 0 18 18" style="enable-background:new 0 0 18 18;" xml:space="preserve">
<path d="M6.9,12.5L9,10.4l2.1,2.1l1.4-1.4L10.4,9l2.1-2.1l-1.4-1.4L9,7.6L6.9,5.5L5.5,6.9L7.6,9l-2.1,2.1L6.9,12.5z"/>
<path d="M9,0C5.8,0,3.1,1.6,1.5,4.1V2H0v4.5h4.5V5H2.7C4,2.9,6.2,1.5,9,1.5c4.1,0,7.6,3.4,7.6,7.5s-3.5,7.5-7.6,7.5
	c-2.2,0-4.1-1.1-5.5-2.6L2.4,15c1.6,1.8,4,3,6.6,3c5,0,9-4,9-9S14,0,9,0z"/>
</svg>
