<?xml version="1.0" encoding="utf-8"?>
<!-- Generator: Adobe Illustrator 16.0.4, SVG Export Plug-In . SVG Version: 6.00 Build 0)  -->
<!DOCTYPE svg PUBLIC "-//W3C//DTD SVG 1.1//EN" "http://www.w3.org/Graphics/SVG/1.1/DTD/svg11.dtd">
<svg version="1.1" id="Layer_1" xmlns="http://www.w3.org/2000/svg" xmlns:xlink="http://www.w3.org/1999/xlink" x="0px" y="0px"
	 width="18px" height="18px" viewBox="-56.5 34.5 18 18" style="enable-background:new -56.5 34.5 18 18;" xml:space="preserve">
<g>
	<polygon points="-49.6,47 -47.5,44.9 -45.4,47 -44,45.6 -46.1,43.5 -44,41.4 -45.4,40 -47.5,42.1 -49.6,40 -51,41.4 -48.9,43.5 
		-51,45.6 	"/>
	<path d="M-47.5,34.5c-3.2,0-5.9,1.6-7.5,4.1v-2.1h-1.5V41h4.5v-1.5h-1.8c1.3-2.1,3.5-3.5,6.3-3.5c4.1,0,7.6,3.4,7.6,7.5
		s-3.5,7.5-7.6,7.5c-2.2,0-4.1-1.1-5.5-2.6l-1.1,1.1c1.6,1.8,4,3,6.6,3c5,0,9-4,9-9S-42.5,34.5-47.5,34.5z"/>
</g>
</svg>
