<?xml version="1.0" encoding="utf-8"?>
<!-- Generator: Adobe Illustrator 16.0.4, SVG Export Plug-In . SVG Version: 6.00 Build 0)  -->
<!DOCTYPE svg PUBLIC "-//W3C//DTD SVG 1.1//EN" "http://www.w3.org/Graphics/SVG/1.1/DTD/svg11.dtd">
<svg version="1.1" id="Layer_1" xmlns="http://www.w3.org/2000/svg" xmlns:xlink="http://www.w3.org/1999/xlink" x="0px" y="0px"
	 width="18px" height="18px" viewBox="-56.5 34.5 18 18" style="enable-background:new -56.5 34.5 18 18;" xml:space="preserve">
<style type="text/css">
<![CDATA[
	.st0{display:none;}
]]>
</style>
<g id="Creative_Commons_License" class="st0">
	
		<text id="Creative_Commons_License_1_" transform="matrix(1 0 0 1 -111 77.0439)" style="display:inline;fill:#231F20; font-family:'MyriadPro-Regular'; font-size:12;">With assets by Visual Idiot / CC BY</text>
</g>
<g>
	<path d="M-47.5,34.5c-5,0-9,4-9,9s4,9,9,9c5,0,9-4,9-9S-42.5,34.5-47.5,34.5z M-40.5,40.7C-40.5,40.7-40.5,40.7-40.5,40.7
		c-0.1,0,0-0.2,0-0.3c0.1,0,0.1-0.1,0.2-0.1c0,0.1,0.1,0.1,0.1,0.2c0,0,0,0-0.1,0c0,0,0,0.2,0.1,0.2c0,0,0,0,0,0h0.3
		c0.2,0,0.3,0.1,0.3,0.3c0,0.2-0.1,0.3-0.3,0.3H-40c0,0.1,0,0.2,0.1,0.2c0,0.1-0.3,0.1-0.3,0c-0.1,0-0.1-0.1-0.1-0.1h-0.1
		c-0.2,0-0.3-0.1-0.3-0.3C-40.8,40.8-40.6,40.7-40.5,40.7z M-39.7,42.8C-39.7,42.8-39.7,42.8-39.7,42.8c-0.1,0.1-0.1,0.1-0.2,0.1
		c-0.1,0-0.1,0-0.2-0.1c0,0,0,0,0,0c0,0,0,0,0,0c0,0-0.1-0.1-0.1-0.2c0,0,0,0,0,0c0,0,0-0.1,0-0.1v-0.3c0,0.1,0,0.1,0,0.1
		c0,0,0,0,0,0c0-0.1,0.1-0.1,0.2-0.1c0.2,0,0.3,0.1,0.3,0.3C-39.6,42.7-39.6,42.8-39.7,42.8C-39.7,42.8-39.7,42.8-39.7,42.8z
		 M-41.8,40.5c0.1,0,0,0.1,0.2,0.1c0,0,0.1-0.1,0.1,0c0.1,0,0.1,0.1,0.2,0.1c0.1,0.1,0.3,0.1,0.3,0.3c0.2,0-0.1,0.2-0.1,0.1
		c-0.2,0.1-0.2-0.1-0.3-0.1c0,0.2-0.1,0-0.1,0c0,0.1-0.5,0.1-0.6,0.1c0-0.1,0-0.1,0-0.1c0-0.2,0.1-0.3,0.2-0.5
		C-41.9,40.3-41.8,40.3-41.8,40.5z M-49.8,48.5c-0.1,0,0,0.8-0.2,0.9c0,0.1-0.1,0.2-0.1,0.3c0,0.1,0,0.3,0,0.4c0,0-0.1,0.2-0.1,0.2
		c-0.1,0-0.1,0.3-0.1,0.6c-3-1.1-5.2-4-5.2-7.4c0-1.2,0.3-2.3,0.7-3.3c0.1,0.2,0.1,0.3,0.1,0.5c0,0.1,0,0.3,0,0.5
		c0.1,0,0.2,0.2,0.2,0.3c0,0,0.2,0.2,0.2,0.2c0.2,0,0.3,0.1,0.3,0.2c0,0,0.1,0.2,0.1,0.3c0,0.1,0.1,0.3,0.2,0.4
		c0,0.2,0.5,0.6,0.2,0.1c0,0-0.2-0.3-0.2-0.3c0-0.1-0.2-0.2-0.2-0.3c0-0.1,0.2,0.1,0.2,0.2c0,0,0.1,0.2,0.1,0.2c0,0,0.2,0.1,0.2,0.2
		c0.1,0,0.2,0.3,0.2,0.5c0,0.1,0.1,0.3,0.2,0.3c0.1,0.1,0.3,0.1,0.3,0.2c0.1,0,0.3,0.1,0.5,0.1c0.1,0,0.2,0.2,0.3,0.2
		c0,0,0.1,0,0.1,0.1c0.1,0,0.4,0.2,0.4,0.3c0.1,0,0.2,0.2,0.2,0.3c0,0.2,0.3,0.2,0.4,0.2c0.1-0.3,0.2,0,0.2,0.1c0,0,0,0.2,0,0.3
		c0.1,0,0,0.2-0.1,0.1c0,0-0.1,0.1-0.1,0.1c-0.1,0-0.2,0.4-0.1,0.5c0,0.2-0.2,0.3,0,0.4c0,0,0.3,0.5,0.3,0.5c0,0.1,0,0.2,0.1,0.2
		c0,0.1,0.1,0.5,0.3,0.5c0,0,0.2,0.2,0.2,0.2C-49.7,47.9-49.8,48.1-49.8,48.5z M-40.4,46.9C-40.4,46.9-40.4,46.9-40.4,46.9
		C-40.4,47-40.4,46.9-40.4,46.9c0,0.1-0.1,0.1-0.1,0.2c0-0.1-0.1,0.1,0,0.1c0,0,0,0.1-0.1,0.1c-0.1,0-0.1,0-0.2,0
		c0,0.1-0.1,0.1,0,0.1c0,0.1-0.1,0-0.1,0c0,0.1-0.1,0.3-0.1,0.5c-1.4,2.2-3.8,3.6-6.6,3.6c-0.7,0-1.4-0.1-2.1-0.3
		c0,0,0.1-0.1,0.1-0.1c0-0.1,0.1-0.1,0.1-0.2c0.1,0,0-0.1,0,0c0,0,0,0-0.1,0.1c0,0,0-0.1,0-0.1c0-0.1,0-0.1,0-0.2
		c0,0,0.1-0.1,0.1-0.1c0.1-0.1,0.1-0.1,0.1-0.2c0,0,0-0.1-0.1-0.1C-49.1,50-49,50.1-49,50c0,0,0-0.1,0-0.1c0.1-0.1,0.1-0.1,0.3-0.1
		c0,0,0.2-0.1,0.2-0.1c0,0,0-0.2,0-0.2c0-0.1,0.2-0.1,0.2-0.1c0.1-0.1,0.1-0.1,0.1-0.3c0-0.1,0.1-0.2,0.2-0.2c0.1,0,0-0.1,0.1-0.1
		c0-0.1,0-0.1,0.1-0.1c0.1-0.1,0-0.3,0-0.4c0,0,0.1-0.1,0.1-0.1c0.1,0,0.1-0.1,0.2-0.1c0-0.1,0.3-0.2,0.3-0.2c0-0.1,0.1-0.2,0.1-0.3
		c0,0,0.1-0.3,0.1-0.4c0,0,0-0.3,0-0.3c0,0,0,0,0.1-0.1c0.3,0,0.5-0.3,0.5-0.5c0-0.3-0.2-0.6-0.6-0.6c-0.1,0-0.2,0-0.3,0.1
		c-0.1,0-0.1,0.1-0.2,0.1c0-0.1,0-0.3-0.1-0.3c0,0.1-0.1,0.1-0.1,0c-0.1,0-0.1-0.1-0.2-0.1c0,0.1-0.2,0-0.1,0c0,0,0-0.2,0-0.2
		c0-0.1,0-0.2-0.1-0.3c-0.1-0.1,0-0.1-0.1-0.2c0,0,0,0-0.1-0.1c0,0-0.1-0.1-0.1,0c-0.1,0-0.1,0-0.2-0.1c-0.1,0,0-0.1-0.1-0.1
		c0,0-0.1,0-0.1-0.1c0-0.1-0.1-0.1-0.1-0.1c0,0,0,0,0,0c0,0,0-0.1-0.1-0.1c0,0-0.1-0.1-0.1-0.1c-0.1,0-0.2,0-0.3,0
		c-0.2,0-0.2-0.2-0.2-0.2c-0.1,0-0.1,0.1-0.2,0.1c0,0,0,0-0.1,0c0,0-0.1,0-0.1,0c0,0-0.1,0.1-0.1,0.1c0,0,0,0-0.1,0
		c-0.1,0,0.1,0.3-0.2,0.3c0-0.1,0-0.2-0.1-0.2c0,0.1-0.2,0.1-0.3,0.1c0-0.1,0-0.2-0.1-0.2c0-0.1-0.1-0.2-0.1-0.3
		c-0.1,0,0-0.3-0.1-0.3c0,0,0,0,0,0.1c-0.1,0-0.2,0-0.3,0c0-0.1-0.1-0.1,0-0.2c0-0.1,0.1-0.2,0.1-0.2c0,0,0-0.1,0.1-0.1
		c0.1,0,0-0.2,0-0.1c0,0-0.1,0-0.1,0.1c0,0-0.1,0.1-0.1,0c-0.1,0-0.2,0.2-0.1,0.2c0,0.1-0.1,0.1-0.1,0.1c-0.2,0-0.1,0-0.1-0.1
		c-0.1,0-0.2-0.2-0.3-0.2c0-0.1-0.1-0.2-0.1-0.3c0,0,0-0.4,0-0.4c0-0.2,0.1-0.4,0.4-0.4c0.1,0,0.1,0.1,0.2,0.1c0.1,0,0.1,0,0.2,0
		c0-0.1,0-0.1-0.1-0.1c0.1,0,0.3,0,0.3,0.1c0.1,0,0.2-0.1,0.2,0c0,0.1,0.1,0.2,0.1,0.3c0,0,0.1,0.1,0.1,0.1c0.1,0,0.1-0.1,0.1-0.2
		c0-0.1,0-0.3-0.1-0.4c0-0.2,0.2-0.2,0.2-0.4c0.1,0,0.2-0.2,0.3-0.3c0,0,0.1-0.2,0.1-0.2c0-0.1,0.1-0.1,0.1-0.2c0,0,0.2-0.1,0.2-0.1
		c0.1,0,0.1-0.2,0.2-0.3c0,0,0.1-0.1,0.1-0.1c0.1,0,0.2-0.1,0.3-0.1c0,0,0,0,0,0.1c0,0-0.1,0-0.1,0c0,0.1-0.1,0.1,0.1,0
		c0,0,0.1-0.1,0.1-0.1c0,0,0,0,0,0c0,0,0-0.1,0-0.1c0,0-0.1,0-0.1-0.1c-0.1-0.1-0.2-0.2,0-0.2c0,0,0,0,0,0c-0.1,0-0.1,0.1-0.2,0.1
		c-0.1,0-0.2,0.2-0.4,0.2c0-0.1,0.3-0.4,0.4-0.4c0.2-0.1,0.6,0.1,0.7-0.2c0,0,0.3,0.1,0.3,0c0,0,0-0.1,0.1-0.1
		c0-0.1-0.1-0.1-0.2-0.1c0-0.1-0.1,0-0.1,0c0-0.1,0-0.1-0.1-0.1c0-0.1-0.2-0.2-0.2-0.3c-0.1,0-0.2-0.3-0.2-0.3
		c0,0.1-0.1,0.2-0.1,0.2c0,0.1-0.1,0-0.2,0c0-0.1,0,0,0-0.1c0,0,0-0.1,0-0.1c0,0-0.2-0.2-0.2-0.2c-0.2,0.1,0,0-0.2-0.1
		c-0.1,0.2-0.2,0-0.3,0c0,0-0.1,0-0.1,0c0,0.1,0.1,0.3,0,0.3c0,0.1,0.1,0,0.1,0.1c0.1,0.1,0,0.2,0,0.3c0.2,0.1-0.1,0.2-0.1,0.1
		c-0.1,0-0.1,0.1,0,0.2c0,0.1,0,0.1,0.1,0.1c0,0.1-0.2,0.1-0.2,0.1c0,0,0,0,0,0c0-0.1-0.1-0.2-0.1-0.2c0-0.1-0.2-0.3-0.2-0.2
		c-0.1,0-0.2,0-0.2-0.1c0,0-0.1,0-0.1-0.1c-0.2,0-0.2,0-0.4-0.1c0-0.1-0.2-0.2-0.3-0.3c0-0.2-0.1-0.4,0.2-0.4c0,0,0.2-0.1,0.2-0.1
		c0.1-0.1,0.2,0.1,0.2-0.1c0-0.1,0.1-0.2,0.2-0.1c0,0.1-0.1,0.3-0.2,0.3c0.1,0.1,0.3,0,0.4,0c0,0,0.1,0,0.2,0
		c-0.1-0.1-0.4-0.1-0.3-0.3c0,0,0.2,0,0.2-0.1c0-0.1,0-0.2,0-0.3c-0.1,0-0.1,0-0.2,0c0,0,0-0.1,0-0.1c0,0.1-0.1,0-0.1,0
		c0,0,0.1,0.1,0,0.1c0,0.1,0,0.2-0.2,0.3c0-0.1,0-0.3-0.1-0.3c0,0.3-0.2-0.1-0.3-0.1c0-0.1-0.1-0.1-0.1-0.1c0,0.1-0.1,0-0.2,0.1
		c-0.1,0.1,0,0.1-0.1,0.2c-0.1,0-0.3-0.1-0.3,0c0.1,0,0.1,0,0.1,0.1c0.1,0-0.1,0.1-0.1,0.1c-0.1,0-0.1,0-0.2,0c-0.1,0-0.2,0-0.3-0.1
		c-0.1,0-0.1-0.1-0.1-0.1c0,0,0,0,0,0c0,0,0.1-0.1,0.1-0.1c0,0,0.1,0,0.1,0c0.1,0,0.2,0.1,0.2-0.1c0,0,0.1,0,0.1,0
		c0-0.1-0.1,0-0.2,0c0,0,0,0,0-0.1c1.4-1.2,3.2-2,5.2-2c2.1,0,3.9,0.8,5.4,2.1c-0.1,0-0.2,0-0.2,0c0-0.1-0.7,0.1-0.8,0.1
		c-0.2,0-0.2,0.1-0.3,0.2c0,0-0.4,0.3-0.2,0.3c0,0.2-0.6,0.2-0.6,0.3c0,0-0.2,0-0.1,0.1c0,0,0.1,0.2,0.1,0.2c0.1,0,0.2,0.1,0.4,0.1
		c0,0,0.1,0,0.1-0.1c0,0.1,0.1,0.3,0.1,0.3c0,0.1,0,0.2-0.1,0.1c0,0,0-0.1,0-0.2c0-0.1-0.1,0-0.2,0c0,0.1,0,0.3,0.1,0.3
		c0,0.1-0.2,0-0.3,0.1c-0.1,0-0.2,0.2-0.2,0.1c-0.1,0.1,0,0.2-0.2,0.1c0,0,0,0.1,0,0.1c0.1,0,0,0.1-0.1,0.1c0,0.1-0.1,0-0.1,0
		c0,0,0,0,0,0c0.1,0.2-0.2,0.1-0.2,0.1c-0.1,0,0,0.1,0.1,0.1c0,0.1,0.3,0.2,0.1,0.4c0,0,0,0.1,0.1,0.1c0,0.1-0.1,0.1-0.2,0.1
		c0-0.1,0-0.1-0.1-0.1c0,0.1-0.2,0-0.3,0.1c0,0,0,0-0.1-0.1c0,0.1-0.1,0.5-0.1,0.5c0,0.2,0.1,0.3,0.3,0.3c0,0,0.4,0,0.4-0.1
		c0-0.1,0.1-0.1,0.1-0.2c0-0.1,0.2-0.5,0.2-0.5c0,0,0.3,0.1,0.4,0c0,0,0.1,0,0.1-0.1c0.1,0,0.1,0.2,0.2,0.2c0.1,0.1,0.2,0.1,0.3,0.2
		c0.1,0,0.1,0.2,0.1,0.3c0.1-0.1,0.1-0.1,0.1-0.2c0-0.1,0.1,0,0.2,0c-0.1,0,0-0.1-0.2-0.1c0,0,0-0.1,0-0.1c-0.2,0-0.2-0.2-0.3-0.2
		c0-0.1-0.1-0.1-0.1-0.2c0.1-0.1,0.3,0.2,0.4,0.2c0,0,0.2,0.1,0.2,0.1c0.1,0,0,0.2,0,0.2c0.1,0,0,0,0.1,0.1c0.1,0.1,0,0.3,0.2,0.3
		c0-0.1,0.2-0.2,0.1-0.2c0-0.1-0.1-0.3,0.1-0.3c0.1,0,0.2,0,0.2,0.1c0,0.1,0,0.2,0.1,0.3c0.1,0.1,0.3,0,0.4,0.1c0,0,0.2,0.1,0.2,0
		c0.1,0,0.1,0,0.2,0c0,0.1,0,0.2-0.1,0.3c0,0.1-0.1,0.1-0.1,0.2c-0.1,0-0.1,0.1,0,0.1c0,0.1-0.1,0.1-0.2,0.1c0,0.1,0.2,0.3,0.3,0.3
		c0,0.1,0.1,0.2,0.2,0.3c0,0.1,0.1,0.2,0.1,0.3c0,0.1,0.3,0.7,0.2,0.7c0,0.1,0.1,0.1,0.1,0.1c0.1,0,0.1,0.3,0.3,0.3
		c0,0,0.2-0.1,0.3-0.1c0-0.1,0.3-0.2,0.4-0.2c0-0.1,0.4-0.2,0.4-0.3c0,0,0.1-0.1,0.1-0.1c0,0,0,0.1,0,0.1
		C-39.6,44.7-39.9,45.9-40.4,46.9C-40.4,46.9-40.4,46.9-40.4,46.9z"/>
	<path d="M-40.7,44.3C-40.9,44.3-40.8,44.3-40.7,44.3c-0.1-0.1-0.4-0.5-0.4-0.6c0,0-0.1-0.2-0.1-0.2c0-0.1-0.2-0.2-0.1-0.3
		c-0.1-0.1-0.2-0.3-0.3-0.4c-0.1-0.1-0.1-0.2-0.1-0.3c-0.1,0-0.2-0.2-0.2-0.3c-0.1,0-0.1-0.1-0.2-0.1c0-0.1-0.5-0.1-0.6-0.1
		c0-0.1-0.1-0.1-0.1-0.1c0,0.1-0.3,0.2-0.4,0.2c-0.1,0-0.2,0-0.2-0.1c-0.1,0-0.1,0-0.2,0c0-0.1-0.2-0.5-0.3-0.5c0,0,0,0,0,0
		c-0.1,0-0.6-0.1-0.6,0c-0.1,0-0.3,0.1-0.3,0.2c0,0-0.2,0.1-0.2,0c-0.1,0-0.1,0-0.1,0.1c-0.1,0-0.1,0.1-0.2,0.1
		c-0.1,0,0-0.1-0.1,0.1c0,0-0.1,0.3-0.1,0.3c0,0,0,0.1,0,0.1c-0.1,0.1-0.1,0.2-0.2,0.2c-0.1,0.1-0.1,0-0.1,0.1
		c0,0.1-0.1,0.1-0.1,0.2c-0.1,0.2-0.1,0.3-0.1,0.5c0,0.1-0.1,0.1-0.1,0.2c0,0.1,0.1,0.2,0.1,0.3c-0.1,0-0.1,0.2,0,0.2
		c0,0.1,0.2,0.5,0.3,0.6c0,0.1,0.2,0.3,0.3,0.3c0,0.1,0.4,0.2,0.4,0.1c0.2,0,0.8-0.1,0.8,0.1c0.1,0,0.2,0,0.3,0c0,0.1,0,0.4-0.1,0.5
		c0,0.1,0,0.3,0.1,0.3c0,0,0.1,0.2,0.1,0.2c0,0.2,0.1,0.3,0.1,0.6c0,0.2-0.1,0.3-0.1,0.5c0,0,0,0.4,0.1,0.4c0,0.2,0.1,0.3,0.1,0.5
		c0,0,0.1,0.2,0.1,0.2c0,0,0.2,0.5,0.2,0.6c0,0,0.1,0.2,0.1,0.2c0,0.1,0.1,0.2,0.1,0.3c0.1,0.1,0.3,0,0.4,0c0,0,0.4-0.1,0.5-0.1
		c0,0,0.2-0.3,0.2-0.3c0-0.1,0.3-0.4,0.4-0.4c0,0,0.1-0.3,0.1-0.3c0-0.2,0.1-0.4,0.1-0.5c0,0,0.1-0.2,0.2-0.2c0,0,0.1-0.1,0.1-0.1
		c0-0.1,0.1-0.2,0.1-0.3c0.1,0,0-0.5,0-0.5c-0.1,0,0-0.5,0-0.6c-0.1,0,0.3-0.4,0.2-0.3c0-0.1,0.2-0.2,0.3-0.3
		c0.1-0.1,0.2-0.2,0.2-0.3c0.1,0,0.1-0.1,0.1-0.1c0,0,0-0.1,0.1-0.1c0-0.2,0.1-0.3,0.1-0.4c-0.1,0-0.3,0.1-0.4,0.1
		C-40.6,44.3-40.7,44.3-40.7,44.3z"/>
	<path d="M-44.9,39.6c0.2,0.1-0.1,0-0.1,0c0,0.1-0.1,0.2,0,0.2c0.1,0,0.1,0,0.1,0.1c0.1,0,0.3,0,0.4-0.1c0.1,0,0.1-0.1,0-0.1
		c0,0.1,0,0.1-0.1,0.1c0-0.1,0-0.3-0.1-0.3c0-0.1,0-0.1-0.1-0.2c-0.1-0.1,0-0.1,0-0.2c-0.1,0-0.1,0.1-0.2,0.1c0,0,0-0.1,0-0.1
		c0,0,0.1-0.1,0-0.1c0,0.2-0.2,0-0.2,0.2c0,0.1,0.1,0.1,0.1,0.2C-44.9,39.4-44.9,39.4-44.9,39.6z"/>
	<path d="M-50.5,43c0,0.1-0.1,0-0.2,0c0,0.1,0.2,0.1,0.2,0.1c0,0.1,0.2,0.1,0.3,0.1c0.1,0,0-0.1,0-0.2C-50.4,43.1-50.4,43-50.5,43z"
		/>
	<path d="M-45.5,39.8c0.2,0,0.3-0.1,0.3-0.3c0.1-0.2-0.1-0.1-0.1-0.1c0,0-0.1-0.1-0.1,0c0,0,0,0.1,0.1,0.1c0,0-0.3,0.1-0.1,0.1
		C-45.5,39.6-45.5,39.7-45.5,39.8z"/>
	<path d="M-49.7,43.3C-49.8,43.4-49.7,43.3-49.7,43.3c-0.1,0.1-0.2,0-0.3,0c0,0,0.1,0.1,0.1,0.1c-0.1,0-0.1,0-0.2,0
		c0,0.1,0.2,0.1,0.2,0c0.2,0,0.2,0,0.3,0C-49.6,43.4-49.7,43.3-49.7,43.3z"/>
</g>
</svg>
