<?xml version="1.0" encoding="utf-8"?>
<!-- Generator: Adobe Illustrator 23.0.0, SVG Export Plug-In . SVG Version: 6.00 Build 0)  -->
<svg version="1.1" id="Layer_1" xmlns="http://www.w3.org/2000/svg" xmlns:xlink="http://www.w3.org/1999/xlink" x="0px" y="0px"
	 viewBox="0 0 18 18" style="enable-background:new 0 0 18 18;" xml:space="preserve">
<g>
	<path d="M7,6H6.9C6.9,6.1,6.8,6.1,7,6z"/>
	<path d="M9,0C4,0,0,4,0,9s4,9,9,9s9-4,9-9S14,0,9,0z M16,6.2c-0.1,0,0-0.2,0-0.3c0.1,0,0.1-0.1,0.2-0.1c0,0.1,0.1,0.1,0.1,0.2h-0.1
		c0,0,0,0.2,0.1,0.2h0.3c0.2,0,0.3,0.1,0.3,0.3s-0.1,0.3-0.3,0.3h-0.1c0,0.1,0,0.2,0.1,0.2c0,0.1-0.3,0.1-0.3,0
		c-0.1,0-0.1-0.1-0.1-0.1h-0.1c-0.2,0-0.3-0.1-0.3-0.3C15.7,6.3,15.9,6.2,16,6.2z M16.5,7.7c0.2,0,0.3,0.1,0.3,0.3
		c0.1,0.2,0.1,0.3,0,0.3c-0.1,0.1-0.1,0.1-0.2,0.1c-0.1,0-0.1,0-0.2-0.1c0,0-0.1-0.1-0.1-0.2V7.8C16.3,7.7,16.4,7.7,16.5,7.7z
		 M6.4,15.6l-0.1,0.2c-0.1,0-0.1,0.3-0.1,0.6C3.2,15.3,1,12.4,1,9c0-1.2,0.3-2.3,0.7-3.3C1.8,5.9,1.8,6,1.8,6.2v0.5
		C1.9,6.7,2,6.9,2,7l0.2,0.2c0.2,0,0.3,0.1,0.3,0.2c0,0,0.1,0.2,0.1,0.3c0,0.1,0.1,0.3,0.2,0.4c0,0.2,0.5,0.6,0.2,0.1L2.8,7.9
		c0-0.1-0.2-0.2-0.2-0.3c0-0.1,0.2,0.1,0.2,0.2L2.9,8c0,0,0.2,0.1,0.2,0.2c0.1,0,0.2,0.3,0.2,0.5C3.3,8.8,3.4,9,3.5,9
		c0.1,0.1,0.3,0.1,0.3,0.2c0.1,0,0.3,0.1,0.5,0.1c0.1,0,0.2,0.2,0.3,0.2c0,0,0.1,0,0.1,0.1c0.1,0,0.4,0.2,0.4,0.3
		c0.1,0,0.2,0.2,0.2,0.3c0,0.2,0.3,0.2,0.4,0.2c0.1-0.3,0.2,0,0.2,0.1v0.3c0.1,0,0,0.2-0.1,0.1L5.7,11c-0.1,0-0.2,0.4-0.1,0.5
		c0,0.2-0.2,0.3,0,0.4l0.3,0.5c0,0.1,0,0.2,0.1,0.2c0,0.1,0.1,0.5,0.3,0.5l0.2,0.2c0.3,0.1,0.2,0.3,0.2,0.7c-0.1,0,0,0.8-0.2,0.9
		c0,0.1-0.1,0.2-0.1,0.3V15.6z M15,13.7c0-0.1,0.1-0.2,0.1-0.3c0,0,0.1-0.1,0.1-0.2c0,0.1,0,0.2,0,0.2C15.2,13.5,15.1,13.6,15,13.7z
		 M15.8,12.5c0,0.1-0.1,0.1-0.1,0.2c0-0.1-0.1,0.1,0,0.1c0,0,0,0.1-0.1,0.1h-0.1c0,0,0-0.1,0-0.1c0.1,0,0-0.5,0-0.5
		c-0.1,0,0-0.5,0-0.6c-0.1,0,0.3-0.4,0.2-0.3c0-0.1,0.2-0.2,0.3-0.3c0.1-0.1,0.2-0.2,0.2-0.3c0.1,0,0.1-0.1,0.1-0.1s0-0.1,0.1-0.1
		c0-0.2,0.1-0.3,0.1-0.4c-0.1,0-0.3,0.1-0.4,0.1c-0.2-0.5-0.3-0.5-0.3-0.5c-0.1-0.1-0.4-0.5-0.4-0.6L15.3,9c0-0.1-0.2-0.2-0.1-0.3
		c-0.1-0.1-0.2-0.3-0.3-0.4c-0.1-0.1-0.1-0.2-0.1-0.3c-0.1,0-0.2-0.2-0.2-0.3c-0.1,0-0.1-0.1-0.2-0.1c0-0.1-0.5-0.1-0.6-0.1
		c0-0.1-0.1-0.1-0.1-0.1c0,0.1-0.3,0.2-0.4,0.2c-0.1,0-0.2,0-0.2-0.1h-0.2c0-0.1-0.2-0.5-0.3-0.5C12.5,7,12,6.9,12,7
		c-0.1,0-0.3,0.1-0.3,0.2c0,0-0.2,0.1-0.2,0c-0.1,0-0.1,0-0.1,0.1c-0.1,0-0.1,0.1-0.2,0.1c-0.1,0,0-0.1-0.1,0.1L11,7.8v0.1
		c-0.1,0.1-0.1,0.2-0.2,0.2c-0.1,0.1-0.1,0-0.1,0.1c0,0.1-0.1,0.1-0.1,0.2c-0.1,0.2-0.1,0.3-0.1,0.5c0,0.1-0.1,0.1-0.1,0.2
		c0,0.1,0.1,0.2,0.1,0.3c-0.1,0-0.1,0.2,0,0.2c0,0.1,0.2,0.5,0.3,0.6c0,0.1,0.2,0.3,0.3,0.3c0,0.1,0.4,0.2,0.4,0.1
		c0.2,0,0.8-0.1,0.8,0.1h0.3c0,0.1,0,0.4-0.1,0.5c0,0.1,0,0.3,0.1,0.3l0.1,0.2c0,0.2,0.1,0.3,0.1,0.6c0,0.2-0.1,0.3-0.1,0.5
		c0,0,0,0.4,0.1,0.4c0,0.2,0.1,0.3,0.1,0.5l0.1,0.2c0,0,0.2,0.5,0.2,0.6l0.1,0.2c0,0.1,0.1,0.2,0.1,0.3c0.1,0.1,0.3,0,0.4,0
		c0,0,0.1,0,0.1,0c-1.4,1.3-3.2,2-5.3,2c-0.7,0-1.4-0.1-2.1-0.3l0.1-0.1c0-0.1,0.1-0.1,0.1-0.2l-0.1,0.1v-0.3l0.1-0.1
		C6.8,16,6.8,16,6.8,15.9c0,0,0-0.1-0.1-0.1c0.4-0.3,0.5-0.2,0.5-0.3v-0.1c0.1-0.1,0.1-0.1,0.3-0.1l0.2-0.1V15
		c0-0.1,0.2-0.1,0.2-0.1C8,14.8,8,14.8,8,14.6c0-0.1,0.1-0.2,0.2-0.2c0.1,0,0-0.1,0.1-0.1c0-0.1,0-0.1,0.1-0.1c0.1-0.1,0-0.3,0-0.4
		l0.1-0.1c0.1,0,0.1-0.1,0.2-0.1c0-0.1,0.3-0.2,0.3-0.2c0-0.1,0.1-0.2,0.1-0.3c0,0,0.1-0.3,0.1-0.4v-0.3l0.1-0.1
		c0.3,0,0.5-0.3,0.5-0.5c0-0.3-0.2-0.6-0.6-0.6c-0.1,0-0.2,0-0.3,0.1c-0.1,0-0.1,0.1-0.2,0.1c0-0.1,0-0.3-0.1-0.3
		c0,0.1-0.1,0.1-0.1,0c-0.1,0-0.1-0.1-0.2-0.1c0,0.1-0.2,0-0.1,0v-0.2c0-0.1,0-0.2-0.1-0.3c-0.1-0.1,0-0.1-0.1-0.2l-0.1-0.1
		c0,0-0.1-0.1-0.1,0c-0.1,0-0.1,0-0.2-0.1c-0.1,0,0-0.1-0.1-0.1c0,0-0.1,0-0.1-0.1c0-0.1-0.1-0.1-0.1-0.1s0-0.1-0.1-0.1L7.1,9.7H6.8
		c-0.2,0-0.2-0.2-0.2-0.2c-0.1,0-0.1,0.1-0.2,0.1H6.2L6.1,9.7H6C5.9,9.7,6.1,10,5.8,10c0-0.1,0-0.2-0.1-0.2c0,0.1-0.2,0.1-0.3,0.1
		c0-0.1,0-0.2-0.1-0.2c0-0.1-0.1-0.2-0.1-0.3c-0.1,0,0-0.3-0.1-0.3v0.1H4.8c0-0.1-0.1-0.1,0-0.2c0-0.1,0.1-0.2,0.1-0.2
		s0-0.1,0.1-0.1c0.1,0,0-0.2,0-0.1c0,0-0.1,0-0.1,0.1c0,0-0.1,0.1-0.1,0C4.7,8.8,4.6,9,4.7,9C4.7,9,4.6,9,4.6,9C4.4,9,4.5,9,4.5,9
		C4.4,9,4.3,8.8,4.2,8.8c0-0.1-0.1-0.2-0.1-0.3V8.1c0-0.2,0.1-0.4,0.4-0.4c0.1,0,0.1,0.1,0.2,0.1h0.2c0-0.1,0-0.1-0.1-0.1
		c0.1,0,0.3,0,0.3,0.1c0.1,0,0.2-0.1,0.2,0S5.4,8,5.4,8.1l0.1,0.1c0.1,0,0.1-0.1,0.1-0.2c0-0.1,0-0.3-0.1-0.4c0-0.2,0.2-0.2,0.2-0.4
		C5.8,7.2,5.9,7,6,6.9l0.1-0.2c0-0.1,0.1-0.1,0.1-0.2l0.2-0.1c0.1,0,0.1-0.2,0.2-0.3L6.7,6C6.8,6,6.9,5.9,7,5.9V6l0.1-0.1V5.8
		c0,0-0.1,0-0.1-0.1C6.9,5.7,6.9,5.6,6.9,5.6c0,0,0,0-0.1,0c-0.1,0-0.2,0.2-0.4,0.2c0-0.1,0.3-0.4,0.4-0.4C7,5.3,7.4,5.5,7.5,5.2
		c0,0,0.3,0.1,0.3,0c0,0,0-0.1,0.1-0.1C7.9,5,7.8,5,7.7,5c0-0.1-0.1,0-0.1,0c0-0.1,0-0.1-0.1-0.1c0-0.1-0.2-0.2-0.2-0.3
		c-0.1,0-0.2-0.3-0.2-0.3C7.1,4.4,7,4.5,7,4.5c0,0.1-0.1,0-0.2,0V4.3L6.6,4.1c-0.2,0.1,0,0-0.2-0.1C6.3,4.2,6.2,4,6.1,4H6
		c0,0.1,0.1,0.3,0,0.3c0,0.1,0.1,0,0.1,0.1c0.1,0.1,0,0.2,0,0.3C6.3,4.8,6,4.9,6,4.8C5.9,4.8,5.9,4.9,6,5c0,0.1,0,0.1,0.1,0.1
		c0,0.1-0.2,0.1-0.2,0.1C5.9,5.1,5.8,5,5.8,5c0-0.1-0.2-0.3-0.2-0.2c-0.1,0-0.2,0-0.2-0.1c0,0-0.1,0-0.1-0.1c-0.2,0-0.2,0-0.4-0.1
		c0-0.1-0.2-0.2-0.3-0.3c0-0.2-0.1-0.4,0.2-0.4L5,3.7c0.1-0.1,0.2,0.1,0.2-0.1c0-0.1,0.1-0.2,0.2-0.1c0,0.1-0.1,0.3-0.2,0.3
		c0.1,0.1,0.3,0,0.4,0h0.2C5.7,3.7,5.4,3.7,5.5,3.6c0,0,0.2,0,0.2-0.1V3.2H5.5V3.1c0,0.1-0.1,0-0.1,0s0.1,0.1,0,0.1
		c0,0.1,0,0.2-0.2,0.3c0-0.1,0-0.3-0.1-0.3c0,0.3-0.2-0.1-0.3-0.1C4.8,3,4.7,3,4.7,3c0,0.1-0.1,0-0.2,0.1s0,0.1-0.1,0.2
		c-0.1,0-0.3-0.1-0.3,0c0.1,0,0.1,0,0.1,0.1c0.1,0-0.1,0.1-0.1,0.1H3.9c-0.1,0-0.2,0-0.3-0.1c-0.1,0-0.1-0.1-0.1-0.1l0.1-0.1h0.1
		c0.1,0,0.2,0.1,0.2-0.1H4c0-0.1-0.1,0-0.2,0V3C5.2,1.8,7,1,9,1c2.1,0,3.9,0.8,5.4,2.1h-0.2c0-0.1-0.7,0.1-0.8,0.1
		c-0.2,0-0.2,0.1-0.3,0.2c0,0-0.4,0.3-0.2,0.3c0,0.2-0.6,0.2-0.6,0.3c0,0-0.2,0-0.1,0.1l0.1,0.2c0.1,0,0.2,0.1,0.4,0.1
		c0,0,0.1,0,0.1-0.1c0,0.1,0.1,0.3,0.1,0.3c0,0.1,0,0.2-0.1,0.1V4.4c0-0.1-0.1,0-0.2,0c0,0.1,0,0.3,0.1,0.3c0,0.1-0.2,0-0.3,0.1
		c-0.1,0-0.2,0.2-0.2,0.1C12.1,5,12.2,5.1,12,5v0.1c0.1,0,0,0.1-0.1,0.1c0,0,0,0,0,0c0-0.1,0-0.2-0.1-0.2c0-0.1,0-0.1-0.1-0.2
		c-0.1-0.1,0-0.1,0-0.2c-0.1,0-0.1,0.1-0.2,0.1V4.6c0,0,0.1-0.1,0-0.1c0,0.2-0.2,0-0.2,0.2c0,0.1,0.1,0.1,0.1,0.2
		c0.2,0,0.2,0,0.2,0.2c0.2,0.1-0.1,0-0.1,0c0,0.1-0.1,0.2,0,0.2c0.1,0,0.1,0,0.1,0c0,0,0,0,0,0.1c0,0,0,0,0,0c0,0,0,0,0,0
		c0,0,0,0,0.1,0c0,0.1,0.3,0.2,0.1,0.4c0,0,0,0.1,0.1,0.1C11.9,6,11.8,6,11.7,6c0-0.1,0-0.1-0.1-0.1c0,0.1-0.2,0-0.3,0.1l-0.1-0.1
		c0,0.1-0.1,0.5-0.1,0.5c0,0.2,0.1,0.3,0.3,0.3c0,0,0.4,0,0.4-0.1s0.1-0.1,0.1-0.2c0-0.1,0.2-0.5,0.2-0.5s0.3,0.1,0.4,0
		c0,0,0.1,0,0.1-0.1c0.1,0,0.1,0.2,0.2,0.2c0.1,0.1,0.2,0.1,0.3,0.2c0.1,0,0.1,0.2,0.1,0.3c0.1-0.1,0.1-0.1,0.1-0.2s0.1,0,0.2,0
		c-0.1,0,0-0.1-0.2-0.1V6.1c-0.2,0-0.2-0.2-0.3-0.2c0-0.1-0.1-0.1-0.1-0.2c0.1-0.1,0.3,0.2,0.4,0.2L13.5,6c0.1,0,0,0.2,0,0.2
		c0.1,0,0,0,0.1,0.1c0.1,0.1,0,0.3,0.2,0.3c0-0.1,0.2-0.2,0.1-0.2c0-0.1-0.1-0.3,0.1-0.3c0.1,0,0.2,0,0.2,0.1s0,0.2,0.1,0.3
		c0,0,0.1,0,0.1,0v0c0-0.2,0.1-0.3,0.2-0.5c0-0.2,0.1-0.2,0.1,0c0.1,0,0,0.1,0.2,0.1c0,0,0.1-0.1,0.1,0c0.1,0,0.1,0.1,0.2,0.1
		c0.1,0.1,0.3,0.1,0.3,0.3c0.2,0-0.1,0.2-0.1,0.1c-0.2,0.1-0.2-0.1-0.3-0.1c0,0.2-0.1,0-0.1,0c0,0.1-0.2,0.1-0.3,0.1c0,0,0,0,0,0
		c0,0,0.2,0.1,0.2,0h0.2c0,0.1,0,0.2-0.1,0.3C15,7,14.9,7,14.9,7.1c-0.1,0-0.1,0.1,0,0.1c0,0.1-0.1,0.1-0.2,0.1
		c0,0.1,0.2,0.3,0.3,0.3c0,0.1,0.1,0.2,0.2,0.3c0,0.1,0.1,0.2,0.1,0.3c0,0.1,0.3,0.7,0.2,0.7C15.5,9,15.6,9,15.6,9
		c0.1,0,0.1,0.3,0.3,0.3c0,0,0.2-0.1,0.3-0.1C16.2,9,16.5,9,16.6,9c0-0.1,0.4-0.2,0.4-0.3l0.1-0.1v0.1
		C16.6,10.3,16.3,11.5,15.8,12.5z"/>
	<path d="M6.9,5.6c0,0,0.1-0.1,0.1-0.1C6.9,5.5,6.9,5.5,6.9,5.6z"/>
	<path d="M14.7,6.6c-0.1-0.1-0.2,0-0.3,0v0.1C14.4,6.6,14.6,6.6,14.7,6.6z"/>
	<path d="M6.7,16.4C6.8,16.4,6.7,16.3,6.7,16.4L6.7,16.4z"/>
	<path d="M6,8.5c0,0.1-0.1,0-0.2,0C5.8,8.6,6,8.6,6,8.5c0,0.2,0.2,0.2,0.3,0.2c0.1,0,0-0.1,0-0.2C6.1,8.6,6.1,8.5,6,8.5z"/>
</g>
<path d="M11,5.3c0.2,0,0.3-0.1,0.3-0.3c0.1-0.2-0.1-0.1-0.1-0.1s-0.1-0.1-0.1,0c0,0,0,0.1,0.1,0.1c0,0-0.3,0.1-0.1,0.1
	C11,5.1,11,5.2,11,5.3z M6.8,8.8C6.7,8.9,6.8,8.8,6.8,8.8c-0.1,0.1-0.2,0-0.3,0l0.1,0.1H6.4c0,0.1,0.2,0.1,0.2,0L6.8,8.8L6.8,8.8z"
	/>
</svg>
