<?xml version="1.0" encoding="utf-8"?>
<!-- Generator: Adobe Illustrator 16.0.4, SVG Export Plug-In . SVG Version: 6.00 Build 0)  -->
<!DOCTYPE svg PUBLIC "-//W3C//DTD SVG 1.1//EN" "http://www.w3.org/Graphics/SVG/1.1/DTD/svg11.dtd">
<svg version="1.1" id="Layer_1" xmlns="http://www.w3.org/2000/svg" xmlns:xlink="http://www.w3.org/1999/xlink" x="0px" y="0px"
	 width="18px" height="18px" viewBox="-56.5 34.5 18 18" style="enable-background:new -56.5 34.5 18 18;" xml:space="preserve">
<path d="M-39.5,43.5c0-4.4-3.6-8-8-8c-4.4,0-8,3.6-8,8c0,1.4,0.3,2.6,0.9,3.7c-0.2,0.3-0.3,0.7-0.3,1.1c0,1.2,1,2.2,2.2,2.2
	c0.1,0,0.1,0,0.2,0v1h2v-7h-2v1.6c-0.1,0-0.1,0-0.2,0c-0.2,0-0.5,0-0.7,0.1c-0.4-0.8-0.6-1.7-0.6-2.7c0-3.6,2.9-6.5,6.5-6.5
	c3.6,0,6.5,2.9,6.5,6.5c0,1-0.2,1.9-0.6,2.7c-0.2-0.1-0.4-0.1-0.6-0.1c-0.1,0-0.2,0-0.3,0v-1.6h-2v7h2v-1c0.1,0,0.1,0,0.2,0
	c1.2,0,2.2-1,2.2-2.2c0-0.4-0.1-0.8-0.3-1.2C-39.8,46-39.5,44.8-39.5,43.5z"/>
</svg>
