<?xml version="1.0" encoding="utf-8"?>
<!-- Generator: Adobe Illustrator 23.0.0, SVG Export Plug-In . SVG Version: 6.00 Build 0)  -->
<svg version="1.1" id="Layer_1" xmlns="http://www.w3.org/2000/svg" xmlns:xlink="http://www.w3.org/1999/xlink" x="0px" y="0px"
	 viewBox="0 0 18 18" style="enable-background:new 0 0 18 18;" xml:space="preserve">
<path d="M17,9c0-4.4-3.6-8-8-8S1,4.6,1,9c0,1.4,0.3,2.6,0.9,3.7c-0.2,0.3-0.3,0.7-0.3,1.1c0,1.2,1,2.2,2.2,2.2H4v1h2v-7H4v1.6H3.8
	c-0.2,0-0.5,0-0.7,0.1C2.7,10.9,2.5,10,2.5,9c0-3.6,2.9-6.5,6.5-6.5s6.5,2.9,6.5,6.5c0,1-0.2,1.9-0.6,2.7c-0.2-0.1-0.4-0.1-0.6-0.1
	H14V10h-2v7h2v-1h0.2c1.2,0,2.2-1,2.2-2.2c0-0.4-0.1-0.8-0.3-1.2C16.7,11.5,17,10.3,17,9L17,9z"/>
</svg>
