<?xml version="1.0" encoding="utf-8"?>
<!-- Generator: Adobe Illustrator 23.0.0, SVG Export Plug-In . SVG Version: 6.00 Build 0)  -->
<svg version="1.1" id="Layer_1" xmlns="http://www.w3.org/2000/svg" xmlns:xlink="http://www.w3.org/1999/xlink" x="0px" y="0px"
	 viewBox="0 0 18 18" style="enable-background:new 0 0 18 18;" xml:space="preserve">
<path d="M2.8,11c-0.2-0.6-0.3-1.3-0.3-2c0-3.6,2.9-6.5,6.5-6.5c0.7,0,1.4,0.1,2,0.3l1.2-1.2c-1-0.4-2-0.7-3.1-0.7c-4.4,0-8,3.6-8,8
	c0,1.1,0.2,2.2,0.7,3.1C1.8,12,2.8,11,2.8,11z M15.3,4.1l2.2-2.2l-1.4-1.4L0.5,16.1l1.4,1.4l1.6-1.6c0.1,0,0.2,0.1,0.3,0.1H4v1h2
	v-3.6l8.2-8.2C15,6.3,15.5,7.6,15.5,9c0,1-0.2,1.9-0.6,2.7c-0.2-0.1-0.4-0.1-0.6-0.1H14V10h-2v7h2v-1h0.2c1.2,0,2.2-1,2.2-2.2
	c0-0.4-0.1-0.8-0.3-1.2C16.7,11.5,17,10.3,17,9C17,7.2,16.4,5.5,15.3,4.1z"/>
</svg>
