<?xml version="1.0" encoding="utf-8"?>
<!-- Generator: Adobe Illustrator 16.0.4, SVG Export Plug-In . SVG Version: 6.00 Build 0)  -->
<!DOCTYPE svg PUBLIC "-//W3C//DTD SVG 1.1//EN" "http://www.w3.org/Graphics/SVG/1.1/DTD/svg11.dtd">
<svg version="1.1" id="Layer_1" xmlns="http://www.w3.org/2000/svg" xmlns:xlink="http://www.w3.org/1999/xlink" x="0px" y="0px"
	 width="18px" height="18px" viewBox="-56.5 34.5 18 18" style="enable-background:new -56.5 34.5 18 18;" xml:space="preserve">
<path d="M-47.5,34.5c-5,0-9,4-9,9s4,9,9,9s9-4,9-9S-42.5,34.5-47.5,34.5z M-47.5,51.5c-4.4,0-8-3.6-8-8s3.6-8,8-8c4.4,0,8,3.6,8,8
	S-43.1,51.5-47.5,51.5z"/>
<rect x="-48.5" y="38" width="2" height="2"/>
<polygon points="-45.5,48.5 -49.5,48.5 -49.5,46.5 -48.5,46.5 -48.5,43.5 -49.5,43.5 -49.5,41.5 -46.5,41.5 -46.5,46.5 -45.5,46.5 
	"/>
</svg>
