<?xml version="1.0" encoding="utf-8"?>
<!-- Generator: Adobe Illustrator 23.0.0, SVG Export Plug-In . SVG Version: 6.00 Build 0)  -->
<svg version="1.1" id="Layer_1" xmlns="http://www.w3.org/2000/svg" xmlns:xlink="http://www.w3.org/1999/xlink" x="0px" y="0px"
	 viewBox="0 0 18 18" style="enable-background:new 0 0 18 18;" xml:space="preserve">
<path d="M0,0.5h10V2H0V0.5z M18,8V6.5H9V3H1v15h11v-3h2v3h3V9H9V8H18z M4,16H3v-2h1V16z M4,12H3v-2h1V12z M4,8H3V6h1V8z M7,16H6v-2
	h1V16z M7,12H6v-2h1V12z M7,8H6V6h1V8z M14,11h1v2h-1V11z M11,11h1v2h-1V11z"/>
</svg>
