<?xml version="1.0" encoding="utf-8"?>
<!-- Generator: Adobe Illustrator 16.0.4, SVG Export Plug-In . SVG Version: 6.00 Build 0)  -->
<!DOCTYPE svg PUBLIC "-//W3C//DTD SVG 1.1//EN" "http://www.w3.org/Graphics/SVG/1.1/DTD/svg11.dtd">
<svg version="1.1" id="Layer_1" xmlns="http://www.w3.org/2000/svg" xmlns:xlink="http://www.w3.org/1999/xlink" x="0px" y="0px"
	 width="18px" height="18px" viewBox="-56.5 34.5 18 18" style="enable-background:new -56.5 34.5 18 18;" xml:space="preserve">
<g>
	<rect x="-56.5" y="35" width="10" height="1.5"/>
	<path d="M-38.5,42.5V41h-9v-3.5h-8v15h8h1h2v-3h2v3h3v-9h-8v-1H-38.5z M-52.5,50.5h-1v-2h1V50.5z M-52.5,46.5h-1v-2h1V46.5z
		 M-52.5,42.5h-1v-2h1V42.5z M-49.5,50.5h-1v-2h1V50.5z M-49.5,46.5h-1v-2h1V46.5z M-49.5,42.5h-1v-2h1V42.5z M-42.5,45.5h1v2h-1
		V45.5z M-45.5,45.5h1v2h-1V45.5z"/>
</g>
</svg>
