<?xml version="1.0" encoding="utf-8"?>
<!-- Generator: Adobe Illustrator 23.0.0, SVG Export Plug-In . SVG Version: 6.00 Build 0)  -->
<svg version="1.1" id="Layer_1" xmlns="http://www.w3.org/2000/svg" xmlns:xlink="http://www.w3.org/1999/xlink" x="0px" y="0px"
	 viewBox="0 0 18 18" style="enable-background:new 0 0 18 18;" xml:space="preserve">
<path d="M11,2c0-1.1-0.9-2-2-2S7,0.9,7,2v5.7l4-4V2z M5.5,9.2V8H4v2c0,0.2,0,0.4,0.1,0.6C4.1,10.6,5.5,9.2,5.5,9.2z M12.5,10
	c0,1.9-1.6,3.5-3.5,3.5c-0.9,0-1.8-0.4-2.4-1l1-1C8,11.8,8.4,12.1,9,12.1c1.1,0,2-0.9,2-2v-2l5.9-5.9l-1.1-1.1L1.1,15.9L2.2,17
	l3.4-3.4c0.7,0.7,1.7,1.2,2.7,1.4v1.5H6.1V18h6v-1.5H9.9v-1.6c2.4-0.4,4.2-2.4,4.2-4.9V8h-1.6V10z"/>
</svg>
