<?xml version="1.0" encoding="utf-8"?>
<!-- Generator: Adobe Illustrator 16.0.4, SVG Export Plug-In . SVG Version: 6.00 Build 0)  -->
<!DOCTYPE svg PUBLIC "-//W3C//DTD SVG 1.1//EN" "http://www.w3.org/Graphics/SVG/1.1/DTD/svg11.dtd">
<svg version="1.1" id="Layer_1" xmlns="http://www.w3.org/2000/svg" xmlns:xlink="http://www.w3.org/1999/xlink" x="0px" y="0px"
	 width="18px" height="18px" viewBox="-56.5 34.5 18 18" style="enable-background:new -56.5 34.5 18 18;" xml:space="preserve">
<g>
	<path d="M-45.5,36.5c0-1.1-0.9-2-2-2c-1.1,0-2,0.9-2,2v5.7l4-4V36.5z"/>
	<path d="M-51,43.7v-1.2h-1.5v2c0,0.2,0,0.4,0.1,0.6L-51,43.7z"/>
	<path d="M-44,44.5c0,1.9-1.6,3.5-3.5,3.5c-0.9,0-1.8-0.4-2.4-1l1-1c0.4,0.3,0.8,0.6,1.4,0.6c1.1,0,2-0.9,2-2v-2l5.9-5.9l-1.1-1.1
		l-14.7,14.8l1.1,1.1l3.4-3.4c0.7,0.7,1.7,1.2,2.7,1.4V51h-2.2v1.5h6V51h-2.2v-1.6c2.4-0.4,4.2-2.4,4.2-4.9v-2H-44V44.5z"/>
</g>
</svg>
