<?xml version="1.0" encoding="utf-8"?>
<!-- Generator: Adobe Illustrator 23.0.0, SVG Export Plug-In . SVG Version: 6.00 Build 0)  -->
<svg version="1.1" id="Layer_1" xmlns="http://www.w3.org/2000/svg" xmlns:xlink="http://www.w3.org/1999/xlink" x="0px" y="0px"
	 viewBox="0 0 18 18" style="enable-background:new 0 0 18 18;" xml:space="preserve">
<path d="M12.5,8v2c0,1.9-1.6,3.5-3.5,3.5S5.5,11.9,5.5,10V8H4v2c0,2.5,1.9,4.5,4.2,4.9v1.6H6V18h6v-1.5H9.8v-1.6
	c2.4-0.4,4.2-2.4,4.2-4.9V8H12.5z"/>
<path d="M9,12c1.1,0,2-0.9,2-2V2c0-1.1-0.9-2-2-2S7,0.9,7,2v8C7,11.1,7.9,12,9,12z"/>
</svg>
