<?xml version="1.0" encoding="utf-8"?>
<!-- Generator: Adobe Illustrator 16.0.4, SVG Export Plug-In . SVG Version: 6.00 Build 0)  -->
<!DOCTYPE svg PUBLIC "-//W3C//DTD SVG 1.1//EN" "http://www.w3.org/Graphics/SVG/1.1/DTD/svg11.dtd">
<svg version="1.1" id="Layer_1" xmlns="http://www.w3.org/2000/svg" xmlns:xlink="http://www.w3.org/1999/xlink" x="0px" y="0px"
	 width="18px" height="18px" viewBox="-56.5 34.5 18 18" style="enable-background:new -56.5 34.5 18 18;" xml:space="preserve">
<g>
	<path d="M-44,42.5v2c0,1.9-1.6,3.5-3.5,3.5s-3.5-1.6-3.5-3.5v-2h-1.5v2c0,2.5,1.9,4.5,4.2,4.9V51h-2.2v1.5h6V51h-2.2v-1.6
		c2.4-0.4,4.2-2.4,4.2-4.9v-2H-44z"/>
	<path d="M-47.5,46.5c1.1,0,2-0.9,2-2v-8c0-1.1-0.9-2-2-2c-1.1,0-2,0.9-2,2v8C-49.5,45.6-48.6,46.5-47.5,46.5z"/>
</g>
</svg>
