<?xml version="1.0" encoding="utf-8"?>
<!-- Generator: Adobe Illustrator 23.0.0, SVG Export Plug-In . SVG Version: 6.00 Build 0)  -->
<svg version="1.1" id="Layer_1" xmlns="http://www.w3.org/2000/svg" xmlns:xlink="http://www.w3.org/1999/xlink" x="0px" y="0px"
	 viewBox="0 0 18 18" style="enable-background:new 0 0 18 18;" xml:space="preserve">
<path d="M0,18h14.5l2.5-8H3L0,18z"/>
<path d="M6,8L5,6H0v12L2.2,8H6z M10.1,8c0-0.2-0.1-0.3-0.1-0.5C10,6.1,11.1,5,12.5,5h1.7l-1.6,1.6L14,8l4-4l-4-4l-1.4,1.4L14.2,3
	h-1.7C10,3,8,5,8,7.5C8,7.7,8,7.8,8.1,8H10.1z"/>
</svg>
