<?xml version="1.0" encoding="utf-8"?>
<!-- Generator: Adobe Illustrator 23.0.0, SVG Export Plug-In . SVG Version: 6.00 Build 0)  -->
<svg version="1.1" id="Layer_1" xmlns="http://www.w3.org/2000/svg" xmlns:xlink="http://www.w3.org/1999/xlink" x="0px" y="0px"
	 viewBox="0 0 18 18" style="enable-background:new 0 0 18 18;" xml:space="preserve">
<path d="M2,0h3v3H2V0z M7,0h3v3H7V0z M12,0h3v3h-3V0z M2,5h3v3H2V5z M7,5h3v3H7V5z M12,5h3v3h-3V5z M2,10h3v3H2V10z M7,10h3v3H7V10z
	 M7,15h3v3H7V15z M12,10h3v3h-3V10z"/>
</svg>
