<?xml version="1.0" encoding="utf-8"?>
<!-- Generator: Adobe Illustrator 16.0.4, SVG Export Plug-In . SVG Version: 6.00 Build 0)  -->
<!DOCTYPE svg PUBLIC "-//W3C//DTD SVG 1.1//EN" "http://www.w3.org/Graphics/SVG/1.1/DTD/svg11.dtd">
<svg version="1.1" id="Layer_1" xmlns="http://www.w3.org/2000/svg" xmlns:xlink="http://www.w3.org/1999/xlink" x="0px" y="0px"
	 width="18px" height="18px" viewBox="-56.5 34.5 18 18" style="enable-background:new -56.5 34.5 18 18;" xml:space="preserve">
<g>
	<path d="M-47,40.5h-1.5v3h1.5c0.5,0,1.5-0.3,1.5-1.5C-45.5,40.7-46.5,40.5-47,40.5z"/>
	<path d="M-47.5,34.5c-5,0-9,4-9,9s4,9,9,9s9-4,9-9S-42.5,34.5-47.5,34.5z M-46.5,45.5h-2l0,0v3h-2v-10h4c1.5,0,3,1.4,3,3.5
		S-45,45.5-46.5,45.5z"/>
</g>
</svg>
