<?xml version="1.0" encoding="utf-8"?>
<!-- Generator: Adobe Illustrator 23.0.0, SVG Export Plug-In . SVG Version: 6.00 Build 0)  -->
<svg version="1.1" id="Layer_1" xmlns="http://www.w3.org/2000/svg" xmlns:xlink="http://www.w3.org/1999/xlink" x="0px" y="0px"
	 viewBox="0 0 18 18" style="enable-background:new 0 0 18 18;" xml:space="preserve">
<path d="M9.2,3c2,0,3.3,0.8,3.3,1l0.4,2.4L16,7.9c0,0,0.3,0.1,0.5,0.1C16.7,8,18,7.1,18,6c0-2.9-1.2-5-8.8-5H8.8C1.2,1,0,3.1,0,6
	c0,1.1,1.3,2,1.5,2S2,7.9,2,7.9l3.1-1.5L5.5,4c0-0.2,1.3-1,3.3-1H9.2z M12.6,11.5L10,14.1V8h-2v6.1l-2.6-2.6L3.9,13l5,5l5-5
	L12.6,11.5z"/>
</svg>
