<?xml version="1.0" encoding="utf-8"?>
<!-- Generator: Adobe Illustrator 23.0.0, SVG Export Plug-In . SVG Version: 6.00 Build 0)  -->
<svg version="1.1" id="Layer_1" xmlns="http://www.w3.org/2000/svg" xmlns:xlink="http://www.w3.org/1999/xlink" x="0px" y="0px"
	 viewBox="0 0 18 18" style="enable-background:new 0 0 18 18;" xml:space="preserve">
<path d="M5.8,11.9c-1.4-1.4-1.8-3-1.7-3.1l1.4-2L4.3,3.5c0,0-0.1-0.3-0.3-0.4C3.9,3,2.3,2.7,1.5,3.5c-2.1,2.1-2.7,4.5,2.8,10
	l0.2,0.2c5.5,5.5,7.9,4.9,10,2.8c0.8-0.8,0.5-2.4,0.4-2.5s-0.4-0.3-0.4-0.3l-3.3-1.2l-2,1.4c-0.1,0.1-1.7-0.2-3.1-1.7
	C6.1,12.2,5.8,11.9,5.8,11.9z M15.8,9.2L13,6.4l-2.8,2.8L8.8,7.8L11.6,5L8.8,2.2l1.4-1.4L13,3.6l2.8-2.8l1.4,1.4L14.4,5l2.8,2.8
	L15.8,9.2z"/>
</svg>
