<?xml version="1.0" encoding="utf-8"?>
<!-- Generator: Adobe Illustrator 16.0.4, SVG Export Plug-In . SVG Version: 6.00 Build 0)  -->
<!DOCTYPE svg PUBLIC "-//W3C//DTD SVG 1.1//EN" "http://www.w3.org/Graphics/SVG/1.1/DTD/svg11.dtd">
<svg version="1.1" id="Layer_1" xmlns="http://www.w3.org/2000/svg" xmlns:xlink="http://www.w3.org/1999/xlink" x="0px" y="0px"
	 width="18px" height="18px" viewBox="-56.5 34.5 18 18" style="enable-background:new -56.5 34.5 18 18;" xml:space="preserve">
<path d="M-50.7,46.4c-1.4-1.4-1.8-3-1.7-3.1l1.4-2l-1.2-3.3c0,0-0.1-0.3-0.3-0.4c-0.1-0.1-1.7-0.4-2.5,0.4c-2.1,2.1-2.7,4.5,2.8,10
	l0.2,0.2c5.5,5.5,7.9,4.9,10,2.8c0.8-0.8,0.5-2.4,0.4-2.5c-0.1-0.1-0.4-0.3-0.4-0.3l-3.3-1.2l-2,1.4c-0.1,0.1-1.7-0.2-3.1-1.7
	L-50.7,46.4z"/>
<polygon points="-40.7,43.7 -43.5,40.9 -46.3,43.7 -47.7,42.3 -44.9,39.5 -47.7,36.7 -46.3,35.3 -43.5,38.1 -40.7,35.3 -39.3,36.7 
	-42.1,39.5 -39.3,42.3 "/>
</svg>
