<?xml version="1.0" encoding="utf-8"?>
<!-- Generator: Adobe Illustrator 16.0.4, SVG Export Plug-In . SVG Version: 6.00 Build 0)  -->
<!DOCTYPE svg PUBLIC "-//W3C//DTD SVG 1.1//EN" "http://www.w3.org/Graphics/SVG/1.1/DTD/svg11.dtd">
<svg version="1.1" id="Layer_1" xmlns="http://www.w3.org/2000/svg" xmlns:xlink="http://www.w3.org/1999/xlink" x="0px" y="0px"
	 width="18px" height="18px" viewBox="-56.5 34.5 18 18" style="enable-background:new -56.5 34.5 18 18;" xml:space="preserve">
<polygon points="-46.5,37.5 -42.9,37.5 -47.3,41.9 -45.9,43.3 -41.5,39 -41.5,42.5 -39.5,42.5 -39.5,35.5 -46.5,35.5 "/>
<path d="M-50.7,46.4c-1.4-1.4-1.8-3-1.7-3.1l1.4-2l-1.2-3.3c0,0-0.1-0.3-0.3-0.4c-0.1-0.1-1.7-0.4-2.5,0.4c-2.1,2.1-2.7,4.5,2.8,10
	l0.2,0.2c5.5,5.5,7.9,4.9,10,2.8c0.8-0.8,0.5-2.4,0.4-2.5c-0.1-0.1-0.4-0.3-0.4-0.3l-3.3-1.2l-2,1.4c-0.1,0.1-1.7-0.2-3.1-1.7
	L-50.7,46.4z"/>
</svg>
