<?xml version="1.0" encoding="utf-8"?>
<!-- Generator: Adobe Illustrator 23.0.0, SVG Export Plug-In . SVG Version: 6.00 Build 0)  -->
<svg version="1.1" id="Layer_1" xmlns="http://www.w3.org/2000/svg" xmlns:xlink="http://www.w3.org/1999/xlink" x="0px" y="0px"
	 viewBox="0 0 18 18" style="enable-background:new 0 0 18 18;" xml:space="preserve">
<path d="M9,9l4.1,5c-1.1,0.9-2.6,1.5-4.1,1.5c-3.6,0-6.5-2.9-6.5-6.5S5.4,2.5,9,2.5V9z"/>
<path d="M9,18c5,0,9-4,9-9s-4-9-9-9S0,4,0,9S4,18,9,18z M9,1c4.4,0,8,3.6,8,8s-3.6,8-8,8s-8-3.6-8-8S4.6,1,9,1z"/>
</svg>
