<?xml version="1.0" encoding="utf-8"?>
<!-- Generator: Adobe Illustrator 16.0.4, SVG Export Plug-In . SVG Version: 6.00 Build 0)  -->
<!DOCTYPE svg PUBLIC "-//W3C//DTD SVG 1.1//EN" "http://www.w3.org/Graphics/SVG/1.1/DTD/svg11.dtd">
<svg version="1.1" id="Layer_1" xmlns="http://www.w3.org/2000/svg" xmlns:xlink="http://www.w3.org/1999/xlink" x="0px" y="0px"
	 width="18px" height="18px" viewBox="-56.5 34.5 18 18" style="enable-background:new -56.5 34.5 18 18;" xml:space="preserve">
<rect x="-48.5" y="46.5" width="2" height="2"/>
<path d="M-44.5,41.5c0-1.7-1.3-3-3-3s-3,1.3-3,3h2c0-0.6,0.4-1,1-1c0.6,0,1,0.4,1,1s-0.4,1-1,1l-1,1v2h2v-1.2
	C-45.3,43.9-44.5,42.8-44.5,41.5z"/>
<path d="M-47.5,35.5c4.4,0,8,3.6,8,8c0,4.4-3.6,8-8,8c-4.4,0-8-3.6-8-8C-55.5,39.1-51.9,35.5-47.5,35.5 M-47.5,34.5c-5,0-9,4-9,9
	s4,9,9,9s9-4,9-9S-42.5,34.5-47.5,34.5L-47.5,34.5z"/>
</svg>
