<?xml version="1.0" encoding="utf-8"?>
<!-- Generator: Adobe Illustrator 23.0.0, SVG Export Plug-In . SVG Version: 6.00 Build 0)  -->
<svg version="1.1" id="Layer_1" xmlns="http://www.w3.org/2000/svg" xmlns:xlink="http://www.w3.org/1999/xlink" x="0px" y="0px"
	 viewBox="0 0 18 18" style="enable-background:new 0 0 18 18;" xml:space="preserve">
<path d="M8,12h2v2H8V12z M12,7c0-1.7-1.3-3-3-3S6,5.3,6,7h2c0-0.6,0.4-1,1-1s1,0.4,1,1S9.6,8,9,8L8,9v2h2V9.8C11.2,9.4,12,8.3,12,7z
	"/>
<path d="M9,1c4.4,0,8,3.6,8,8s-3.6,8-8,8s-8-3.6-8-8S4.6,1,9,1 M9,0C4,0,0,4,0,9s4,9,9,9s9-4,9-9S14,0,9,0z"/>
</svg>
