<?xml version="1.0" encoding="utf-8"?>
<!-- Generator: Adobe Illustrator 16.0.4, SVG Export Plug-In . SVG Version: 6.00 Build 0)  -->
<!DOCTYPE svg PUBLIC "-//W3C//DTD SVG 1.1//EN" "http://www.w3.org/Graphics/SVG/1.1/DTD/svg11.dtd">
<svg version="1.1" id="Layer_1" xmlns="http://www.w3.org/2000/svg" xmlns:xlink="http://www.w3.org/1999/xlink" x="0px" y="0px"
	 width="18px" height="18px" viewBox="-56.5 34.5 18 18" style="enable-background:new -56.5 34.5 18 18;" xml:space="preserve">
<path d="M-47.5,34.5c-5,0-9,4-9,9s4,9,9,9s9-4,9-9S-42.5,34.5-47.5,34.5z M-46.5,48.5h-2v-2h2V48.5z M-46.5,44.3v1.2h-2v-2l1-1
	c0.6,0,1-0.4,1-1s-0.4-1-1-1c-0.6,0-1,0.4-1,1h-2c0-1.7,1.3-3,3-3s3,1.3,3,3C-44.5,42.8-45.3,43.9-46.5,44.3z"/>
</svg>
