<?xml version="1.0" encoding="utf-8"?>
<!-- Generator: Adobe Illustrator 23.0.0, SVG Export Plug-In . SVG Version: 6.00 Build 0)  -->
<svg version="1.1" id="Layer_1" xmlns="http://www.w3.org/2000/svg" xmlns:xlink="http://www.w3.org/1999/xlink" x="0px" y="0px"
	 viewBox="0 0 18 18" style="enable-background:new 0 0 18 18;" xml:space="preserve">
<path d="M9,0C4,0,0,4,0,9s4,9,9,9s9-4,9-9S14,0,9,0z M10,14H8v-2h2V14z M10,9.8V11H8V9l1-1c0.6,0,1-0.4,1-1S9.6,6,9,6S8,6.4,8,7H6
	c0-1.7,1.3-3,3-3s3,1.3,3,3C12,8.3,11.2,9.4,10,9.8z"/>
</svg>
