<?xml version="1.0" encoding="utf-8"?>
<!-- Generator: Adobe Illustrator 23.0.0, SVG Export Plug-In . SVG Version: 6.00 Build 0)  -->
<svg version="1.1" id="Layer_1" xmlns="http://www.w3.org/2000/svg" xmlns:xlink="http://www.w3.org/1999/xlink" x="0px" y="0px"
	 viewBox="0 0 18 18" style="enable-background:new 0 0 18 18;" xml:space="preserve">
<path d="M17.9,11.2c-0.5-0.8-1.7-0.2-2.2,0.1c0,0,0.1-0.6-0.3-0.8c-0.4-0.2-1.3,0-1.7,0.5c0,0-0.4-0.6-0.9-0.6s-2.2,1.2-2.7,1.6
	c1.1,0,3-0.3,3,1.5c0,1-0.6,1.5-2.6,1.5H8.2C8,14.9,6.9,14.7,6,13.6c0,0,1.3,0.4,2.4,0.4h2.7c0,0,1,0.1,1-0.5c0-0.5-1-0.5-1-0.5
	s-2.7,0-4-1.6C6.5,10.8,6,10,5.2,10C3,9.9,2,11.9,0,11.9L1,17c0,0,1.9-1,3-1c0.9,0,3.8,2,5,2c2.3,0,8.3-5.3,8.3-5.3
	S18.4,12,17.9,11.2z M5,0h2v2H5V0z M8,0h2v2H8V0z M11,0h2v2h-2V0z M5,3h2v2H5V3z M8,3h2v2H8V3z M11,3h2v2h-2V3z M5,6h2v2H5V6z M8,6
	h2v2H8V6z M11,6h2v2h-2V6z"/>
</svg>
