<?xml version="1.0" encoding="utf-8"?>
<!-- Generator: Adobe Illustrator 16.0.4, SVG Export Plug-In . SVG Version: 6.00 Build 0)  -->
<!DOCTYPE svg PUBLIC "-//W3C//DTD SVG 1.1//EN" "http://www.w3.org/Graphics/SVG/1.1/DTD/svg11.dtd">
<svg version="1.1" id="Layer_1" xmlns="http://www.w3.org/2000/svg" xmlns:xlink="http://www.w3.org/1999/xlink" x="0px" y="0px"
	 width="18px" height="18px" viewBox="-56.5 34.5 18 18" style="enable-background:new -56.5 34.5 18 18;" xml:space="preserve">
<g>
	<path d="M-38.6,45.7c-0.5-0.8-1.7-0.2-2.2,0.1c0,0,0.1-0.6-0.3-0.8c-0.4-0.2-1.3,0-1.7,0.5c0,0-0.4-0.6-0.9-0.6
		c-0.5,0-2.2,1.2-2.7,1.6c1.1,0,3-0.3,3,1.5c0,1-0.6,1.5-2.6,1.5c0,0-2.1,0-2.3,0c-0.2-0.1-1.3-0.3-2.2-1.4c0,0,1.3,0.4,2.4,0.4
		c1.2,0,2.7,0,2.7,0s1,0.1,1-0.5c0-0.5-1-0.5-1-0.5s-2.7,0-4-1.6c-0.6-0.6-1.1-1.4-1.9-1.4c-2.2-0.1-3.2,1.9-5.2,1.9l1,5.1
		c0,0,1.9-1,3-1c0.9,0,3.8,2,5,2c2.3,0,8.3-5.3,8.3-5.3S-38.1,46.5-38.6,45.7z"/>
	<rect x="-51.5" y="34.5" width="2" height="2"/>
	<rect x="-48.5" y="34.5" width="2" height="2"/>
	<rect x="-45.5" y="34.5" width="2" height="2"/>
	<rect x="-51.5" y="37.5" width="2" height="2"/>
	<rect x="-48.5" y="37.5" width="2" height="2"/>
	<rect x="-45.5" y="37.5" width="2" height="2"/>
	<rect x="-51.5" y="40.5" width="2" height="2"/>
	<rect x="-48.5" y="40.5" width="2" height="2"/>
	<rect x="-45.5" y="40.5" width="2" height="2"/>
</g>
</svg>
