<?xml version="1.0" encoding="utf-8"?>
<!-- Generator: Adobe Illustrator 16.0.4, SVG Export Plug-In . SVG Version: 6.00 Build 0)  -->
<!DOCTYPE svg PUBLIC "-//W3C//DTD SVG 1.1//EN" "http://www.w3.org/Graphics/SVG/1.1/DTD/svg11.dtd">
<svg version="1.1" id="Layer_1" xmlns="http://www.w3.org/2000/svg" xmlns:xlink="http://www.w3.org/1999/xlink" x="0px" y="0px"
	 width="18px" height="18px" viewBox="-56.5 34.5 18 18" style="enable-background:new -56.5 34.5 18 18;" xml:space="preserve">
<g>
	<path d="M-51.8,42.4c-0.6-0.4-1-1.1-1-1.9c0-1.2,1-2.2,2.2-2.2c0.8,0,1.5,0.4,1.9,1l1,0.2l2-2.8l-1.1-1.1l-1.3,1
		c-0.5-0.3-0.9-0.4-1.4-0.5l-0.3-1.6h-1.5l-0.3,1.6c-0.5,0.1-0.9,0.2-1.3,0.5l-1.3-1l-1.1,1.1l1,1.3c-0.3,0.5-0.5,0.9-0.6,1.4
		l-1.6,0.3v1.5l1.6,0.3c0.1,0.5,0.3,1,0.5,1.4l-1,1.4l1.1,1.1l2.8-2.1L-51.8,42.4z"/>
	<path d="M-38.5,46.8v-1.6l-1.8-0.3c-0.2-0.5-0.3-1.1-0.6-1.5l1.1-1.5l-1.1-1.1l-1.5,1.1c-0.4-0.2-1-0.5-1.5-0.6l-0.3-1.8h-1.6
		l-0.3,1.8c-0.5,0.1-1,0.3-1.5,0.6l-1.4-1.1l-1.2,1.1l1.1,1.5c-0.2,0.5-0.5,1-0.6,1.5l-1.8,0.3v1.6l1.8,0.3c0.2,0.5,0.3,1.1,0.6,1.5
		l-1.1,1.5l1.1,1.1l1.5-1.1c0.4,0.2,1,0.5,1.5,0.6l0.3,1.8h1.6l0.3-1.8c0.5-0.2,1.1-0.3,1.5-0.6l1.5,1.1l1.1-1.1l-1.1-1.5
		c0.2-0.4,0.5-1,0.6-1.5L-38.5,46.8z M-45,48.5c-1.4,0-2.5-1.1-2.5-2.5s1.1-2.5,2.5-2.5s2.5,1.1,2.5,2.5S-43.6,48.5-45,48.5z"/>
</g>
</svg>
