<?xml version="1.0" encoding="utf-8"?>
<!-- Generator: Adobe Illustrator 23.0.0, SVG Export Plug-In . SVG Version: 6.00 Build 0)  -->
<svg version="1.1" id="Layer_1" xmlns="http://www.w3.org/2000/svg" xmlns:xlink="http://www.w3.org/1999/xlink" x="0px" y="0px"
	 viewBox="0 0 18 18" style="enable-background:new 0 0 18 18;" xml:space="preserve">
<path d="M4.7,7.9c-0.6-0.4-1-1.1-1-1.9c0-1.2,1-2.2,2.2-2.2c0.8,0,1.5,0.4,1.9,1l1,0.2l2-2.8L9.7,1.1l-1.3,1C7.9,1.8,7.5,1.7,7,1.6
	L6.7,0H5.2L4.9,1.6C4.4,1.7,4,1.8,3.6,2.1l-1.3-1L1.2,2.2l1,1.3C1.9,4,1.7,4.4,1.6,4.9L0,5.2v1.5L1.6,7c0.1,0.5,0.3,1,0.5,1.4
	l-1,1.4l1.1,1.1L5,8.8C5,8.8,4.7,7.9,4.7,7.9z"/>
<path d="M18,12.3v-1.6l-1.8-0.3c-0.2-0.5-0.3-1.1-0.6-1.5l1.1-1.5l-1.1-1.1l-1.5,1.1c-0.4-0.2-1-0.5-1.5-0.6L12.3,5h-1.6l-0.3,1.8
	c-0.5,0.1-1,0.3-1.5,0.6L7.5,6.3L6.3,7.4l1.1,1.5c-0.2,0.5-0.5,1-0.6,1.5L5,10.7v1.6l1.8,0.3c0.2,0.5,0.3,1.1,0.6,1.5l-1.1,1.5
	l1.1,1.1l1.5-1.1c0.4,0.2,1,0.5,1.5,0.6l0.3,1.8h1.6l0.3-1.8c0.5-0.2,1.1-0.3,1.5-0.6l1.5,1.1l1.1-1.1l-1.1-1.5
	c0.2-0.4,0.5-1,0.6-1.5C16.2,12.6,18,12.3,18,12.3z M11.5,14C10.1,14,9,12.9,9,11.5S10.1,9,11.5,9s2.5,1.1,2.5,2.5S12.9,14,11.5,14z
	"/>
</svg>
