<?xml version="1.0" encoding="utf-8"?>
<!-- Generator: Adobe Illustrator 16.0.4, SVG Export Plug-In . SVG Version: 6.00 Build 0)  -->
<!DOCTYPE svg PUBLIC "-//W3C//DTD SVG 1.1//EN" "http://www.w3.org/Graphics/SVG/1.1/DTD/svg11.dtd">
<svg version="1.1" id="Layer_1" xmlns="http://www.w3.org/2000/svg" xmlns:xlink="http://www.w3.org/1999/xlink" x="0px" y="0px"
	 width="18px" height="18px" viewBox="-56.5 34.5 18 18" style="enable-background:new -56.5 34.5 18 18;" xml:space="preserve">
<path d="M-39.5,44.5v-2l-2.2-0.4c-0.2-0.6-0.4-1.3-0.7-1.8l1.3-1.8l-1.4-1.4l-1.8,1.3c-0.5-0.3-1.2-0.6-1.8-0.7l-0.4-2.2h-2
	l-0.4,2.2c-0.6,0.1-1.2,0.4-1.8,0.7l-1.7-1.3l-1.5,1.4l1.3,1.8c-0.3,0.6-0.6,1.2-0.7,1.8l-2.2,0.4v2l2.2,0.4
	c0.2,0.6,0.4,1.3,0.7,1.8l-1.3,1.8l1.4,1.4l1.8-1.3c0.5,0.3,1.2,0.6,1.8,0.7l0.4,2.2h2l0.4-2.2c0.6-0.2,1.3-0.4,1.8-0.7l1.8,1.3
	l1.4-1.4l-1.3-1.8c0.3-0.5,0.6-1.2,0.7-1.8L-39.5,44.5z M-47.5,46.5c-1.7,0-3-1.3-3-3s1.3-3,3-3s3,1.3,3,3S-45.8,46.5-47.5,46.5z"/>
</svg>
