<?xml version="1.0" encoding="utf-8"?>
<!-- Generator: Adobe Illustrator 23.0.0, SVG Export Plug-In . SVG Version: 6.00 Build 0)  -->
<svg version="1.1" id="Layer_1" xmlns="http://www.w3.org/2000/svg" xmlns:xlink="http://www.w3.org/1999/xlink" x="0px" y="0px"
	 viewBox="0 0 18 18" style="enable-background:new 0 0 18 18;" xml:space="preserve">
<path d="M1.9,3.8c0,0,1.4-1.1,4.5-0.8c0,0,2.2,0.3,3.1,2.1c0,0,0.3,0.6,0.4,1c0,0.5,0.1,0.6,0.1,0.8c0.1,0.3-0.1,0.7-0.1,0.8
	S9.8,8.1,10,8.3c0.2,0.3,0.7,1,0.8,1.1s0.3,0.5,0.2,0.7s-0.8,0.3-0.7,0.5c0,0.2,0.1,0.4,0.1,0.6c-0.1,0.2-1,0.2-1,0.4s1,0.3,0.8,0.5
	c-0.1,0.1-0.2,0.3-0.1,0.7c0.1,0.5-0.2,1-0.7,1.1s-1.8,0.1-2,0.6S7.2,16,7.2,16H1.3c0,0,0.8-1.5,0.3-3.8s-2-1.8-1.5-5.4
	C0.1,6.8,0.4,5,1.9,3.8z M12,11h1v3h-1V11z M14,10h1v5h-1V10z M16,9h1v7h-1V9z"/>
</svg>
