<?xml version="1.0" encoding="utf-8"?>
<!-- Generator: Adobe Illustrator 16.0.4, SVG Export Plug-In . SVG Version: 6.00 Build 0)  -->
<!DOCTYPE svg PUBLIC "-//W3C//DTD SVG 1.1//EN" "http://www.w3.org/Graphics/SVG/1.1/DTD/svg11.dtd">
<svg version="1.1" id="Layer_1" xmlns="http://www.w3.org/2000/svg" xmlns:xlink="http://www.w3.org/1999/xlink" x="0px" y="0px"
	 width="18px" height="18px" viewBox="-56.5 34.5 18 18" style="enable-background:new -56.5 34.5 18 18;" xml:space="preserve">
<path d="M-54.6,38.3c0,0,1.4-1.1,4.5-0.8c0,0,2.2,0.3,3.1,2.1c0,0,0.3,0.6,0.4,1c0,0.5,0.1,0.6,0.1,0.8c0.1,0.3-0.1,0.7-0.1,0.8
	c0,0.1-0.1,0.4,0.1,0.6c0.2,0.3,0.7,1,0.8,1.1c0.1,0.1,0.3,0.5,0.2,0.7s-0.8,0.3-0.7,0.5c0,0.2,0.1,0.4,0.1,0.6
	c-0.1,0.2-1,0.2-1,0.4c0,0.2,1,0.3,0.8,0.5c-0.1,0.1-0.2,0.3-0.1,0.7c0.1,0.5-0.2,1-0.7,1.1c-0.5,0.1-1.8,0.1-2,0.6
	c-0.2,0.5-0.2,1.5-0.2,1.5h-5.9c0,0,0.8-1.5,0.3-3.8c-0.5-2.3-2-1.8-1.5-5.4C-56.4,41.3-56.1,39.5-54.6,38.3z"/>
<rect x="-44.5" y="45.5" width="1" height="3"/>
<rect x="-42.5" y="44.5" width="1" height="5"/>
<rect x="-40.5" y="43.5" width="1" height="7"/>
</svg>
