<?xml version="1.0" encoding="utf-8"?>
<!-- Generator: Adobe Illustrator 16.0.4, SVG Export Plug-In . SVG Version: 6.00 Build 0)  -->
<!DOCTYPE svg PUBLIC "-//W3C//DTD SVG 1.1//EN" "http://www.w3.org/Graphics/SVG/1.1/DTD/svg11.dtd">
<svg version="1.1" id="Layer_1" xmlns="http://www.w3.org/2000/svg" xmlns:xlink="http://www.w3.org/1999/xlink" x="0px" y="0px"
	 width="18px" height="18px" viewBox="-56.5 34.5 18 18" style="enable-background:new -56.5 34.5 18 18;" xml:space="preserve">
<circle cx="-48.5" cy="38.5" r="4"/>
<polygon points="-38.5,49.5 -41.5,49.5 -41.5,52.5 -43.5,52.5 -43.5,49.5 -46.5,49.5 -46.5,47.5 -43.5,47.5 -43.5,44.5 -41.5,44.5 
	-41.5,47.5 -38.5,47.5 "/>
<path d="M-48.5,44c-1.9,0-3.6-1-4.6-2.5c-0.5,0.1-3.4,1-3.4,6c0,2.7,4,3,8,3c0.3,0,0.7,0,1,0v-4h3v-4.3C-45.5,43.3-46.9,44-48.5,44z
	"/>
</svg>
