<?xml version="1.0" encoding="utf-8"?>
<!-- Generator: Adobe Illustrator 23.0.0, SVG Export Plug-In . SVG Version: 6.00 Build 0)  -->
<svg version="1.1" id="Layer_1" xmlns="http://www.w3.org/2000/svg" xmlns:xlink="http://www.w3.org/1999/xlink" x="0px" y="0px"
	 viewBox="0 0 18 18" style="enable-background:new 0 0 18 18;" xml:space="preserve">
<path d="M13,1c-1.4,0-2.5,1.1-2.5,2.5c0,0.3,0.1,0.6,0.2,0.9c0.7,0.3,1.3,0.9,1.7,1.5C12.6,5.9,12.8,6,13,6c1.4,0,2.5-1.1,2.5-2.5
	S14.4,1,13,1z M5.6,5.9c0.4-0.7,1-1.2,1.7-1.5c0.1-0.3,0.2-0.6,0.2-0.9C7.5,2.1,6.4,1,5,1S2.5,2.1,2.5,3.5S3.6,6,5,6
	C5.2,6,5.4,6,5.6,5.9z M5.2,9.2C5.1,8.8,5,8.4,5,7.9c0-0.4,0.1-0.7,0.2-1.1H5c-1.2,0-2.3-0.6-2.9-1.6C1.8,5.3,0,5.8,0,8.9
	c0,1.3,1.3,1.7,3,1.8C3.7,9.9,4.6,9.4,5.2,9.2z M15.9,5.4C15.3,6.3,14.2,7,13,7h-0.2C12.9,7.3,13,7.7,13,8.1c0,0.5-0.1,0.9-0.2,1.3
	c0.7,0.2,1.5,0.7,2.2,1.6c1.7-0.1,3-0.6,3-1.8C18,6,16.2,5.4,15.9,5.4z"/>
<circle cx="9" cy="8" r="3"/>
<polygon points="9,11.9 7.5,13.3 9,16.9 10.6,13.3 "/>
<path d="M12.8,11l-2.5,6h4.6v-6H12.8z M14,14.7h-1.5v-0.8H14V14.7z"/>
<polygon points="3,11 3,17 7.6,17 5.2,11 "/>
</svg>
