<?xml version="1.0" encoding="utf-8"?>
<!-- Generator: Adobe Illustrator 16.0.4, SVG Export Plug-In . SVG Version: 6.00 Build 0)  -->
<!DOCTYPE svg PUBLIC "-//W3C//DTD SVG 1.1//EN" "http://www.w3.org/Graphics/SVG/1.1/DTD/svg11.dtd">
<svg version="1.1" id="Layer_1" xmlns="http://www.w3.org/2000/svg" xmlns:xlink="http://www.w3.org/1999/xlink" x="0px" y="0px"
	 width="18px" height="18px" viewBox="1.5 17.5 18 18" enable-background="new 1.5 17.5 18 18" xml:space="preserve">
<path d="M35.5,18.5c-1.4,0-2.5,1.1-2.5,2.5c0,0.3,0.1,0.6,0.2,0.9c0.7,0.3,1.3,0.9,1.7,1.5c0.2,0,0.4,0.1,0.6,0.1
	c1.4,0,2.5-1.1,2.5-2.5C38,19.6,36.9,18.5,35.5,18.5z"/>
<path d="M28.1,23.4c0.4-0.7,1-1.2,1.7-1.5c0.1-0.3,0.2-0.6,0.2-0.9c0-1.4-1.1-2.5-2.5-2.5c-1.4,0-2.5,1.1-2.5,2.5
	c0,1.4,1.1,2.5,2.5,2.5C27.7,23.5,27.9,23.5,28.1,23.4z"/>
<path d="M27.7,26.7c-0.1-0.4-0.2-0.8-0.2-1.3c0-0.4,0.1-0.7,0.2-1.1c-0.1,0-0.1,0-0.2,0c-1.2,0-2.3-0.6-2.9-1.6
	c-0.3,0.1-2.1,0.6-2.1,3.7c0,1.3,1.3,1.7,3,1.8C26.2,27.4,27.1,26.9,27.7,26.7z"/>
<path d="M38.4,22.9c-0.6,0.9-1.7,1.6-2.9,1.6c-0.1,0-0.1,0-0.2,0c0.1,0.3,0.2,0.7,0.2,1.1c0,0.5-0.1,0.9-0.2,1.3
	c0.7,0.2,1.5,0.7,2.2,1.6c1.7-0.1,3-0.6,3-1.8C40.5,23.5,38.7,22.9,38.4,22.9z"/>
<g>
	<circle cx="10.5" cy="25.5" r="3"/>
	<polygon points="10.5,29.4 9,30.8 10.5,34.4 12,30.8 	"/>
	<path d="M14.3,28.5l-2.5,6h4.6v-6H14.3z M15.5,32.2H14v-0.8h1.5V32.2z"/>
	<polygon points="4.5,28.5 4.5,34.5 9.1,34.5 6.7,28.5 	"/>
</g>
<g>
	<circle cx="31.5" cy="25.5" r="3"/>
	<polygon points="31.5,29.4 30,30.8 31.5,34.4 33.1,30.8 	"/>
	<path d="M35.3,28.5l-2.5,6h4.6v-6H35.3z M36.5,32.2H35v-0.8h1.5V32.2z"/>
	<polygon points="25.5,28.5 25.5,34.5 30.1,34.5 27.7,28.5 	"/>
</g>
<path d="M14.5,18.5c-1.4,0-2.5,1.1-2.5,2.5c0,0.3,0.1,0.6,0.2,0.9c0.1,0.1,0.3,0.1,0.4,0.2c0,0,0.1,0,0.1,0.1c0,0,0,0,0.1,0
	c0.2,0.1,0.4,0.3,0.5,0.4c0,0,0,0,0,0c0.2,0.2,0.3,0.3,0.4,0.5c0,0.1,0.1,0.1,0.1,0.2c0,0,0,0,0,0.1c0.2,0.1,0.4,0.1,0.6,0.1
	c1.4,0,2.5-1.1,2.5-2.5S15.9,18.5,14.5,18.5z"/>
<path d="M7.1,23.4c0,0,0.1-0.1,0.1-0.1c0,0,0,0,0,0c0.4-0.6,1-1.1,1.6-1.4C8.9,21.6,9,21.3,9,21c0-1.4-1.1-2.5-2.5-2.5
	C5.1,18.5,4,19.6,4,21s1.1,2.5,2.5,2.5C6.7,23.5,6.9,23.5,7.1,23.4z"/>
<path d="M14.4,24.5c0.1,0.2,0.1,0.4,0.1,0.6c0,0.1,0,0.2,0,0.4c0,0.2,0,0.5-0.1,0.7c0,0.1,0,0.2-0.1,0.3c0,0.1-0.1,0.2-0.1,0.3
	c-0.1,0.3-0.2,0.5-0.3,0.7c0,0,0,0,0,0h3.6v1h2v-4H14.4z"/>
<path d="M6.7,26.8c0-0.1-0.1-0.2-0.1-0.3c0-0.1,0-0.2-0.1-0.3c0-0.2-0.1-0.4-0.1-0.7c0-0.2,0-0.3,0-0.4c0-0.2,0.1-0.4,0.1-0.6H1.5v4
	h2v-1h3.6c0,0,0,0,0,0C6.9,27.3,6.8,27,6.7,26.8z"/>
</svg>
