<?xml version="1.0" encoding="utf-8"?>
<!-- Generator: Adobe Illustrator 16.0.4, SVG Export Plug-In . SVG Version: 6.00 Build 0)  -->
<!DOCTYPE svg PUBLIC "-//W3C//DTD SVG 1.1//EN" "http://www.w3.org/Graphics/SVG/1.1/DTD/svg11.dtd">
<svg version="1.1" id="Layer_1" xmlns="http://www.w3.org/2000/svg" xmlns:xlink="http://www.w3.org/1999/xlink" x="0px" y="0px"
	 width="18px" height="18px" viewBox="1.5 17.5 18 18" enable-background="new 1.5 17.5 18 18" xml:space="preserve">
<path d="M14.5,18.5c-1.4,0-2.5,1.1-2.5,2.5c0,0.3,0.1,0.6,0.2,0.9c0.7,0.3,1.3,0.9,1.7,1.5c0.2,0,0.4,0.1,0.6,0.1
	c1.4,0,2.5-1.1,2.5-2.5C17,19.6,15.9,18.5,14.5,18.5z"/>
<path d="M7.1,23.4c0.4-0.7,1-1.2,1.7-1.5C8.9,21.6,9,21.3,9,21c0-1.4-1.1-2.5-2.5-2.5C5.1,18.5,4,19.6,4,21c0,1.4,1.1,2.5,2.5,2.5
	C6.7,23.5,6.9,23.5,7.1,23.4z"/>
<ellipse cx="10.5" cy="25.5" rx="3" ry="3"/>
<path d="M14,27.7c-0.8,1.1-2,1.9-3.5,1.9c-1.4,0-2.7-0.8-3.5-1.9c-0.4,0.1-2.5,0.8-2.5,4.5c0,2,3,2.3,6,2.3s6-0.2,6-2.3
	C16.5,28.4,14.3,27.7,14,27.7z"/>
<path d="M6.7,26.7c-0.1-0.4-0.2-0.8-0.2-1.3c0-0.4,0.1-0.7,0.2-1.1c-0.1,0-0.1,0-0.2,0c-1.2,0-2.3-0.6-2.9-1.6
	c-0.3,0.1-2.1,0.6-2.1,3.7c0,1.3,1.3,1.7,3,1.8C5.2,27.4,6.1,26.9,6.7,26.7z"/>
<path d="M17.4,22.9c-0.6,0.9-1.7,1.6-2.9,1.6c-0.1,0-0.1,0-0.2,0c0.1,0.3,0.2,0.7,0.2,1.1c0,0.5-0.1,0.9-0.2,1.3
	c0.7,0.2,1.5,0.7,2.2,1.6c1.7-0.1,3-0.6,3-1.8C19.5,23.5,17.7,22.9,17.4,22.9z"/>
</svg>
