<?xml version="1.0" encoding="utf-8"?>
<!-- Generator: Adobe Illustrator 16.0.4, SVG Export Plug-In . SVG Version: 6.00 Build 0)  -->
<!DOCTYPE svg PUBLIC "-//W3C//DTD SVG 1.1//EN" "http://www.w3.org/Graphics/SVG/1.1/DTD/svg11.dtd">
<svg version="1.1" id="Layer_1" xmlns="http://www.w3.org/2000/svg" xmlns:xlink="http://www.w3.org/1999/xlink" x="0px" y="0px"
	 width="18px" height="18px" viewBox="-56.5 34.5 18 18" style="enable-background:new -56.5 34.5 18 18;" xml:space="preserve">
<path d="M-43.5,35.5c-1.4,0-2.5,1.1-2.5,2.5c0,0.3,0.1,0.6,0.2,0.9c0.7,0.3,1.3,0.9,1.7,1.5c0.2,0,0.4,0.1,0.6,0.1
	c1.4,0,2.5-1.1,2.5-2.5S-42.1,35.5-43.5,35.5z"/>
<path d="M-50.9,40.4c0.4-0.7,1-1.2,1.7-1.5c0.1-0.3,0.2-0.6,0.2-0.9c0-1.4-1.1-2.5-2.5-2.5c-1.4,0-2.5,1.1-2.5,2.5s1.1,2.5,2.5,2.5
	C-51.3,40.5-51.1,40.5-50.9,40.4z"/>
<circle cx="-47.5" cy="42.5" r="3"/>
<path d="M-44,44.8c-0.8,1.1-2,1.9-3.5,1.9c-1.4,0-2.7-0.8-3.5-1.9c-0.4,0.1-2.5,0.8-2.5,4.5c0,2,3,2.3,6,2.3s6-0.2,6-2.3
	C-41.5,45.5-43.7,44.8-44,44.8z"/>
<path d="M-51.3,43.8c-0.1-0.4-0.2-0.8-0.2-1.3c0-0.4,0.1-0.7,0.2-1.1c-0.1,0-0.1,0-0.2,0c-1.2,0-2.3-0.6-2.9-1.6
	c-0.3,0.1-2.1,0.6-2.1,3.7c0,1.3,1.3,1.7,3,1.8C-52.8,44.5-51.9,44-51.3,43.8z"/>
<path d="M-40.6,39.9c-0.6,0.9-1.7,1.6-2.9,1.6c-0.1,0-0.1,0-0.2,0c0.1,0.3,0.2,0.7,0.2,1.1c0,0.5-0.1,0.9-0.2,1.3
	c0.7,0.2,1.5,0.7,2.2,1.6c1.7-0.1,3-0.6,3-1.8C-38.5,40.5-40.3,39.9-40.6,39.9z"/>
</svg>
