<?xml version="1.0" encoding="utf-8"?>
<!-- Generator: Adobe Illustrator 23.0.0, SVG Export Plug-In . SVG Version: 6.00 Build 0)  -->
<svg version="1.1" id="Layer_1" xmlns="http://www.w3.org/2000/svg" xmlns:xlink="http://www.w3.org/1999/xlink" x="0px" y="0px"
	 viewBox="0 0 18 18" style="enable-background:new 0 0 18 18;" xml:space="preserve">
<path d="M14,5c-2.2,0-4,1.8-4,4c0,0.7,0.2,1.4,0.6,2H7.5C7.8,10.4,8,9.7,8,9c0-2.2-1.8-4-4-4S0,6.8,0,9c0,2.2,1.8,4,4,4l10,0
	c2.2,0,4-1.9,3.9-4.1C18,6.8,16.2,5,14,5z M4,11c-1.1,0-2-0.9-2-2c0-1.1,0.9-2,2-2l0,0c1.1,0,2,0.9,2,2C6,10.1,5.1,11,4,11z M14,11
	c-1.1,0-2-0.9-2-2c0-1.1,0.9-2,2-2s2,0.9,2,2S15.1,11,14,11z"/>
</svg>
