<?xml version="1.0" encoding="utf-8"?>
<!-- Generator: Adobe Illustrator 23.0.0, SVG Export Plug-In . SVG Version: 6.00 Build 0)  -->
<svg version="1.1" id="Layer_1" xmlns="http://www.w3.org/2000/svg" xmlns:xlink="http://www.w3.org/1999/xlink" x="0px" y="0px"
	 viewBox="0 0 18 18" style="enable-background:new 0 0 18 18;" xml:space="preserve">
<path d="M9,1.2l7.9,15.5C17,16.9,17,17,17,17s-0.1,0.1-0.3,0.1H1c0,0,0-0.1,0.1-0.3L9,1.2 M9,0C8.7,0,8.4,0.2,8.1,0.7L0.2,16.2
	c-0.5,1,0,1.8,1.1,1.8h15.4c1.1,0,1.6-0.8,1.1-1.8L9.9,0.7C9.7,0.2,9.3,0,9,0z"/>
<path d="M8,13h2v2H8V13z M8,7h2v5H8V7z"/>
</svg>
