<?xml version="1.0" encoding="utf-8"?>
<!-- Generator: Adobe Illustrator 16.0.4, SVG Export Plug-In . SVG Version: 6.00 Build 0)  -->
<!DOCTYPE svg PUBLIC "-//W3C//DTD SVG 1.1//EN" "http://www.w3.org/Graphics/SVG/1.1/DTD/svg11.dtd">
<svg version="1.1" id="Layer_1" xmlns="http://www.w3.org/2000/svg" xmlns:xlink="http://www.w3.org/1999/xlink" x="0px" y="0px"
	 width="18px" height="18px" viewBox="-56.5 34.5 18 18" style="enable-background:new -56.5 34.5 18 18;" xml:space="preserve">
<path d="M-47.5,35.7L-47.5,35.7l7.9,15.5c0.1,0.2,0.1,0.3,0.1,0.3c0,0-0.1,0.1-0.3,0.1h-15.4c-0.2,0-0.3,0-0.3,0c0,0,0,0,0,0
	c0,0,0-0.1,0.1-0.3L-47.5,35.7L-47.5,35.7 M-47.5,34.5c-0.3,0-0.6,0.2-0.9,0.7l-7.9,15.5c-0.5,1,0,1.8,1.1,1.8h15.4
	c1.1,0,1.6-0.8,1.1-1.8l-7.9-15.5C-46.8,34.7-47.2,34.5-47.5,34.5L-47.5,34.5z"/>
<rect x="-48.5" y="47.5" width="2" height="2"/>
<rect x="-48.5" y="41.5" width="2" height="5"/>
</svg>
