<?xml version="1.0" encoding="utf-8"?>
<!-- Generator: Adobe Illustrator 16.0.4, SVG Export Plug-In . SVG Version: 6.00 Build 0)  -->
<!DOCTYPE svg PUBLIC "-//W3C//DTD SVG 1.1//EN" "http://www.w3.org/Graphics/SVG/1.1/DTD/svg11.dtd">
<svg version="1.1" id="Layer_1" xmlns="http://www.w3.org/2000/svg" xmlns:xlink="http://www.w3.org/1999/xlink" x="0px" y="0px"
	 width="18px" height="18px" viewBox="-56.5 34.5 18 18" style="enable-background:new -56.5 34.5 18 18;" xml:space="preserve">
<path d="M-47.5,34.5c-5,0-9,4-9,9s4,9,9,9s9-4,9-9S-42.5,34.5-47.5,34.5z M-47.5,51.5c-4.4,0-8-3.6-8-8s3.6-8,8-8c4.4,0,8,3.6,8,8
	S-43.1,51.5-47.5,51.5z"/>
<polygon points="-44.7,47.7 -47.5,44.9 -50.3,47.7 -51.7,46.3 -48.9,43.5 -51.7,40.7 -50.3,39.3 -47.5,42.1 -44.7,39.3 -43.3,40.7 
	-46.1,43.5 -43.3,46.3 "/>
</svg>
