<?xml version="1.0" encoding="utf-8"?>
<!-- Generator: Adobe Illustrator 23.0.0, SVG Export Plug-In . SVG Version: 6.00 Build 0)  -->
<svg version="1.1" id="Layer_1" xmlns="http://www.w3.org/2000/svg" xmlns:xlink="http://www.w3.org/1999/xlink" x="0px" y="0px"
	 viewBox="0 0 18 18" style="enable-background:new 0 0 18 18;" xml:space="preserve">
<path d="M9,0C4,0,0,4,0,9s4,9,9,9s9-4,9-9S14,0,9,0z M9,17c-4.4,0-8-3.6-8-8s3.6-8,8-8s8,3.6,8,8S13.4,17,9,17z"/>
<path d="M11.8,13.2L9,10.4l-2.8,2.8l-1.4-1.4L7.6,9L4.8,6.2l1.4-1.4L9,7.6l2.8-2.8l1.4,1.4L10.4,9l2.8,2.8L11.8,13.2z"/>
</svg>
